SplineFontDB: 3.0
FontName: Drukah
FullName: Drukah
FamilyName: Drukah
Weight: Regular
Copyright: License: SIL OFL.\nA derivation from Drukaatie-Burtie-Regular by David Revoy (modification: new J, easier to read)\nAuthor: Karlis Kalviskis\nLast update: 2015.04.08.\nContact: eko@lanet.lv
Version: 0.14.1
ItalicAngle: 0
UnderlinePosition: -273
UnderlineWidth: 100
Ascent: 1638
Descent: 410
InvalidEm: 0
sfntRevision: 0x000023d7
LayerCount: 2
Layer: 0 1 "Back" 1
Layer: 1 1 "Fore" 0
XUID: [1021 125 -1715386503 1351617]
StyleMap: 0x0040
FSType: 0
OS2Version: 3
OS2_WeightWidthSlopeOnly: 0
OS2_UseTypoMetrics: 0
CreationTime: 1277802766
ModificationTime: 1576937846
PfmFamily: 65
TTFWeight: 400
TTFWidth: 5
LineGap: 87
VLineGap: 0
Panose: 3 8 6 2 3 4 2 3 2 4
OS2TypoAscent: 1420
OS2TypoAOffset: 0
OS2TypoDescent: -442
OS2TypoDOffset: 0
OS2TypoLinegap: 307
OS2WinAscent: 1825
OS2WinAOffset: 0
OS2WinDescent: 443
OS2WinDOffset: 0
HheadAscent: 1825
HheadAOffset: 0
HheadDescent: -443
HheadDOffset: 0
OS2SubXSize: 1434
OS2SubYSize: 1332
OS2SubXOff: 0
OS2SubYOff: 292
OS2SupXSize: 1434
OS2SupYSize: 1332
OS2SupXOff: 0
OS2SupYOff: 928
OS2StrikeYSize: 100
OS2StrikeYPos: 420
OS2CapHeight: 1362
OS2XHeight: 897
OS2FamilyClass: 2568
OS2Vendor: '    '
OS2CodePages: 00000093.00000000
OS2UnicodeRanges: 8000007f.0000000a.00000020.00000000
MarkAttachClasses: 1
DEI: 91125
ShortTable: maxp 16
  1
  0
  464
  174
  8
  203
  9
  2
  0
  1
  1
  0
  64
  46
  3
  2
EndShort

StartChar: .notdef
Encoding: 65536 -1 0
Width: 824
Flags: W
LayerCount: 2
Fore
SplineSet
64 -390 m 1,0,-1
 64 1148 l 1,1,-1
 690 1148 l 1,2,-1
 690 -390 l 1,3,-1
 64 -390 l 1,0,-1
162 -290 m 1,4,-1
 590 -290 l 1,5,-1
 590 1050 l 1,6,-1
 162 1050 l 1,7,-1
 162 -290 l 1,4,-1
EndSplineSet
EndChar

StartChar: uni0000
Encoding: 0 -1 1
AltUni2: 000000.ffffffff.0
Width: 1551
Flags: W
LayerCount: 2
Fore
SplineSet
2 733 m 1,0,-1
 0 1825 l 1,1,-1
 132 1825 l 1,2,-1
 134 925 l 1,3,-1
 771 1821 l 1,4,-1
 937 1830 l 1,5,-1
 531 1230 l 1,6,-1
 915 733 l 1,7,-1
 921 -166 l 1,8,-1
 1550 733 l 1,9,-1
 1713 733 l 1,10,-1
 1310 123 l 1,11,-1
 1720 -409 l 1,12,-1
 1550 -411 l 1,13,-1
 1210 0 l 1,14,-1
 909 -409 l 1,15,-1
 783 -409 l 1,16,-1
 786 676 l 1,17,-1
 431 1123 l 1,18,-1
 128 733 l 1,19,-1
 2 733 l 1,0,-1
EndSplineSet
EndChar

StartChar: exclam
Encoding: 33 33 5
Width: 670
Flags: W
LayerCount: 2
Fore
SplineSet
233 1425 m 0,0,1
 235 1434 235 1434 258 1434 c 0,2,3
 277 1434 277 1434 277 1427 c 0,4,5
 277 1426 277 1426 277 1425 c 0,6,7
 181 1175 181 1175 181 928 c 128,-1,8
 181 681 181 681 277 436 c 0,9,10
 277 428 277 428 255 428 c 128,-1,11
 233 428 233 428 233 436 c 0,12,13
 146 676 146 676 146 923 c 0,14,15
 146 1171 146 1171 233 1425 c 0,0,1
378 1286 m 1,16,17
 363 1265 363 1265 343 1154 c 0,18,19
 322 1043 322 1043 322 1008 c 128,-1,20
 322 973 322 973 336 873 c 0,21,22
 350 774 350 774 358 751 c 1,23,24
 363 762 363 762 367 786 c 2,25,-1
 386 887 l 1,26,27
 406 962 406 962 406 1008 c 2,28,-1
 414 1136 l 1,29,-1
 410 1170 l 1,30,31
 393 1266 393 1266 378 1286 c 1,16,17
522 1098 m 128,-1,33
 522 1035 522 1035 510 955 c 128,-1,34
 498 875 498 875 474 718 c 0,35,36
 450 562 450 562 442 522 c 0,37,38
 422 432 422 432 352 432 c 0,39,40
 334 432 334 432 312 439 c 128,-1,41
 290 446 290 446 278 472 c 0,42,43
 265 497 265 497 247 566 c 0,44,45
 228 634 228 634 220 742 c 128,-1,46
 212 850 212 850 206 911 c 0,47,48
 200 971 200 971 200 1010 c 128,-1,49
 200 1049 200 1049 230 1175 c 0,50,51
 260 1300 260 1300 298 1369 c 0,52,53
 336 1437 336 1437 375 1437 c 0,54,55
 379 1437 379 1437 383 1437 c 0,56,57
 415 1437 415 1437 426 1430 c 0,58,59
 481 1399 481 1399 501 1280 c 0,60,32
 522 1161 522 1161 522 1098 c 128,-1,33
358 182 m 0,61,62
 400 163 400 163 400 103 c 128,-1,63
 400 43 400 43 378 11 c 128,-1,64
 356 -21 356 -21 328.5 -33.5 c 128,-1,65
 301 -46 301 -46 289.5 -46 c 128,-1,66
 278 -46 278 -46 255.5 -39.5 c 128,-1,67
 233 -33 233 -33 202.5 -6 c 128,-1,68
 172 21 172 21 172 47 c 128,-1,69
 172 73 172 73 190 112 c 128,-1,70
 208 151 208 151 228.5 164.5 c 128,-1,71
 249 178 249 178 272 181 c 128,-1,72
 295 184 295 184 309 186 c 128,-1,73
 323 188 323 188 331.5 189 c 128,-1,74
 340 190 340 190 358 182 c 0,61,62
EndSplineSet
EndChar

StartChar: quotedbl
Encoding: 34 34 6
Width: 1034
Flags: W
LayerCount: 2
Fore
SplineSet
158 978 m 2,0,1
 124 978 124 978 124 991 c 2,2,-1
 133 1355 l 1,3,4
 171 1428 171 1428 238 1430 c 2,5,-1
 254 1430 l 2,6,7
 440 1430 440 1430 440 1346 c 2,8,-1
 440 1344 l 2,9,10
 440 1308 440 1308 379 1226 c 128,-1,11
 318 1144 318 1144 318 1112 c 2,12,-1
 318 1108 l 1,13,-1
 316 1105 l 2,14,15
 273 1044 273 1044 252 1028.5 c 128,-1,16
 231 1013 231 1013 221.5 1004.5 c 128,-1,17
 212 996 212 996 198.5 987 c 128,-1,18
 185 978 185 978 178 978 c 2,19,-1
 158 978 l 2,0,1
724 1420 m 2,20,21
 912 1420 912 1420 912 1332 c 0,22,23
 912 1300 912 1300 849 1216 c 128,-1,24
 786 1132 786 1132 786 1098 c 2,25,-1
 786 1094 l 1,26,-1
 784 1091 l 2,27,28
 743 1027 743 1027 702.5 999.5 c 128,-1,29
 662 972 662 972 648.5 972 c 128,-1,30
 635 972 635 972 623 978 c 1,31,-1
 602 1010 l 1,32,-1
 600 1335 l 2,33,34
 602 1342 602 1342 603 1343 c 0,35,36
 641 1416 641 1416 707 1420 c 1,37,-1
 724 1420 l 2,20,21
EndSplineSet
EndChar

StartChar: numbersign
Encoding: 35 35 7
Width: 1216
Flags: W
LayerCount: 2
Fore
SplineSet
411 658 m 1,0,1
 409 654 409 654 402.5 640 c 128,-1,2
 396 626 396 626 396 574 c 128,-1,3
 396 522 396 522 397 475 c 128,-1,4
 398 428 398 428 402 412 c 1,5,6
 406 535 406 535 411 658 c 1,0,1
865 709 m 0,7,8
 858 701 858 701 858 684.5 c 128,-1,9
 858 668 858 668 864 646.5 c 128,-1,10
 870 625 870 625 871 620 c 1,11,12
 873 665 873 665 874 711 c 1,13,14
 870 710 870 710 865 709 c 0,7,8
443 393 m 1,15,16
 481 390 481 390 588.5 390 c 128,-1,17
 696 390 696 390 721 400.5 c 128,-1,18
 746 411 746 411 748 421 c 128,-1,19
 750 431 750 431 750 503 c 128,-1,20
 750 575 750 575 742 606 c 128,-1,21
 734 637 734 637 729.5 653.5 c 128,-1,22
 725 670 725 670 718 677 c 128,-1,23
 711 684 711 684 667.5 684 c 128,-1,24
 624 684 624 684 588.5 682 c 128,-1,25
 553 680 553 680 513 678.5 c 128,-1,26
 473 677 473 677 455 675 c 1,27,28
 449 534 449 534 443 393 c 1,15,16
459 805 m 1,29,30
 490 802 490 802 579.5 802 c 128,-1,31
 669 802 669 802 718 837 c 1,32,33
 726 850 726 850 726 922 c 2,34,-1
 726 948 l 2,35,36
 726 1109 726 1109 748 1191.5 c 128,-1,37
 770 1274 770 1274 822 1274 c 0,38,39
 851 1274 851 1274 864.5 1251.5 c 128,-1,40
 878 1229 878 1229 878 1081.5 c 128,-1,41
 878 934 878 934 870 908.5 c 128,-1,42
 862 883 862 883 862 878 c 128,-1,43
 862 873 862 873 865 872.5 c 128,-1,44
 868 872 868 872 881 871 c 1,45,46
 888 1036 888 1036 897 1200 c 0,47,48
 898 1211 898 1211 915 1210 c 128,-1,49
 932 1209 932 1209 932 1199 c 0,50,51
 928 1034 928 1034 923 870 c 1,52,53
 942 870 942 870 1001.5 870 c 128,-1,54
 1061 870 1061 870 1098.5 861 c 128,-1,55
 1136 852 1136 852 1149 824.5 c 128,-1,56
 1162 797 1162 797 1162 782 c 0,57,58
 1162 734 1162 734 1080 734 c 1,59,-1
 918 721 l 1,60,61
 913 580 913 580 907 440 c 1,62,63
 922 435 922 435 964.5 429 c 128,-1,64
 1007 423 1007 423 1028.5 405.5 c 128,-1,65
 1050 388 1050 388 1050 346.5 c 128,-1,66
 1050 305 1050 305 1032 293.5 c 128,-1,67
 1014 282 1014 282 970 282 c 2,68,-1
 903 280 l 1,69,70
 902 275 902 275 902 265.5 c 128,-1,71
 902 256 902 256 897 194.5 c 128,-1,72
 892 133 892 133 887 31 c 0,73,74
 886 22 886 22 869 22.5 c 128,-1,75
 852 23 852 23 852.5 44 c 128,-1,76
 853 65 853 65 854 98 c 1,77,78
 843 67 843 67 830 44.5 c 128,-1,79
 817 22 817 22 794 22 c 128,-1,80
 771 22 771 22 743.5 47.5 c 128,-1,81
 716 73 716 73 716 116.5 c 128,-1,82
 716 160 716 160 730 201 c 128,-1,83
 744 242 744 242 744 254.5 c 128,-1,84
 744 267 744 267 737 275 c 0,85,86
 729 282 729 282 679 282 c 128,-1,87
 629 282 629 282 549.5 267.5 c 128,-1,88
 470 253 470 253 436 242 c 1,89,90
 431 131 431 131 425 21 c 0,91,92
 424 12 424 12 407 12.5 c 128,-1,93
 390 13 390 13 390 22 c 0,94,95
 392 99 392 99 394 176 c 1,96,97
 389 156 389 156 384 131 c 0,98,99
 362 22 362 22 302 22 c 0,100,101
 259 22 259 22 248.5 53 c 128,-1,102
 238 84 238 84 238 118 c 2,103,-1
 238 177 l 1,104,-1
 247 260 l 1,105,-1
 164 279 l 2,106,107
 146 286 146 286 132.5 293.5 c 128,-1,108
 119 301 119 301 107.5 312 c 128,-1,109
 96 323 96 323 96 334 c 0,110,111
 96 392 96 392 214 410 c 1,112,-1
 270 415 l 1,113,-1
 270 675 l 1,114,-1
 229 684 l 1,115,-1
 190 692 l 2,116,117
 88 713 88 713 69 733 c 128,-1,118
 50 753 50 753 50 774 c 0,119,120
 50 840 50 840 144 840 c 1,121,-1
 268 825 l 1,122,-1
 272 936 l 2,123,124
 274 1058 274 1058 297 1115 c 128,-1,125
 320 1172 320 1172 333 1188 c 128,-1,126
 346 1204 346 1204 369 1204 c 128,-1,127
 392 1204 392 1204 407.5 1188.5 c 128,-1,128
 423 1173 423 1173 424 1147 c 1,129,-1
 406 1007 l 2,130,131
 406 983 406 983 412 933 c 128,-1,132
 418 883 418 883 420 870 c 1,133,134
 427 1031 427 1031 435 1190 c 0,135,136
 436 1201 436 1201 453 1200 c 128,-1,137
 470 1199 470 1199 470 1189 c 0,138,139
 465 996 465 996 459 805 c 1,29,30
EndSplineSet
EndChar

StartChar: dollar
Encoding: 36 36 8
Width: 1184
Flags: W
LayerCount: 2
Fore
SplineSet
354 939.5 m 128,-1,1
 354 984 354 984 354 1026 c 0,2,3
 354 1031 354 1031 355 1036 c 0,4,5
 355 1071 355 1071 351 1080 c 1,6,7
 322 1078 322 1078 322 1015 c 0,8,9
 322 1012 322 1012 322 1010 c 0,10,11
 322 951 322 951 334 921 c 0,12,13
 346 890 346 890 351 880 c 1,14,0
 354 895 354 895 354 939.5 c 128,-1,1
144 -90 m 0,15,16
 66 -90 66 -90 66 -31 c 0,17,18
 66 -6 66 -6 83 18 c 128,-1,19
 100 42 100 42 100 79 c 2,20,-1
 98 101 l 1,21,-1
 98 106 l 2,22,23
 98 156 98 156 120.5 184 c 128,-1,24
 143 212 143 212 186 212 c 1,25,-1
 402 182 l 1,26,27
 403 193 403 193 404 214 c 2,28,-1
 379 667 l 1,29,-1
 337 691 l 2,30,31
 296 714 296 714 258 757.5 c 128,-1,32
 220 801 220 801 204 837.5 c 128,-1,33
 188 874 188 874 188 951.5 c 128,-1,34
 188 1029 188 1029 210 1081 c 128,-1,35
 232 1133 232 1133 274 1181.5 c 128,-1,36
 316 1230 316 1230 331 1268 c 1,37,38
 330 1280 330 1280 330 1291 c 0,39,40
 330 1395 330 1395 380 1461 c 0,41,42
 391 1474 391 1474 408.5 1474 c 128,-1,43
 426 1474 426 1474 440 1448 c 1,44,-1
 486 1321 l 2,45,46
 495 1306 495 1306 522 1302 c 1,47,-1
 560 1305 l 1,48,49
 568 1314 568 1314 577 1361.5 c 128,-1,50
 586 1409 586 1409 602 1433.5 c 128,-1,51
 618 1458 618 1458 652 1458 c 0,52,53
 684 1458 684 1458 710 1433 c 0,54,55
 734 1410 734 1410 734 1373 c 0,56,57
 734 1370 734 1370 734 1367 c 2,58,-1
 734 1235 l 1,59,60
 788 1210 788 1210 836 1184 c 1,61,-1
 876 1204 l 2,62,63
 925 1229 925 1229 956 1229 c 2,64,-1
 957 1229 l 2,65,66
 992 1227 992 1227 1005 1201 c 1,67,-1
 1012 1170 l 1,68,-1
 1012 1159 l 1,69,-1
 978 1091 l 1,70,71
 949 1042 949 1042 913 1006.5 c 128,-1,72
 877 971 877 971 849.5 971 c 128,-1,73
 822 971 822 971 792 1009.5 c 128,-1,74
 762 1048 762 1048 751 1058 c 1,75,76
 747 1053 747 1053 738.5 1041 c 128,-1,77
 730 1029 730 1029 730 918 c 2,78,-1
 730 812 l 1,79,-1
 771 807 l 2,80,81
 865 793 865 793 912 771.5 c 128,-1,82
 959 750 959 750 1010.5 694.5 c 128,-1,83
 1062 639 1062 639 1093 570.5 c 128,-1,84
 1124 502 1124 502 1124 419 c 128,-1,85
 1124 336 1124 336 1090.5 242.5 c 128,-1,86
 1057 149 1057 149 1012 97 c 128,-1,87
 967 45 967 45 943 34 c 128,-1,88
 919 23 919 23 865 15 c 128,-1,89
 811 7 811 7 798.5 0 c 128,-1,90
 786 -7 786 -7 775.5 -29.5 c 128,-1,91
 765 -52 765 -52 751.5 -61 c 128,-1,92
 738 -70 738 -70 701.5 -70 c 128,-1,93
 665 -70 665 -70 645 -42.5 c 128,-1,94
 625 -15 625 -15 618.5 -15 c 128,-1,95
 612 -15 612 -15 611 -15.5 c 128,-1,96
 610 -16 610 -16 608 -21 c 2,97,-1
 609 -71 l 1,98,-1
 609 -73 l 1,99,100
 595 -203 595 -203 530 -208 c 0,101,102
 493 -208 493 -208 475.5 -180 c 128,-1,103
 458 -152 458 -152 453 -82 c 128,-1,104
 448 -12 448 -12 434.5 9.5 c 128,-1,105
 421 31 421 31 360 51 c 2,106,-1
 282 75 l 1,107,108
 273 68 273 68 264 23.5 c 128,-1,109
 255 -21 255 -21 213.5 -55.5 c 128,-1,110
 172 -90 172 -90 144 -90 c 0,15,16
487 1015.5 m 128,-1,112
 487 870 487 870 499 836 c 128,-1,113
 511 802 511 802 516.5 797 c 128,-1,114
 522 792 522 792 547.5 792 c 128,-1,115
 573 792 573 792 583 803 c 0,116,117
 594 823 594 823 596 984 c 2,118,-1
 598 1153 l 1,119,-1
 512 1194 l 1,120,121
 505 1192 505 1192 496 1176.5 c 128,-1,111
 487 1161 487 1161 487 1015.5 c 128,-1,112
816 666 m 128,-1,123
 795 666 795 666 771 665 c 128,-1,124
 747 664 747 664 739.5 655 c 128,-1,125
 732 646 732 646 732 509 c 128,-1,126
 732 372 732 372 742.5 249.5 c 128,-1,127
 753 127 753 127 762.5 119.5 c 128,-1,128
 772 112 772 112 784 112 c 128,-1,129
 796 112 796 112 831 128.5 c 128,-1,130
 866 145 866 145 890 166 c 1,131,132
 931 308 931 308 931 433 c 0,133,134
 931 529 931 529 907 616 c 1,135,136
 879 643 879 643 858 654.5 c 128,-1,122
 837 666 837 666 816 666 c 128,-1,123
565 642 m 2,137,138
 538 642 538 642 527.5 634 c 128,-1,139
 517 626 517 626 517 608 c 2,140,-1
 556 164 l 2,141,142
 562 133 562 133 580.5 109 c 128,-1,143
 599 85 599 85 612 81 c 1,144,145
 617 98 617 98 617 150 c 2,146,-1
 594 642 l 1,147,-1
 565 642 l 2,137,138
998 433.5 m 128,-1,149
 998 503 998 503 984 526.5 c 128,-1,150
 970 550 970 550 943 581 c 1,151,152
 957 503 957 503 957 422 c 0,153,154
 957 327 957 327 938 227 c 1,155,156
 948 245 948 245 973 304.5 c 128,-1,148
 998 364 998 364 998 433.5 c 128,-1,149
EndSplineSet
EndChar

StartChar: percent
Encoding: 37 37 9
Width: 1254
Flags: W
LayerCount: 2
Fore
SplineSet
1102 1310 m 0,0,1
 1110 1323 1110 1323 1132 1308.5 c 128,-1,2
 1154 1294 1154 1294 1146 1281 c 0,3,4
 717 557 717 557 273 -139 c 0,5,6
 266 -150 266 -150 244 -136 c 128,-1,7
 222 -122 222 -122 229 -110 c 0,8,9
 658 612 658 612 1102 1310 c 0,0,1
213 -77.5 m 128,-1,11
 181 -120 181 -120 151 -120 c 128,-1,12
 121 -120 121 -120 108.5 -104 c 128,-1,13
 96 -88 96 -88 96 -61 c 2,14,-1
 96 -51 l 2,15,16
 96 9 96 9 219.5 220.5 c 128,-1,17
 343 432 343 432 445 572.5 c 128,-1,18
 547 713 547 713 587.5 779 c 128,-1,19
 628 845 628 845 665 902 c 128,-1,20
 702 959 702 959 792.5 1127.5 c 128,-1,21
 883 1296 883 1296 912 1337.5 c 128,-1,22
 941 1379 941 1379 958.5 1390.5 c 128,-1,23
 976 1402 976 1402 1006 1402 c 128,-1,24
 1036 1402 1036 1402 1044 1391 c 128,-1,25
 1052 1380 1052 1380 1052 1335.5 c 128,-1,26
 1052 1291 1052 1291 1017 1225.5 c 128,-1,27
 982 1160 982 1160 903 1035 c 128,-1,28
 824 910 824 910 778 826 c 128,-1,29
 732 742 732 742 570 506.5 c 128,-1,30
 408 271 408 271 357.5 194 c 128,-1,31
 307 117 307 117 276 41 c 128,-1,10
 245 -35 245 -35 213 -77.5 c 128,-1,11
113 1275 m 0,32,33
 160 1392 160 1392 296.5 1392 c 128,-1,34
 433 1392 433 1392 475 1339.5 c 128,-1,35
 517 1287 517 1287 540.5 1207.5 c 128,-1,36
 564 1128 564 1128 564 1084 c 128,-1,37
 564 1040 564 1040 521 930 c 0,38,39
 441 724 441 724 310 724 c 0,40,41
 251 724 251 724 176 762 c 128,-1,42
 101 800 101 800 82.5 837.5 c 128,-1,43
 64 875 64 875 64 919.5 c 128,-1,44
 64 964 64 964 71 1079.5 c 128,-1,45
 78 1195 78 1195 113 1275 c 0,32,33
278 1261 m 128,-1,47
 269 1256 269 1256 251 1226 c 128,-1,48
 233 1196 233 1196 214.5 1087.5 c 128,-1,49
 196 979 196 979 196 954 c 128,-1,50
 196 929 196 929 207.5 909 c 128,-1,51
 219 889 219 889 248.5 870.5 c 128,-1,52
 278 852 278 852 299.5 852 c 128,-1,53
 321 852 321 852 354.5 889.5 c 128,-1,54
 388 927 388 927 400 974 c 128,-1,55
 412 1021 412 1021 412 1110 c 128,-1,56
 412 1199 412 1199 393 1227 c 128,-1,57
 374 1255 374 1255 364 1260.5 c 128,-1,58
 354 1266 354 1266 320.5 1266 c 128,-1,46
 287 1266 287 1266 278 1261 c 128,-1,47
1164 506 m 0,59,60
 1183 476 1183 476 1189.5 446.5 c 128,-1,61
 1196 417 1196 417 1196 342 c 128,-1,62
 1196 267 1196 267 1190.5 236.5 c 128,-1,63
 1185 206 1185 206 1160.5 160.5 c 128,-1,64
 1136 115 1136 115 1086 65 c 128,-1,65
 1036 15 1036 15 1005 5.5 c 128,-1,66
 974 -4 974 -4 943 -4 c 128,-1,67
 912 -4 912 -4 863.5 14 c 128,-1,68
 815 32 815 32 785 78 c 128,-1,69
 755 124 755 124 739.5 207.5 c 128,-1,70
 724 291 724 291 724 356.5 c 128,-1,71
 724 422 724 422 764.5 480.5 c 128,-1,72
 805 539 805 539 848.5 548 c 128,-1,73
 892 557 892 557 925 583.5 c 128,-1,74
 958 610 958 610 992 610 c 0,75,76
 1101 610 1101 610 1164 506 c 0,59,60
1070 358 m 0,77,78
 1070 395 1070 395 1053 433.5 c 128,-1,79
 1036 472 1036 472 1012.5 472 c 128,-1,80
 989 472 989 472 946 425.5 c 128,-1,81
 903 379 903 379 897.5 345.5 c 128,-1,82
 892 312 892 312 885.5 284 c 128,-1,83
 879 256 879 256 876 232 c 1,84,-1
 877 231 l 1,85,-1
 877 226 l 2,86,87
 877 209 877 209 896.5 174.5 c 128,-1,88
 916 140 916 140 948.5 140 c 128,-1,89
 981 140 981 140 1004 161 c 0,90,91
 1070 219 1070 219 1070 358 c 0,77,78
EndSplineSet
EndChar

StartChar: ampersand
Encoding: 38 38 10
Width: 1208
Flags: W
LayerCount: 2
Fore
SplineSet
516 1372 m 128,-1,1
 555 1372 555 1372 639 1321 c 128,-1,2
 723 1270 723 1270 740 1189 c 1,3,-1
 744 1036 l 2,4,5
 744 965 744 965 709 888.5 c 128,-1,6
 674 812 674 812 642 772.5 c 128,-1,7
 610 733 610 733 578 714 c 128,-1,8
 546 695 546 695 541 692 c 1,9,10
 599 517 599 517 702 366 c 1,11,12
 727 387 727 387 799 457.5 c 128,-1,13
 871 528 871 528 905.5 541 c 128,-1,14
 940 554 940 554 972.5 554 c 128,-1,15
 1005 554 1005 554 1058.5 549 c 128,-1,16
 1112 544 1112 544 1112 512 c 128,-1,17
 1112 480 1112 480 1094.5 473 c 128,-1,18
 1077 466 1077 466 1020.5 453.5 c 128,-1,19
 964 441 964 441 892 365 c 128,-1,20
 820 289 820 289 820 274.5 c 128,-1,21
 820 260 820 260 825.5 256 c 128,-1,22
 831 252 831 252 849 247 c 128,-1,23
 867 242 867 242 923.5 236 c 128,-1,24
 980 230 980 230 991.5 227 c 128,-1,25
 1003 224 1003 224 1018 224 c 128,-1,26
 1033 224 1033 224 1057 228 c 128,-1,27
 1081 232 1081 232 1105.5 232 c 128,-1,28
 1130 232 1130 232 1142 216 c 128,-1,29
 1154 200 1154 200 1154 157 c 128,-1,30
 1154 114 1154 114 1120.5 108 c 128,-1,31
 1087 102 1087 102 963.5 102 c 128,-1,32
 840 102 840 102 767 141 c 1,33,-1
 729 158 l 1,34,-1
 688 115 l 1,35,36
 599 32 599 32 508 -15 c 128,-1,37
 417 -62 417 -62 366.5 -62 c 128,-1,38
 316 -62 316 -62 237 -35.5 c 128,-1,39
 158 -9 158 -9 120.5 18 c 128,-1,40
 83 45 83 45 66.5 127 c 128,-1,41
 50 209 50 209 50 258 c 0,42,43
 50 463 50 463 227 646 c 1,44,-1
 305 724 l 1,45,-1
 290 784 l 1,46,-1
 276 978 l 2,47,48
 276 996 276 996 278 1030 c 128,-1,49
 280 1064 280 1064 300.5 1128.5 c 128,-1,50
 321 1193 321 1193 363 1260 c 128,-1,51
 405 1327 405 1327 441 1349.5 c 128,-1,0
 477 1372 477 1372 516 1372 c 128,-1,1
526 1222 m 0,52,53
 513 1222 513 1222 500.5 1214 c 128,-1,54
 488 1206 488 1206 468 1169 c 1,55,56
 469 990 469 990 504 828 c 1,57,58
 521 847 521 847 558 905 c 128,-1,59
 595 963 595 963 609.5 1033 c 128,-1,60
 624 1103 624 1103 624 1121 c 1,61,-1
 609 1165 l 1,62,63
 584 1222 584 1222 526 1222 c 0,52,53
601 215 m 1,64,65
 592 233 592 233 534 309 c 128,-1,66
 476 385 476 385 422.5 476 c 128,-1,67
 369 567 369 567 353 580 c 1,68,69
 340 576 340 576 312 545 c 1,70,71
 256 429 256 429 256 319 c 0,72,73
 256 194 256 194 329 76 c 1,74,75
 392 77 392 77 434 97.5 c 128,-1,76
 476 118 476 118 533 160 c 128,-1,77
 590 202 590 202 601 215 c 1,64,65
503 653 m 1,78,79
 502 649 502 649 502 633 c 128,-1,80
 502 617 502 617 522.5 581.5 c 128,-1,81
 543 546 543 546 552 532 c 1,82,83
 525 591 525 591 503 653 c 1,78,79
427 1046 m 1,84,85
 426 1040 426 1040 417 994.5 c 128,-1,86
 408 949 408 949 408 905 c 128,-1,87
 408 861 408 861 423.5 830 c 128,-1,88
 439 799 439 799 462 798 c 1,89,90
 435 917 435 917 427 1046 c 1,84,85
214 387 m 1,91,92
 209 371 209 371 195.5 324.5 c 128,-1,93
 182 278 182 278 182 223 c 128,-1,94
 182 168 182 168 213.5 131.5 c 128,-1,95
 245 95 245 95 277 84 c 1,96,97
 208 196 208 196 208 317 c 0,98,99
 208 352 208 352 214 387 c 1,91,92
EndSplineSet
EndChar

StartChar: quotesingle
Encoding: 39 39 11
Width: 582
Flags: W
LayerCount: 2
Fore
SplineSet
309 1422 m 1,0,-1
 335 1420 l 1,1,-1
 336 1420 l 1,2,3
 452 1405 452 1405 454 1330 c 2,4,-1
 454 1315 l 1,5,6
 450 1271 450 1271 391 1190.5 c 128,-1,7
 332 1110 332 1110 326 1095 c 1,8,-1
 326 1092 l 1,9,-1
 323 1088 l 1,10,11
 228 976 228 976 173 972 c 1,12,-1
 172 972 l 1,13,-1
 150 974 l 2,14,15
 140 976 140 976 135 983 c 2,16,17
 135 983 135 983 130 1001 c 1,18,-1
 163 1067 l 1,19,20
 191 1114 191 1114 213 1222 c 0,21,22
 234 1330 234 1330 256 1377 c 0,23,24
 277 1422 277 1422 305 1422 c 0,25,26
 306 1422 306 1422 307 1422 c 2,27,-1
 309 1422 l 1,0,-1
EndSplineSet
EndChar

StartChar: parenleft
Encoding: 40 40 12
Width: 454
Flags: W
LayerCount: 2
Fore
SplineSet
288 1064 m 1,0,1
 215 908 215 908 197.5 750.5 c 128,-1,2
 180 593 180 593 180 528 c 128,-1,3
 180 463 180 463 203 327 c 128,-1,4
 226 191 226 191 286 98 c 1,5,6
 226 329 226 329 226 569 c 0,7,8
 226 812 226 812 288 1064 c 1,0,1
510 1514 m 128,-1,10
 530 1498 530 1498 530 1465 c 128,-1,11
 530 1432 530 1432 475.5 1366.5 c 128,-1,12
 421 1301 421 1301 389 1250 c 1,13,14
 280 901 280 901 280 569 c 0,15,16
 280 274 280 274 366 -8 c 1,17,18
 436 -90 436 -90 486 -135.5 c 128,-1,19
 536 -181 536 -181 557 -202 c 128,-1,20
 578 -223 578 -223 578 -251 c 128,-1,21
 578 -279 578 -279 558 -284.5 c 128,-1,22
 538 -290 538 -290 511.5 -294 c 128,-1,23
 485 -298 485 -298 452 -298 c 128,-1,24
 419 -298 419 -298 418 -274 c 0,25,26
 415 -263 415 -263 376 -225.5 c 128,-1,27
 337 -188 337 -188 288 -126 c 128,-1,28
 239 -64 239 -64 202.5 -22.5 c 128,-1,29
 166 19 166 19 123 115 c 128,-1,30
 80 211 80 211 67 316 c 128,-1,31
 54 421 54 421 54 532 c 128,-1,32
 54 643 54 643 78 754 c 128,-1,33
 102 865 102 865 149.5 1015 c 128,-1,34
 197 1165 197 1165 275.5 1312 c 128,-1,35
 354 1459 354 1459 384 1493.5 c 128,-1,36
 414 1528 414 1528 455 1530 c 2,37,-1
 456 1530 l 2,38,9
 490 1530 490 1530 510 1514 c 128,-1,10
EndSplineSet
EndChar

StartChar: parenright
Encoding: 41 41 13
Width: 426
Flags: W
LayerCount: 2
Fore
SplineSet
164 256 m 1,0,1
 205 356 205 356 227.5 486.5 c 128,-1,2
 250 617 250 617 252 660 c 2,3,-1
 252 760 l 2,4,5
 250 815 250 815 236.5 921.5 c 128,-1,6
 223 1028 223 1028 148 1146 c 1,7,8
 209 914 209 914 209 674 c 0,9,10
 209 468 209 468 164 256 c 1,0,1
-24 1520 m 1,11,-1
 -9 1523 l 1,12,-1
 19 1523 l 1,13,-1
 57 1498 l 1,14,15
 57 1492 57 1492 95 1449 c 128,-1,16
 133 1406 133 1406 178.5 1341.5 c 128,-1,17
 224 1277 224 1277 258.5 1233.5 c 128,-1,18
 293 1190 293 1190 330.5 1091.5 c 128,-1,19
 368 993 368 993 372 930 c 2,20,-1
 380 812 l 1,21,-1
 376 659 l 2,22,23
 372 558 372 558 341.5 450 c 128,-1,24
 311 342 311 342 255 194.5 c 128,-1,25
 199 47 199 47 112.5 -95 c 128,-1,26
 26 -237 26 -237 -2 -268 c 128,-1,27
 -30 -299 -30 -299 -53 -300 c 2,28,-1
 -78 -302 l 1,29,-1
 -79 -302 l 1,30,31
 -150 -297 -150 -297 -152 -249 c 2,32,-1
 -152 -246 l 2,33,34
 -152 -203 -152 -203 -77 -124.5 c 128,-1,35
 -2 -46 -2 -46 64 63 c 1,36,37
 155 376 155 376 155 678 c 0,38,39
 155 973 155 973 68 1258 c 1,40,41
 11 1329 11 1329 -45.5 1389 c 128,-1,42
 -102 1449 -102 1449 -102 1476 c 2,43,-1
 -102 1479 l 2,44,45
 -99 1508 -99 1508 -84 1514 c 2,46,-1
 -52 1523 l 1,47,-1
 -24 1520 l 1,11,-1
EndSplineSet
EndChar

StartChar: asterisk
Encoding: 42 42 14
Width: 986
Flags: W
LayerCount: 2
Fore
SplineSet
304 503 m 2,0,-1
 199 500 l 2,1,2
 178 503 178 503 155 527 c 128,-1,3
 132 551 132 551 132 587 c 128,-1,4
 132 623 132 623 141.5 644 c 128,-1,5
 151 665 151 665 190 684.5 c 128,-1,6
 229 704 229 704 248 704 c 2,7,-1
 279 705 l 1,8,9
 273 718 273 718 248.5 751 c 128,-1,10
 224 784 224 784 224 814.5 c 128,-1,11
 224 845 224 845 242 860.5 c 128,-1,12
 260 876 260 876 301 876 c 128,-1,13
 342 876 342 876 386 817 c 128,-1,14
 430 758 430 758 445 740 c 1,15,16
 433 787 433 787 433 822.5 c 128,-1,17
 433 858 433 858 442.5 906 c 128,-1,18
 452 954 452 954 492 958 c 1,19,-1
 495 958 l 2,20,21
 533 958 533 958 544.5 895 c 128,-1,22
 556 832 556 832 561 796 c 1,23,24
 568 805 568 805 574 815 c 0,25,26
 662 936 662 936 720 936 c 0,27,28
 723 936 723 936 726 935.5 c 128,-1,29
 729 935 729 935 732.5 932.5 c 128,-1,30
 736 930 736 930 738 928.5 c 128,-1,31
 740 927 740 927 745 923.5 c 128,-1,32
 750 920 750 920 765 909 c 128,-1,33
 780 898 780 898 780 864 c 2,34,-1
 780 860 l 2,35,36
 780 828 780 828 748.5 786 c 128,-1,37
 717 744 717 744 710 730 c 1,38,39
 722 725 722 725 767.5 719.5 c 128,-1,40
 813 714 813 714 834.5 698 c 128,-1,41
 856 682 856 682 856 638 c 128,-1,42
 856 594 856 594 834 579 c 128,-1,43
 812 564 812 564 767.5 560 c 128,-1,44
 723 556 723 556 717 553.5 c 128,-1,45
 711 551 711 551 709.5 543 c 128,-1,46
 708 535 708 535 708 532 c 0,47,48
 708 515 708 515 746 494 c 128,-1,49
 784 473 784 473 784 433.5 c 128,-1,50
 784 394 784 394 768.5 378 c 128,-1,51
 753 362 753 362 725 360 c 2,52,-1
 724 360 l 2,53,54
 683 360 683 360 632 410 c 128,-1,55
 581 460 581 460 563 475 c 1,56,57
 578 448 578 448 578 415 c 128,-1,58
 578 382 578 382 568 331 c 0,59,60
 558 281 558 281 526 281 c 2,61,62
 526 281 526 281 525 281 c 0,63,64
 521 282 521 282 518 282 c 0,65,66
 479 290 479 290 460 389 c 0,67,68
 457 407 457 407 454 425 c 1,69,70
 451 421 451 421 448 417 c 0,71,72
 378 320 378 320 324 320 c 0,73,74
 313 320 313 320 303 325 c 0,75,76
 252 348 252 348 252 396.5 c 128,-1,77
 252 445 252 445 277.5 469 c 128,-1,78
 303 493 303 493 303.5 497.5 c 128,-1,79
 304 502 304 502 304 503 c 2,0,-1
EndSplineSet
EndChar

StartChar: plus
Encoding: 43 43 15
Width: 1020
Flags: W
LayerCount: 2
Fore
SplineSet
812 554 m 2,0,-1
 696 562 l 2,1,2
 654 562 654 562 623 554 c 2,3,-1
 580 540 l 1,4,-1
 584 380 l 1,5,6
 582 254 582 254 512 254 c 0,7,8
 466 254 466 254 449 291.5 c 128,-1,9
 432 329 432 329 432 397.5 c 128,-1,10
 432 466 432 466 421.5 497.5 c 128,-1,11
 411 529 411 529 404 538 c 1,12,-1
 356 540 l 1,13,14
 309 536 309 536 259 525 c 2,15,-1
 187 514 l 1,16,-1
 145 536 l 1,17,-1
 143 537 l 1,18,-1
 128 574 l 1,19,-1
 128 578 l 2,20,21
 128 617 128 617 180 649.5 c 128,-1,22
 232 682 232 682 327 690 c 2,23,-1
 405 694 l 1,24,-1
 412 801 l 1,25,26
 412 801 412 801 412 812 c 0,27,28
 412 824 412 824 413 842.5 c 128,-1,29
 414 861 414 861 416 880.5 c 128,-1,30
 418 900 418 900 422.5 918.5 c 128,-1,31
 427 937 427 937 440.5 957.5 c 128,-1,32
 454 978 454 978 486.5 978 c 128,-1,33
 519 978 519 978 536 967.5 c 128,-1,34
 553 957 553 957 556.5 926.5 c 128,-1,35
 560 896 560 896 560 807.5 c 128,-1,36
 560 719 560 719 569 704 c 0,37,38
 578 695 578 695 603 694 c 2,39,-1
 764 708 l 1,40,41
 892 708 892 708 892 628 c 2,42,-1
 892 626 l 2,43,44
 892 577 892 577 869.5 565.5 c 128,-1,45
 847 554 847 554 812 554 c 2,0,-1
EndSplineSet
EndChar

StartChar: comma
Encoding: 44 44 16
Width: 564
Flags: W
LayerCount: 2
Fore
SplineSet
176.5 -137 m 128,-1,1
 161 -126 161 -126 161 -112 c 128,-1,2
 161 -98 161 -98 169 -87 c 128,-1,3
 177 -76 177 -76 199 -53 c 128,-1,4
 221 -30 221 -30 227 -21 c 1,5,6
 221 -13 221 -13 198.5 8 c 128,-1,7
 176 29 176 29 168.5 42.5 c 128,-1,8
 161 56 161 56 161 81 c 0,9,10
 161 149 161 149 238 176 c 0,11,12
 263 185 263 185 278 184.5 c 128,-1,13
 293 184 293 184 309 182 c 128,-1,14
 325 180 325 180 363.5 152.5 c 128,-1,15
 402 125 402 125 402 87 c 128,-1,16
 402 49 402 49 396 23 c 128,-1,17
 390 -3 390 -3 335 -71.5 c 128,-1,18
 280 -140 280 -140 228 -145 c 1,19,-1
 228 -148 l 1,20,-1
 217 -148 l 2,21,0
 192 -148 192 -148 176.5 -137 c 128,-1,1
EndSplineSet
EndChar

StartChar: hyphen
Encoding: 45 45 17
Width: 842
Flags: W
LayerCount: 2
Fore
SplineSet
714 630 m 0,0,1
 714 607 714 607 695.5 574.5 c 128,-1,2
 677 542 677 542 626.5 542 c 128,-1,3
 576 542 576 542 556 543 c 128,-1,4
 536 544 536 544 505.5 544 c 128,-1,5
 475 544 475 544 409 533 c 128,-1,6
 343 522 343 522 300 522 c 128,-1,7
 257 522 257 522 218.5 525.5 c 128,-1,8
 180 529 180 529 171.5 530 c 128,-1,9
 163 531 163 531 152.5 534 c 128,-1,10
 142 537 142 537 134 545 c 128,-1,11
 126 553 126 553 126 570.5 c 128,-1,12
 126 588 126 588 127 610.5 c 128,-1,13
 128 633 128 633 142.5 647.5 c 128,-1,14
 157 662 157 662 181 671 c 128,-1,15
 205 680 205 680 238 686 c 1,16,-1
 466 698 l 1,17,-1
 619 698 l 1,18,19
 712 689 712 689 714 630 c 0,0,1
EndSplineSet
EndChar

StartChar: period
Encoding: 46 46 18
Width: 550
Flags: W
LayerCount: 2
Fore
SplineSet
346 194 m 0,0,1
 388 175 388 175 388 115 c 128,-1,2
 388 55 388 55 366 23 c 128,-1,3
 344 -9 344 -9 316.5 -21.5 c 128,-1,4
 289 -34 289 -34 277.5 -34 c 128,-1,5
 266 -34 266 -34 243.5 -27.5 c 128,-1,6
 221 -21 221 -21 190.5 6 c 128,-1,7
 160 33 160 33 160 59 c 128,-1,8
 160 85 160 85 178 124 c 128,-1,9
 196 163 196 163 216.5 176.5 c 128,-1,10
 237 190 237 190 260 193 c 128,-1,11
 283 196 283 196 297 198 c 128,-1,12
 311 200 311 200 319.5 201 c 128,-1,13
 328 202 328 202 346 194 c 0,0,1
EndSplineSet
EndChar

StartChar: slash
Encoding: 47 47 19
Width: 742
Flags: W
LayerCount: 2
Fore
SplineSet
840 1393 m 0,0,1
 847 1407 847 1407 865 1397.5 c 128,-1,2
 883 1388 883 1388 876 1374 c 0,3,4
 490 588 490 588 93 -174 c 0,5,6
 87 -186 87 -186 69 -177 c 128,-1,7
 51 -168 51 -168 57 -155 c 0,8,9
 443 628 443 628 840 1393 c 0,0,1
-19 -156 m 2,10,-1
 -28 -156 l 2,11,12
 -52 -156 -52 -156 -65 -140.5 c 128,-1,13
 -78 -125 -78 -125 -78 -98 c 2,14,-1
 -78 -90 l 2,15,16
 -78 -67 -78 -67 -51.5 -16 c 128,-1,17
 -25 35 -25 35 98 285.5 c 128,-1,18
 221 536 221 536 402 875.5 c 128,-1,19
 583 1215 583 1215 615 1302 c 128,-1,20
 647 1389 647 1389 681 1438.5 c 128,-1,21
 715 1488 715 1488 753 1492 c 1,22,-1
 758 1492 l 2,23,24
 777 1492 777 1492 795 1474 c 2,25,-1
 822 1445 l 1,26,-1
 711 1159 l 1,27,-1
 710 1158 l 1,28,29
 512 812 512 812 382.5 550.5 c 128,-1,30
 253 289 253 289 153.5 91.5 c 128,-1,31
 54 -106 54 -106 36 -130 c 128,-1,32
 18 -154 18 -154 -19 -156 c 2,10,-1
EndSplineSet
EndChar

StartChar: zero
Encoding: 48 48 20
Width: 1066
Flags: W
LayerCount: 2
Fore
SplineSet
804 170 m 1,0,1
 844 234 844 234 852 322.5 c 128,-1,2
 860 411 860 411 875 493 c 128,-1,3
 890 575 890 575 890 710 c 128,-1,4
 890 845 890 845 844 984 c 1,5,6
 875 854 875 854 875 699 c 0,7,8
 875 464 875 464 804 170 c 1,0,1
351 1354 m 0,9,10
 406 1386 406 1386 451 1386 c 128,-1,11
 496 1386 496 1386 541.5 1401 c 128,-1,12
 587 1416 587 1416 632.5 1416 c 128,-1,13
 678 1416 678 1416 712 1392.5 c 128,-1,14
 746 1369 746 1369 794.5 1298.5 c 128,-1,15
 843 1228 843 1228 854 1194.5 c 128,-1,16
 865 1161 865 1161 888 1127 c 0,17,18
 958 1030 958 1030 981 847.5 c 128,-1,19
 1004 665 1004 665 1004 558 c 128,-1,20
 1004 451 1004 451 985 352.5 c 128,-1,21
 966 254 966 254 935 169.5 c 128,-1,22
 904 85 904 85 853 36.5 c 128,-1,23
 802 -12 802 -12 702.5 -36 c 128,-1,24
 603 -60 603 -60 540 -60 c 0,25,26
 320 -60 320 -60 218.5 30.5 c 128,-1,27
 117 121 117 121 90.5 223.5 c 128,-1,28
 64 326 64 326 64 365 c 2,29,-1
 64 444 l 2,30,31
 64 484 64 484 99 672 c 128,-1,32
 134 860 134 860 141 931.5 c 128,-1,33
 148 1003 148 1003 179.5 1059.5 c 128,-1,34
 211 1116 211 1116 254 1218.5 c 128,-1,35
 297 1321 297 1321 351 1354 c 0,9,10
611 1304 m 128,-1,37
 580 1304 580 1304 563.5 1286.5 c 128,-1,38
 547 1269 547 1269 543 1266 c 0,39,40
 260 907 260 907 260 549 c 0,41,42
 260 316 260 316 380 85 c 1,43,44
 428 76 428 76 557.5 76 c 128,-1,45
 687 76 687 76 710.5 87 c 128,-1,46
 734 98 734 98 749 109 c 1,47,48
 843 443 843 443 843 704 c 0,49,50
 843 1016 843 1016 709 1226 c 0,51,52
 681 1264 681 1264 661.5 1284 c 128,-1,36
 642 1304 642 1304 611 1304 c 128,-1,37
370 278.5 m 128,-1,54
 361 287 361 287 361 317.5 c 128,-1,55
 361 348 361 348 432 564 c 128,-1,56
 503 780 503 780 531 845 c 128,-1,57
 559 910 559 910 586 939 c 128,-1,58
 613 968 613 968 642.5 968 c 128,-1,59
 672 968 672 968 686.5 950.5 c 128,-1,60
 701 933 701 933 701 908.5 c 128,-1,61
 701 884 701 884 692 854 c 128,-1,62
 683 824 683 824 608 643 c 128,-1,63
 533 462 533 462 504.5 392 c 128,-1,64
 476 322 476 322 456.5 296 c 128,-1,65
 437 270 437 270 408 270 c 128,-1,53
 379 270 379 270 370 278.5 c 128,-1,54
451 1205 m 1,66,67
 436 1191 436 1191 397.5 1150 c 128,-1,68
 359 1109 359 1109 326 1050.5 c 128,-1,69
 293 992 293 992 263 886 c 128,-1,70
 233 780 233 780 215.5 746 c 128,-1,71
 198 712 198 712 187 618.5 c 128,-1,72
 176 525 176 525 176 481 c 128,-1,73
 176 437 176 437 179 376.5 c 128,-1,74
 182 316 182 316 210 259 c 128,-1,75
 238 202 238 202 271.5 163.5 c 128,-1,76
 305 125 305 125 329 107 c 1,77,78
 217 331 217 331 217 555 c 0,79,80
 217 879 217 879 451 1205 c 1,66,67
EndSplineSet
EndChar

StartChar: one
Encoding: 49 49 21
Width: 680
Flags: W
LayerCount: 2
Fore
SplineSet
541 1337 m 1,0,1
 541 1355 541 1355 541.5 1370 c 128,-1,2
 542 1385 542 1385 562 1385 c 0,3,4
 584 1385 584 1385 584 1373 c 0,5,6
 589 1049 589 1049 589 729 c 0,7,8
 589 440 589 440 585 154 c 1,9,-1
 635 148 l 1,10,-1
 632 88 l 2,11,12
 628 29 628 29 612 17.5 c 128,-1,13
 596 6 596 6 581 6 c 128,-1,14
 566 6 566 6 534 19 c 128,-1,15
 502 32 502 32 489.5 32 c 128,-1,16
 477 32 477 32 432 15 c 128,-1,17
 387 -2 387 -2 320 -2 c 2,18,-1
 306 -2 l 2,19,20
 246 -2 246 -2 227 15.5 c 128,-1,21
 208 33 208 33 208 63 c 2,22,-1
 208 65 l 2,23,24
 208 96 208 96 224.5 108.5 c 128,-1,25
 241 121 241 121 301.5 133.5 c 128,-1,26
 362 146 362 146 376 152 c 1,27,28
 385 172 385 172 386.5 250.5 c 128,-1,29
 388 329 388 329 388 379 c 128,-1,30
 388 429 388 429 382 449 c 1,31,-1
 376 576 l 2,32,33
 376 645 376 645 378 752.5 c 128,-1,34
 380 860 380 860 380 914 c 128,-1,35
 380 968 380 968 379 989 c 1,36,37
 376 986 376 986 368 976 c 0,38,39
 317 840 317 840 292.5 776 c 128,-1,40
 268 712 268 712 239.5 634.5 c 128,-1,41
 211 557 211 557 186.5 530.5 c 128,-1,42
 162 504 162 504 130 500 c 1,43,-1
 118 500 l 2,44,45
 94 500 94 500 79.5 517 c 128,-1,46
 65 534 65 534 62 564 c 2,47,-1
 62 569 l 1,48,-1
 65 571 l 1,49,50
 67 601 67 601 92 675.5 c 128,-1,51
 117 750 117 750 229 996 c 128,-1,52
 341 1242 341 1242 369.5 1303.5 c 128,-1,53
 398 1365 398 1365 418 1391.5 c 128,-1,54
 438 1418 438 1418 481.5 1418 c 128,-1,55
 525 1418 525 1418 532 1396 c 128,-1,56
 539 1374 539 1374 541 1337 c 1,0,1
539 1163 m 1,57,58
 535 1054 535 1054 524.5 1024.5 c 128,-1,59
 514 995 514 995 511 877 c 128,-1,60
 508 759 508 759 508 480 c 128,-1,61
 508 201 508 201 518 174 c 0,62,63
 523 167 523 167 540 163 c 1,64,65
 537 437 537 437 537 709 c 0,66,67
 537 937 537 937 539 1163 c 1,57,58
EndSplineSet
EndChar

StartChar: two
Encoding: 50 50 22
Width: 1064
Flags: W
LayerCount: 2
Fore
SplineSet
312 272 m 1,0,1
 562 372 562 372 683 581 c 1,2,3
 659 555 659 555 594 493.5 c 128,-1,4
 529 432 529 432 473 402.5 c 128,-1,5
 417 373 417 373 376 335.5 c 128,-1,6
 335 298 335 298 325.5 287.5 c 128,-1,7
 316 277 316 277 312 272 c 1,0,1
720 1001 m 2,8,9
 720 1140 720 1140 674 1194 c 0,10,11
 666 1203 666 1203 656 1211 c 1,12,13
 691 1107 691 1107 691 999 c 0,14,15
 691 869 691 869 640 733 c 1,16,17
 718 853 718 853 718 983 c 0,18,19
 718 987 718 987 720 993 c 2,20,-1
 720 1001 l 2,8,9
165 857 m 2,21,22
 107 887 107 887 98.5 907.5 c 128,-1,23
 90 928 90 928 90 943.5 c 128,-1,24
 90 959 90 959 104.5 982 c 128,-1,25
 119 1005 119 1005 138 1064 c 128,-1,26
 157 1123 157 1123 201 1197.5 c 128,-1,27
 245 1272 245 1272 278 1303 c 0,28,29
 311 1332 311 1332 367 1361 c 128,-1,30
 423 1390 423 1390 451 1390 c 128,-1,31
 479 1390 479 1390 506.5 1389 c 128,-1,32
 534 1388 534 1388 609 1372 c 128,-1,33
 684 1356 684 1356 722 1338 c 0,34,35
 823 1288 823 1288 852 1111 c 0,36,37
 864 1049 864 1049 864 1017.5 c 128,-1,38
 864 986 864 986 843.5 889.5 c 128,-1,39
 823 793 823 793 799 748.5 c 128,-1,40
 775 704 775 704 775 699 c 128,-1,41
 775 694 775 694 773 692 c 0,42,43
 672 366 672 366 326 236 c 1,44,45
 347 235 347 235 407 235 c 128,-1,46
 467 235 467 235 565 165.5 c 128,-1,47
 663 96 663 96 699 96 c 0,48,49
 748 96 748 96 789 193 c 128,-1,50
 830 290 830 290 904 290 c 0,51,52
 925 290 925 290 953 273 c 128,-1,53
 981 256 981 256 991.5 211.5 c 128,-1,54
 1002 167 1002 167 1002 147 c 128,-1,55
 1002 127 1002 127 999.5 107 c 128,-1,56
 997 87 997 87 983 78.5 c 128,-1,57
 969 70 969 70 940 70 c 128,-1,58
 911 70 911 70 896 57 c 128,-1,59
 881 44 881 44 811 -40 c 0,60,61
 787 -68 787 -68 749 -68 c 128,-1,62
 711 -68 711 -68 651 -44 c 128,-1,63
 591 -20 591 -20 519 42 c 128,-1,64
 447 104 447 104 361 104 c 2,65,-1
 357 104 l 2,66,67
 327 104 327 104 309.5 91.5 c 128,-1,68
 292 79 292 79 223.5 5.5 c 128,-1,69
 155 -68 155 -68 117 -68 c 128,-1,70
 79 -68 79 -68 60 -7 c 1,71,-1
 60 -5 l 1,72,-1
 60 20 l 2,73,74
 60 39 60 39 80.5 113.5 c 128,-1,75
 101 188 101 188 122 218 c 128,-1,76
 143 248 143 248 158.5 293.5 c 128,-1,77
 174 339 174 339 245.5 406.5 c 128,-1,78
 317 474 317 474 406 522 c 128,-1,79
 495 570 495 570 513 584.5 c 128,-1,80
 531 599 531 599 538 605 c 0,81,82
 649 806 649 806 649 998 c 0,83,84
 649 1119 649 1119 605 1237 c 1,85,-1
 515 1248 l 1,86,87
 430 1248 430 1248 377 1203 c 128,-1,88
 324 1158 324 1158 312.5 1107 c 128,-1,89
 301 1056 301 1056 296.5 998 c 128,-1,90
 292 940 292 940 287 902 c 1,91,-1
 275 852 l 1,92,-1
 240 820 l 1,93,-1
 165 857 l 2,21,22
EndSplineSet
EndChar

StartChar: three
Encoding: 51 51 23
Width: 984
Flags: W
LayerCount: 2
Fore
SplineSet
657 1140.5 m 128,-1,1
 657 1190 657 1190 652.5 1205.5 c 128,-1,2
 648 1221 648 1221 625 1242.5 c 128,-1,3
 602 1264 602 1264 585 1271 c 1,4,5
 633 1179 633 1179 633 1087 c 0,6,7
 633 1053 633 1053 627 1019 c 1,8,9
 645 1053 645 1053 651 1072 c 128,-1,0
 657 1091 657 1091 657 1140.5 c 128,-1,1
682 167 m 1,10,11
 713 206 713 206 744.5 267 c 128,-1,12
 776 328 776 328 776 381.5 c 128,-1,13
 776 435 776 435 760.5 512.5 c 128,-1,14
 745 590 745 590 731 618 c 128,-1,15
 717 646 717 646 701 658 c 1,16,17
 738 552 738 552 738 442 c 0,18,19
 738 307 738 307 682 167 c 1,10,11
478 -62 m 1,20,-1
 462 -60 l 1,21,22
 334 -60 334 -60 287 -28 c 128,-1,23
 240 4 240 4 149 50.5 c 128,-1,24
 58 97 58 97 56 143 c 1,25,-1
 68 213 l 2,26,27
 80 267 80 267 95.5 291.5 c 128,-1,28
 111 316 111 316 149 316 c 128,-1,29
 187 316 187 316 203.5 297 c 128,-1,30
 220 278 220 278 220 228.5 c 128,-1,31
 220 179 220 179 271.5 133 c 128,-1,32
 323 87 323 87 396 76 c 2,33,-1
 499 60 l 1,34,-1
 557 67 l 2,35,36
 577 72 577 72 608 95 c 1,37,38
 695 272 695 272 695 443 c 0,39,40
 695 562 695 562 653 677 c 1,41,-1
 614 684 l 1,42,43
 600 680 600 680 561 658.5 c 128,-1,44
 522 637 522 637 491 637 c 128,-1,45
 460 637 460 637 442 653 c 128,-1,46
 424 669 424 669 424 695 c 128,-1,47
 424 721 424 721 448.5 754.5 c 128,-1,48
 473 788 473 788 474 788 c 0,49,50
 593 938 593 938 593 1086 c 0,51,52
 593 1181 593 1181 545 1275 c 1,53,54
 514 1271 514 1271 464.5 1248.5 c 128,-1,55
 415 1226 415 1226 392 1198 c 128,-1,56
 369 1170 369 1170 343 1103 c 1,57,-1
 315 1012 l 1,58,59
 315 994 315 994 326 968 c 1,60,-1
 336 925 l 1,61,-1
 328 903 l 1,62,-1
 327 903 l 1,63,64
 315 888 315 888 296 888 c 2,65,-1
 289 888 l 1,66,-1
 205 927 l 1,67,68
 141 962 141 962 118.5 982.5 c 128,-1,69
 96 1003 96 1003 96 1036.5 c 128,-1,70
 96 1070 96 1070 104 1082 c 128,-1,71
 112 1094 112 1094 139.5 1104 c 128,-1,72
 167 1114 167 1114 203.5 1188.5 c 128,-1,73
 240 1263 240 1263 287.5 1307.5 c 128,-1,74
 335 1352 335 1352 413.5 1383 c 128,-1,75
 492 1414 492 1414 539 1414 c 0,76,77
 665 1414 665 1414 725.5 1341 c 128,-1,78
 786 1268 786 1268 786 1147.5 c 128,-1,79
 786 1027 786 1027 737.5 932.5 c 128,-1,80
 689 838 689 838 683 818 c 1,81,82
 693 808 693 808 745 783 c 128,-1,83
 797 758 797 758 833 688.5 c 128,-1,84
 869 619 869 619 893.5 506.5 c 128,-1,85
 918 394 918 394 918 364.5 c 128,-1,86
 918 335 918 335 914 306 c 128,-1,87
 910 277 910 277 863 185 c 0,88,89
 763 -10 763 -10 631 -50 c 0,90,91
 591 -62 591 -62 480 -62 c 2,92,-1
 478 -62 l 1,20,-1
EndSplineSet
EndChar

StartChar: four
Encoding: 52 52 24
Width: 804
Flags: W
LayerCount: 2
Fore
SplineSet
122 315 m 1,0,-1
 62 379 l 1,1,-1
 102 503 l 2,2,3
 118 554 118 554 146 679.5 c 128,-1,4
 174 805 174 805 217.5 944 c 128,-1,5
 261 1083 261 1083 261 1142 c 128,-1,6
 261 1201 261 1201 278.5 1275 c 128,-1,7
 296 1349 296 1349 313.5 1368.5 c 128,-1,8
 331 1388 331 1388 370.5 1388 c 128,-1,9
 410 1388 410 1388 428 1355 c 0,10,11
 432 1355 432 1355 446 1353 c 128,-1,12
 460 1351 460 1351 460 1343 c 2,13,-1
 460 1342 l 1,14,15
 399 915 399 915 322 498 c 1,16,17
 326 498 326 498 390 498 c 0,18,19
 392 498 392 498 395 497 c 0,20,21
 456 497 456 497 482 510 c 128,-1,22
 508 523 508 523 531.5 591.5 c 128,-1,23
 555 660 555 660 582 679 c 0,24,25
 592 686 592 686 603 686 c 0,26,27
 620 686 620 686 639 667 c 0,28,29
 669 636 669 636 671 589 c 1,30,31
 675 616 675 616 679 643 c 0,32,33
 680 646 680 646 688 646 c 0,34,35
 692 646 692 646 698 646 c 0,36,37
 716 644 716 644 717 638 c 0,38,39
 711 568 711 568 707 534 c 0,40,41
 704 506 704 506 704 500 c 2,42,-1
 704 499 l 1,43,44
 742 455 742 455 742 430 c 2,45,-1
 742 429 l 2,46,47
 742 404 742 404 718 391.5 c 128,-1,48
 694 379 694 379 690 377 c 0,49,50
 675 252 675 252 657 128 c 1,51,52
 671 114 671 114 682 92 c 1,53,-1
 693 56 l 1,54,-1
 693 55 l 1,55,56
 686 2 686 2 580 2 c 128,-1,57
 474 2 474 2 433.5 7 c 128,-1,58
 393 12 393 12 377 32 c 0,59,60
 369 41 369 41 369 55 c 0,61,62
 369 70 369 70 379 89 c 0,63,64
 397 126 397 126 431 140 c 0,65,66
 451 152 451 152 461 185 c 1,67,-1
 482 376 l 1,68,-1
 412 372 l 2,69,70
 300 364 300 364 227 343 c 2,71,-1
 122 315 l 1,0,-1
356 1019 m 1,72,73
 337 960 337 960 315 884 c 128,-1,74
 293 808 293 808 281.5 756.5 c 128,-1,75
 270 705 270 705 232 500 c 1,76,77
 245 499 245 499 272 499 c 1,78,79
 311 760 311 760 356 1019 c 1,72,73
636 320 m 1,80,81
 628 304 628 304 612.5 267 c 128,-1,82
 597 230 597 230 597 204.5 c 128,-1,83
 597 179 597 179 619 160 c 1,84,85
 627 241 627 241 636 320 c 1,80,81
EndSplineSet
EndChar

StartChar: five
Encoding: 53 53 25
Width: 964
Flags: W
LayerCount: 2
Fore
SplineSet
364 970 m 2,0,-1
 364 918 l 1,1,-1
 383 921 l 1,2,3
 408 1076 408 1076 441 1228 c 1,4,-1
 417 1228 l 1,5,-1
 389 1131 l 2,6,7
 364 1031 364 1031 364 970 c 2,0,-1
589 91 m 1,8,9
 707 295 707 295 707 461 c 128,-1,10
 707 627 707 627 653 758 c 1,11,12
 628 774 628 774 583 785 c 1,13,-1
 493 796 l 1,14,15
 461 794 461 794 400.5 741 c 128,-1,16
 340 688 340 688 314.5 671 c 128,-1,17
 289 654 289 654 272 654 c 2,18,-1
 260 654 l 1,19,-1
 260 658 l 1,20,21
 238 665 238 665 228 695 c 2,22,-1
 216 754 l 1,23,-1
 254 1171 l 2,24,25
 254 1175 254 1175 253 1180 c 0,26,27
 246 1186 246 1186 211 1198.5 c 128,-1,28
 176 1211 176 1211 176 1258 c 0,29,30
 176 1324 176 1324 250 1339 c 128,-1,31
 324 1354 324 1354 535 1356 c 128,-1,32
 746 1358 746 1358 771 1365 c 2,33,-1
 819 1372 l 1,34,-1
 897 1366 l 2,35,36
 922 1364 922 1364 922 1333 c 128,-1,37
 922 1302 922 1302 892 1201 c 128,-1,38
 862 1100 862 1100 800 1100 c 0,39,40
 777 1100 777 1100 757.5 1135.5 c 128,-1,41
 738 1171 738 1171 738 1200 c 2,42,-1
 738 1206 l 1,43,-1
 739 1228 l 1,44,-1
 493 1228 l 1,45,46
 471 1077 471 1077 440 930 c 1,47,-1
 483 936 l 1,48,-1
 607 915 l 1,49,50
 693 894 693 894 735 866 c 128,-1,51
 777 838 777 838 821 774 c 128,-1,52
 865 710 865 710 882.5 666 c 128,-1,53
 900 622 900 622 900 479.5 c 128,-1,54
 900 337 900 337 847.5 190 c 128,-1,55
 795 43 795 43 678 -26 c 0,56,57
 646 -45 646 -45 611 -48.5 c 128,-1,58
 576 -52 576 -52 466.5 -52 c 128,-1,59
 357 -52 357 -52 319.5 -49 c 128,-1,60
 282 -46 282 -46 258 -29 c 128,-1,61
 234 -12 234 -12 207.5 -12 c 128,-1,62
 181 -12 181 -12 154 -28 c 2,63,-1
 114 -48 l 1,64,-1
 110 -48 l 2,65,66
 97 -48 97 -48 76.5 -26.5 c 128,-1,67
 56 -5 56 -5 56 51 c 128,-1,68
 56 107 56 107 101.5 151.5 c 128,-1,69
 147 196 147 196 186 196 c 128,-1,70
 225 196 225 196 240.5 182 c 128,-1,71
 256 168 256 168 256 142 c 2,72,-1
 254 121 l 2,73,74
 253 113 253 113 261.5 103.5 c 128,-1,75
 270 94 270 94 308 74 c 1,76,-1
 366 51 l 1,77,-1
 366 47 l 1,78,-1
 424 41 l 1,79,-1
 514 57 l 1,80,81
 552 74 552 74 589 91 c 1,8,9
780 485.5 m 128,-1,83
 780 516 780 516 775 571 c 128,-1,84
 770 626 770 626 743.5 662.5 c 128,-1,85
 717 699 717 699 715 701 c 1,86,87
 750 598 750 598 750 463.5 c 128,-1,88
 750 329 750 329 669 160 c 1,89,90
 701 196 701 196 722 240 c 128,-1,91
 743 284 743 284 761.5 369.5 c 128,-1,82
 780 455 780 455 780 485.5 c 128,-1,83
EndSplineSet
EndChar

StartChar: six
Encoding: 54 54 26
Width: 1028
Flags: W
LayerCount: 2
Fore
SplineSet
117 843 m 0,0,1
 135 881 135 881 187.5 1009.5 c 128,-1,2
 240 1138 240 1138 282 1174 c 128,-1,3
 324 1210 324 1210 377.5 1274.5 c 128,-1,4
 431 1339 431 1339 518.5 1389.5 c 128,-1,5
 606 1440 606 1440 670 1440 c 128,-1,6
 734 1440 734 1440 765 1375.5 c 128,-1,7
 796 1311 796 1311 796 1253.5 c 128,-1,8
 796 1196 796 1196 772 1196 c 128,-1,9
 748 1196 748 1196 709.5 1226.5 c 128,-1,10
 671 1257 671 1257 655 1267 c 1,11,12
 495 1114 495 1114 400 953 c 1,13,14
 444 958 444 958 570 958 c 128,-1,15
 696 958 696 958 749 931 c 0,16,17
 801 904 801 904 877.5 769 c 128,-1,18
 954 634 954 634 960 582 c 128,-1,19
 966 530 966 530 966 476.5 c 128,-1,20
 966 423 966 423 935.5 275.5 c 128,-1,21
 905 128 905 128 864 61.5 c 128,-1,22
 823 -5 823 -5 685.5 -37.5 c 128,-1,23
 548 -70 548 -70 483.5 -70 c 128,-1,24
 419 -70 419 -70 337 -50 c 0,25,26
 169 -8 169 -8 96 101 c 0,27,28
 73 137 73 137 65.5 184.5 c 128,-1,29
 58 232 58 232 58 482 c 128,-1,30
 58 732 58 732 117 843 c 0,0,1
430 1116 m 128,-1,32
 381 1061 381 1061 306.5 923 c 128,-1,33
 232 785 232 785 232 774 c 128,-1,34
 232 763 232 763 232 760 c 1,35,36
 249 795 249 795 272 820.5 c 128,-1,37
 295 846 295 846 301 854 c 0,38,39
 395 1062 395 1062 594 1258 c 1,40,41
 591 1256 591 1256 580.5 1249 c 128,-1,42
 570 1242 570 1242 524.5 1206.5 c 128,-1,31
 479 1171 479 1171 430 1116 c 128,-1,32
219 520 m 1,43,-1
 182 486 l 1,44,-1
 188 360 l 1,45,46
 190 229 190 229 215.5 179 c 128,-1,47
 241 129 241 129 291 95 c 1,48,49
 218 288 218 288 218 472 c 0,50,51
 218 496 218 496 219 520 c 1,43,-1
633 837 m 1,52,53
 611 840 611 840 556 840 c 128,-1,54
 501 840 501 840 469.5 820.5 c 128,-1,55
 438 801 438 801 383.5 747 c 128,-1,56
 329 693 329 693 303.5 648 c 128,-1,57
 278 603 278 603 268 586 c 1,58,59
 259 523 259 523 259 460 c 0,60,61
 259 270 259 270 337 71 c 1,62,63
 392 50 392 50 451.5 50 c 128,-1,64
 511 50 511 50 578.5 62.5 c 128,-1,65
 646 75 646 75 669 85.5 c 128,-1,66
 692 96 692 96 705 105 c 1,67,68
 702 105 702 105 699 105 c 0,69,70
 686 105 686 105 687 109 c 2,71,72
 687 109 687 109 687 110 c 0,73,74
 758 284 758 284 758 443 c 0,75,76
 758 653 758 653 633 837 c 1,52,53
818 432 m 2,77,-1
 818 601 l 1,78,-1
 765 697 l 1,79,80
 718 795 718 795 703.5 807 c 128,-1,81
 689 819 689 819 688 819 c 1,82,83
 800 648 800 648 800 450 c 0,84,85
 800 297 800 297 733 127 c 1,86,87
 743 136 743 136 769 162 c 128,-1,88
 795 188 795 188 806.5 236 c 128,-1,89
 818 284 818 284 818 432 c 2,77,-1
EndSplineSet
EndChar

StartChar: seven
Encoding: 55 55 27
Width: 932
Flags: W
LayerCount: 2
Fore
SplineSet
730 676.5 m 128,-1,1
 730 655 730 655 744 647.5 c 128,-1,2
 758 640 758 640 759 632 c 128,-1,3
 760 624 760 624 761 617 c 2,4,5
 761 617 761 617 761 616 c 0,6,7
 761 608 761 608 750 592 c 0,8,9
 738 575 738 575 722 575 c 1,10,11
 722 575 722 575 721 576 c 0,12,13
 704 576 704 576 689 577 c 0,14,15
 679 578 679 578 671 578 c 0,16,17
 668 578 668 578 664 578 c 0,18,19
 654 578 654 578 650 577 c 0,20,21
 437 336 437 336 378 46 c 1,22,23
 387 40 387 40 406 21.5 c 128,-1,24
 425 3 425 3 425 -26 c 128,-1,25
 425 -55 425 -55 389.5 -64.5 c 128,-1,26
 354 -74 354 -74 275 -79 c 128,-1,27
 196 -84 196 -84 164 -84 c 128,-1,28
 132 -84 132 -84 107 -74 c 128,-1,29
 82 -64 82 -64 82 -26.5 c 128,-1,30
 82 11 82 11 114.5 33.5 c 128,-1,31
 147 56 147 56 159 80 c 128,-1,32
 171 104 171 104 198 186.5 c 128,-1,33
 225 269 225 269 263.5 338.5 c 128,-1,34
 302 408 302 408 350 467 c 128,-1,35
 398 526 398 526 398 530 c 128,-1,36
 398 534 398 534 372 550 c 128,-1,37
 346 566 346 566 336 590 c 0,38,39
 327 612 327 612 327 629 c 1,40,41
 327 629 327 629 328 630 c 0,42,43
 328 648 328 648 349 676 c 128,-1,44
 370 704 370 704 429 704 c 2,45,-1
 432 704 l 2,46,47
 441 704 441 704 448 703 c 0,48,49
 496 703 496 703 516 706 c 1,50,51
 662 907 662 907 662 1131 c 0,52,53
 662 1202 662 1202 647 1275 c 1,54,-1
 360 1278 l 2,55,56
 273 1278 273 1278 239 1269 c 2,57,-1
 204 1257 l 1,58,-1
 191 1043 l 2,59,60
 186 1009 186 1009 169.5 992 c 128,-1,61
 153 975 153 975 129 975 c 128,-1,62
 105 975 105 975 92.5 994.5 c 128,-1,63
 80 1014 80 1014 66 1066.5 c 128,-1,64
 52 1119 52 1119 52 1212.5 c 128,-1,65
 52 1306 52 1306 67 1335.5 c 128,-1,66
 82 1365 82 1365 151 1382.5 c 128,-1,67
 220 1400 220 1400 298 1400 c 2,68,-1
 481 1394 l 1,69,-1
 622 1400 l 1,70,71
 805 1400 805 1400 834 1385 c 0,72,73
 892 1356 892 1356 892 1245.5 c 128,-1,74
 892 1135 892 1135 850.5 984 c 128,-1,75
 809 833 809 833 769.5 765.5 c 128,-1,0
 730 698 730 698 730 676.5 c 128,-1,1
315 116 m 128,-1,77
 315 84 315 84 318.5 76 c 128,-1,78
 322 68 322 68 331 66 c 128,-1,79
 340 64 340 64 341 64 c 0,80,81
 363 197 363 197 423 322 c 1,82,83
 365 241 365 241 340 194.5 c 128,-1,76
 315 148 315 148 315 116 c 128,-1,77
736 1147 m 128,-1,85
 736 1202 736 1202 715 1245 c 2,86,-1
 701 1274 l 1,87,-1
 685 1274 l 1,88,89
 704 1194 704 1194 704 1116 c 0,90,91
 704 934 704 934 602 763 c 1,92,93
 617 783 617 783 648 833.5 c 128,-1,94
 679 884 679 884 692.5 918.5 c 128,-1,95
 706 953 706 953 721 1022.5 c 128,-1,84
 736 1092 736 1092 736 1147 c 128,-1,85
EndSplineSet
EndChar

StartChar: eight
Encoding: 56 56 28
Width: 1076
Flags: W
LayerCount: 2
Fore
SplineSet
731 1366 m 2,0,1
 784 1345 784 1345 816 1306 c 128,-1,2
 848 1267 848 1267 848 1207 c 128,-1,3
 848 1147 848 1147 829.5 1083.5 c 128,-1,4
 811 1020 811 1020 780 967 c 2,5,-1
 753 923 l 1,6,-1
 753 916 l 1,7,8
 767 900 767 900 844 839 c 0,9,10
 1014 706 1014 706 1014 497 c 1,11,-1
 1004 339 l 1,12,13
 994 300 994 300 962 240 c 128,-1,14
 930 180 930 180 861 104 c 128,-1,15
 792 28 792 28 745 -2 c 128,-1,16
 698 -32 698 -32 660.5 -33 c 128,-1,17
 623 -34 623 -34 582 -34 c 128,-1,18
 541 -34 541 -34 437 -15 c 128,-1,19
 333 4 333 4 269.5 39.5 c 128,-1,20
 206 75 206 75 131 177 c 128,-1,21
 56 279 56 279 56 336 c 1,22,-1
 81 485 l 1,23,24
 94 536 94 536 103 560.5 c 128,-1,25
 112 585 112 585 123.5 594 c 128,-1,26
 135 603 135 603 185 679 c 128,-1,27
 235 755 235 755 272 780.5 c 128,-1,28
 309 806 309 806 321 818 c 0,29,30
 330 827 330 827 330 834 c 0,31,32
 330 838 330 838 329 840 c 0,33,34
 325 850 325 850 236.5 899 c 128,-1,35
 148 948 148 948 148 1004 c 2,36,-1
 148 1007 l 2,37,38
 150 1059 150 1059 210 1197.5 c 128,-1,39
 270 1336 270 1336 358 1361 c 1,40,41
 378 1380 378 1380 447 1388 c 1,42,-1
 652 1398 l 1,43,-1
 731 1366 l 2,0,1
343 131 m 1,44,45
 360 120 360 120 397.5 106 c 128,-1,46
 435 92 435 92 528.5 92 c 128,-1,47
 622 92 622 92 649 104.5 c 128,-1,48
 676 117 676 117 686 124 c 0,49,50
 829 301 829 301 829 453 c 0,51,52
 829 621 829 621 655 760 c 1,53,54
 612 759 612 759 582 743 c 128,-1,55
 552 727 552 727 469 704 c 128,-1,56
 386 681 386 681 320 619 c 1,57,58
 287 507 287 507 287 400 c 0,59,60
 287 262 287 262 343 131 c 1,44,45
888 509 m 2,61,-1
 888 512 l 2,62,63
 888 560 888 560 840.5 638 c 128,-1,64
 793 716 793 716 757.5 734 c 128,-1,65
 722 752 722 752 693 757 c 1,66,67
 859 648 859 648 859 478 c 0,68,69
 859 397 859 397 822 302 c 1,70,71
 834 326 834 326 861 393 c 128,-1,72
 888 460 888 460 888 509 c 2,61,-1
284 1104 m 2,73,74
 284 1053 284 1053 311 1027.5 c 128,-1,75
 338 1002 338 1002 348 994 c 1,76,77
 309 1043 309 1043 309 1107 c 0,78,79
 309 1145 309 1145 323 1188 c 1,80,81
 285 1147 285 1147 284 1108 c 2,82,-1
 284 1104 l 2,73,74
638 1008 m 1,83,84
 657 1053 657 1053 657 1095 c 0,85,86
 657 1201 657 1201 535 1288 c 1,87,-1
 446 1279 l 1,88,89
 424 1272 424 1272 376 1235 c 1,90,91
 351 1174 351 1174 351 1123 c 0,92,93
 351 1023 351 1023 443 958 c 1,94,95
 500 948 500 948 537 948 c 0,96,97
 586 948 586 948 602 966 c 0,98,99
 628 998 628 998 638 1008 c 1,83,84
724 1182 m 1,100,101
 724 1251 724 1251 641 1275 c 1,102,103
 705 1229 705 1229 705 1139 c 0,104,105
 705 1123 705 1123 703 1105 c 2,106,-1
 724 1182 l 1,100,101
214 369 m 2,107,108
 214 273 214 273 271 194 c 0,109,110
 275 189 275 189 280 184 c 1,111,112
 244 288 244 288 244 399 c 0,113,114
 244 472 244 472 260 548 c 1,115,116
 255 541 255 541 237.5 513.5 c 128,-1,117
 220 486 220 486 214 380 c 1,118,-1
 214 369 l 2,107,108
EndSplineSet
EndChar

StartChar: nine
Encoding: 57 57 29
Width: 1006
Flags: W
LayerCount: 2
Fore
SplineSet
579 -58 m 2,0,-1
 568 -58 l 2,1,2
 408 -56 408 -56 295 -15 c 128,-1,3
 182 26 182 26 154 51.5 c 128,-1,4
 126 77 126 77 111 112 c 128,-1,5
 96 147 96 147 95 157 c 128,-1,6
 94 167 94 167 94 177 c 128,-1,7
 94 187 94 187 97 191.5 c 128,-1,8
 100 196 100 196 103 198 c 128,-1,9
 106 200 106 200 108.5 201 c 128,-1,10
 111 202 111 202 115 202 c 2,11,-1
 136 204 l 1,12,-1
 136 206 l 1,13,-1
 148 206 l 2,14,15
 184 206 184 206 225 176 c 0,16,17
 355 76 355 76 483 76 c 2,18,-1
 496 76 l 2,19,20
 614 76 614 76 647 92 c 1,21,22
 680 244 680 244 700 394 c 1,23,24
 666 380 666 380 630.5 380 c 128,-1,25
 595 380 595 380 545 382 c 128,-1,26
 495 384 495 384 376.5 433.5 c 128,-1,27
 258 483 258 483 173 595.5 c 128,-1,28
 88 708 88 708 77 732 c 1,29,-1
 64 791 l 2,30,31
 64 806 64 806 68 825.5 c 128,-1,32
 72 845 72 845 88 931 c 128,-1,33
 104 1017 104 1017 118 1055.5 c 128,-1,34
 132 1094 132 1094 142 1143 c 0,35,36
 157 1245 157 1245 259 1316 c 1,37,-1
 312 1343 l 1,38,-1
 366 1348 l 1,39,-1
 421 1344 l 2,40,41
 446 1344 446 1344 488 1358 c 128,-1,42
 530 1372 530 1372 586.5 1372 c 128,-1,43
 643 1372 643 1372 727.5 1339.5 c 128,-1,44
 812 1307 812 1307 869 1222 c 128,-1,45
 926 1137 926 1137 930 1109 c 2,46,-1
 934 1081 l 1,47,-1
 936 1016 l 2,48,49
 936 950 936 950 924 800 c 1,50,-1
 894 540 l 1,51,-1
 908 365 l 2,52,53
 908 316 908 316 897.5 271.5 c 128,-1,54
 887 227 887 227 835 138 c 128,-1,55
 783 49 783 49 757.5 -4.5 c 128,-1,56
 732 -58 732 -58 579 -58 c 2,0,-1
766 904 m 128,-1,58
 766 802 766 802 765 765 c 1,59,60
 773 810 773 810 778 861 c 2,61,-1
 788 1087 l 1,62,-1
 768 1151 l 1,63,64
 756 1167 756 1167 751 1172 c 1,65,57
 766 1006 766 1006 766 904 c 128,-1,58
766 365 m 1,66,-1
 756 418 l 1,67,68
 750 418 750 418 740 414 c 1,69,70
 725 289 725 289 702 163 c 1,71,72
 714 187 714 187 740 253 c 128,-1,73
 766 319 766 319 766 365 c 1,66,-1
672.5 1198 m 128,-1,75
 646 1198 646 1198 593.5 1223 c 128,-1,76
 541 1248 541 1248 451 1248 c 2,77,-1
 365 1248 l 1,78,79
 278 1064 278 1064 278 909 c 128,-1,80
 278 754 278 754 334 623 c 1,81,82
 436 526 436 526 555 526 c 1,83,-1
 663 530 l 1,84,-1
 723 628 l 1,85,86
 729 732 729 732 729 874.5 c 128,-1,87
 729 1017 729 1017 709 1197 c 1,88,74
 699 1198 699 1198 672.5 1198 c 128,-1,75
235 907 m 128,-1,90
 235 1017 235 1017 284 1153 c 1,91,92
 257 1114 257 1114 242.5 1071.5 c 128,-1,93
 228 1029 228 1029 216 954 c 1,94,-1
 212 834 l 1,95,96
 220 787 220 787 228 765.5 c 128,-1,97
 236 744 236 744 260 710 c 1,98,89
 235 797 235 797 235 907 c 128,-1,90
EndSplineSet
EndChar

StartChar: less
Encoding: 60 60 32
Width: 1014
Flags: W
LayerCount: 2
Fore
SplineSet
878 72 m 1,0,-1
 882 49 l 1,1,-1
 880 47 l 1,2,3
 880 36 880 36 877.5 19 c 128,-1,4
 875 2 875 2 859 -12 c 128,-1,5
 843 -26 843 -26 828 -39 c 128,-1,6
 813 -52 813 -52 800 -52 c 2,7,-1
 787 -52 l 1,8,-1
 785 -52 l 1,9,10
 763 -47 763 -47 746.5 -7 c 128,-1,11
 730 33 730 33 656 108 c 128,-1,12
 582 183 582 183 519.5 221.5 c 128,-1,13
 457 260 457 260 314 381 c 128,-1,14
 171 502 171 502 145.5 535 c 128,-1,15
 120 568 120 568 120 588 c 128,-1,16
 120 608 120 608 127 636 c 128,-1,17
 134 664 134 664 155 675 c 128,-1,18
 176 686 176 686 184 691 c 128,-1,19
 192 696 192 696 204 701 c 2,20,-1
 226 706 l 2,21,22
 235 706 235 706 355.5 811.5 c 128,-1,23
 476 917 476 917 611.5 1045.5 c 128,-1,24
 747 1174 747 1174 787 1185 c 2,25,-1
 844 1196 l 1,26,27
 866 1196 866 1196 873 1164.5 c 128,-1,28
 880 1133 880 1133 880 1115.5 c 128,-1,29
 880 1098 880 1098 876.5 1087.5 c 128,-1,30
 873 1077 873 1077 867 1068 c 1,31,32
 878 1056 878 1056 874 1052 c 0,33,34
 651 814 651 814 419 588 c 1,35,36
 658 338 658 338 880 81 c 0,37,38
 883 78 883 78 878 72 c 1,0,-1
383 553 m 1,39,40
 366 537 366 537 350 521 c 1,41,42
 388 477 388 477 434.5 448.5 c 128,-1,43
 481 420 481 420 520.5 387 c 128,-1,44
 560 354 560 354 564 350 c 1,45,46
 472 451 472 451 383 553 c 1,39,40
384 626 m 1,47,48
 517 765 517 765 651 899 c 1,49,50
 583 848 583 848 535 802 c 128,-1,51
 487 756 487 756 453 736 c 128,-1,52
 419 716 419 716 390.5 687 c 128,-1,53
 362 658 362 658 357 653 c 1,54,55
 371 640 371 640 384 626 c 1,47,48
350 591 m 1,56,57
 338 605 338 605 327 618 c 1,58,59
 314 601 314 601 312 591 c 2,60,-1
 312 570 l 2,61,62
 314 565 314 565 319 558 c 1,63,64
 334 575 334 575 350 591 c 1,56,57
EndSplineSet
EndChar

StartChar: equal
Encoding: 61 61 33
Width: 1280
Flags: W
LayerCount: 2
Fore
SplineSet
836 368 m 2,0,-1
 524 368 l 2,1,2
 484 368 484 368 347 377 c 2,3,4
 347 377 347 377 184 391 c 1,5,-1
 157 418 l 2,6,7
 140 438 140 438 140 464.5 c 128,-1,8
 140 491 140 491 166.5 508.5 c 128,-1,9
 193 526 193 526 240 526 c 2,10,-1
 730 512 l 1,11,12
 1049 508 1049 508 1091.5 500.5 c 128,-1,13
 1134 493 1134 493 1143 482.5 c 128,-1,14
 1152 472 1152 472 1152 434.5 c 128,-1,15
 1152 397 1152 397 1123.5 382.5 c 128,-1,16
 1095 368 1095 368 836 368 c 2,0,-1
828 694 m 2,17,-1
 514 694 l 2,18,19
 474 694 474 694 338 702 c 2,20,-1
 178 715 l 1,21,-1
 149 746 l 2,22,23
 132 766 132 766 132 791.5 c 128,-1,24
 132 817 132 817 158 834.5 c 128,-1,25
 184 852 184 852 230 852 c 2,26,-1
 724 838 l 1,27,28
 1045 834 1045 834 1085 826.5 c 128,-1,29
 1125 819 1125 819 1135.5 810.5 c 128,-1,30
 1146 802 1146 802 1146 761 c 128,-1,31
 1146 720 1146 720 1116.5 707 c 128,-1,32
 1087 694 1087 694 828 694 c 2,17,-1
EndSplineSet
EndChar

StartChar: greater
Encoding: 62 62 34
Width: 936
Flags: W
LayerCount: 2
Fore
SplineSet
145 1075 m 2,0,-1
 144 1079 l 1,1,-1
 144 1090 l 2,2,3
 144 1114 144 1114 159 1135 c 128,-1,4
 174 1156 174 1156 208 1156 c 2,5,-1
 210 1156 l 2,6,7
 245 1156 245 1156 309 1086 c 128,-1,8
 373 1016 373 1016 453 942 c 128,-1,9
 533 868 533 868 576.5 842.5 c 128,-1,10
 620 817 620 817 667 761 c 128,-1,11
 714 705 714 705 761 680 c 128,-1,12
 808 655 808 655 808 620 c 1,13,-1
 799 568 l 1,14,15
 790 541 790 541 607.5 340.5 c 128,-1,16
 425 140 425 140 251 -74 c 0,17,18
 227 -100 227 -100 188 -100 c 1,19,-1
 180 -102 l 1,20,-1
 178 -102 l 2,21,22
 147 -102 147 -102 138 -91 c 1,23,-1
 128 -38 l 1,24,25
 128 3 128 3 145 27 c 128,-1,26
 162 51 162 51 189 82 c 1,27,28
 352 348 352 348 525 605 c 1,29,30
 320 823 320 823 126 1048 c 0,31,32
 121 1053 121 1053 131.5 1062.5 c 128,-1,33
 142 1072 142 1072 145 1075 c 2,0,-1
560 568 m 1,34,35
 495 462 495 462 428 357 c 1,36,37
 543 489 543 489 582 545 c 1,38,39
 571 556 571 556 560 568 c 1,34,35
600 601 m 1,40,41
 600 605 600 605 600 609 c 128,-1,42
 600 613 600 613 594 623 c 1,43,44
 591 618 591 618 588 614 c 1,45,46
 594 608 594 608 600 601 c 1,40,41
556 651 m 1,47,48
 560 657 560 657 564 663 c 1,49,50
 550 678 550 678 521.5 703.5 c 128,-1,51
 493 729 493 729 459 759 c 1,52,53
 508 705 508 705 556 651 c 1,47,48
EndSplineSet
EndChar

StartChar: question
Encoding: 63 63 35
Width: 974
Flags: W
LayerCount: 2
Fore
SplineSet
464 490 m 1,0,1
 434 525 434 525 434 559 c 128,-1,2
 434 593 434 593 452 624 c 1,3,4
 438 619 438 619 425 612 c 1,5,-1
 423 540 l 2,6,7
 423 519 423 519 464 490 c 1,0,1
679 932 m 1,8,9
 713 987 713 987 713 1045 c 0,10,11
 713 1104 713 1104 653 1211 c 1,12,13
 687 1122 687 1122 687 1051 c 128,-1,14
 687 980 687 980 679 932 c 1,8,9
260 1176 m 128,-1,16
 255 1166 255 1166 255 1098 c 0,17,18
 255 1029 255 1029 303 868 c 1,19,20
 266 819 266 819 231 813 c 1,21,-1
 221 813 l 2,22,23
 172 813 172 813 156 899 c 0,24,25
 141 981 141 981 141 1014 c 0,26,27
 141 1016 141 1016 141 1018 c 0,28,29
 141 1050 141 1050 145 1085 c 128,-1,30
 149 1120 149 1120 153 1189 c 128,-1,31
 157 1258 157 1258 234 1341 c 128,-1,32
 311 1424 311 1424 471 1424 c 2,33,-1
 477 1424 l 2,34,35
 597 1424 597 1424 715 1320 c 128,-1,36
 833 1216 833 1216 833 1040 c 0,37,38
 833 796 833 796 509 648 c 1,39,40
 474 606 474 606 474 568 c 128,-1,41
 474 530 474 530 502 494 c 1,42,43
 541 507 541 507 572 514 c 1,44,-1
 573 514 l 1,45,46
 609 508 609 508 609 476 c 128,-1,47
 609 444 609 444 580 402 c 0,48,49
 555 367 555 367 472 367 c 0,50,51
 458 367 458 367 442 368 c 0,52,53
 420 369 420 369 314 442 c 1,54,55
 289 468 289 468 289 544 c 128,-1,56
 289 620 289 620 302 644 c 0,57,58
 316 668 316 668 362 698 c 128,-1,59
 408 728 408 728 438 735 c 128,-1,60
 468 742 468 742 539 791 c 0,61,62
 609 841 609 841 622 858 c 1,63,64
 645 941 645 941 645 1053 c 128,-1,65
 645 1165 645 1165 566 1297 c 1,66,67
 541 1313 541 1313 475 1313 c 128,-1,68
 409 1313 409 1313 371 1293 c 128,-1,69
 333 1273 333 1273 299 1230 c 0,70,15
 265 1186 265 1186 260 1176 c 128,-1,16
478 190 m 0,71,72
 520 171 520 171 520 111 c 128,-1,73
 520 51 520 51 498 19 c 128,-1,74
 476 -13 476 -13 448.5 -25.5 c 128,-1,75
 421 -38 421 -38 409.5 -38 c 128,-1,76
 398 -38 398 -38 375.5 -31.5 c 128,-1,77
 353 -25 353 -25 322.5 2 c 128,-1,78
 292 29 292 29 292 55 c 128,-1,79
 292 81 292 81 310 120 c 128,-1,80
 328 159 328 159 348.5 172.5 c 128,-1,81
 369 186 369 186 392 189 c 128,-1,82
 415 192 415 192 429 194 c 128,-1,83
 443 196 443 196 451.5 197 c 128,-1,84
 460 198 460 198 478 190 c 0,71,72
EndSplineSet
EndChar

StartChar: at
Encoding: 64 64 36
Width: 1500
Flags: W
LayerCount: 2
Fore
SplineSet
234 875 m 128,-1,1
 217 822 217 822 208.5 793.5 c 128,-1,2
 200 765 200 765 187 706 c 128,-1,3
 174 647 174 647 174 551 c 128,-1,4
 174 455 174 455 178 426 c 128,-1,5
 182 397 182 397 210.5 336.5 c 128,-1,6
 239 276 239 276 242 261 c 128,-1,7
 245 246 245 246 287.5 196.5 c 128,-1,8
 330 147 330 147 380 106 c 1,9,10
 211 354 211 354 211 617 c 0,11,12
 211 972 211 972 517 1357 c 1,13,14
 487 1341 487 1341 448.5 1304.5 c 128,-1,15
 410 1268 410 1268 350.5 1162.5 c 128,-1,16
 291 1057 291 1057 271 992.5 c 128,-1,0
 251 928 251 928 234 875 c 128,-1,1
649 904 m 128,-1,18
 635 898 635 898 566.5 821.5 c 128,-1,19
 498 745 498 745 498 620 c 128,-1,20
 498 495 498 495 549 434.5 c 128,-1,21
 600 374 600 374 704 374 c 1,22,-1
 755 379 l 2,23,24
 771 384 771 384 804.5 416.5 c 128,-1,25
 838 449 838 449 870 455 c 128,-1,26
 902 461 902 461 911 465 c 0,27,28
 912 468 912 468 912 472.5 c 128,-1,29
 912 477 912 477 908 511 c 128,-1,30
 904 545 904 545 893 671 c 128,-1,31
 882 797 882 797 865 833 c 1,32,-1
 865 834 l 1,33,34
 836 908 836 908 712 910 c 0,35,17
 663 910 663 910 649 904 c 128,-1,18
929 1090 m 1,36,-1
 933 1092 l 1,37,-1
 970 1080 l 1,38,39
 996 1064 996 1064 1009 1018 c 128,-1,40
 1022 972 1022 972 1026 845.5 c 128,-1,41
 1030 719 1030 719 1041 663 c 128,-1,42
 1052 607 1052 607 1052 569.5 c 128,-1,43
 1052 532 1052 532 1050 504 c 128,-1,44
 1048 476 1048 476 1048 454 c 128,-1,45
 1048 432 1048 432 1063.5 408.5 c 128,-1,46
 1079 385 1079 385 1086 378 c 1,47,48
 1048 714 1048 714 1024 1048 c 1,49,50
 1024 1048 1024 1048 1024 1049 c 0,51,52
 1024 1055 1024 1055 1042 1057 c 0,53,54
 1046 1057 1046 1057 1050 1057 c 0,55,56
 1062 1057 1062 1057 1063 1052 c 0,57,58
 1105 707 1105 707 1131 366 c 1,59,60
 1152 376 1152 376 1195 416.5 c 128,-1,61
 1238 457 1238 457 1255 504 c 128,-1,62
 1272 551 1272 551 1290 658 c 128,-1,63
 1308 765 1308 765 1308 849.5 c 128,-1,64
 1308 934 1308 934 1285 991.5 c 128,-1,65
 1262 1049 1262 1049 1198.5 1114.5 c 128,-1,66
 1135 1180 1135 1180 1123.5 1183 c 128,-1,67
 1112 1186 1112 1186 1102 1190.5 c 128,-1,68
 1092 1195 1092 1195 1071 1208 c 128,-1,69
 1050 1221 1050 1221 1034 1231 c 128,-1,70
 1018 1241 1018 1241 939.5 1292 c 128,-1,71
 861 1343 861 1343 757 1367.5 c 128,-1,72
 653 1392 653 1392 636 1392 c 128,-1,73
 619 1392 619 1392 580 1381 c 1,74,75
 285 993 285 993 285 627 c 0,76,77
 285 316 285 316 498 21 c 1,78,79
 543 -6 543 -6 604 -30 c 128,-1,80
 665 -54 665 -54 774 -63 c 128,-1,81
 883 -72 883 -72 892 -76 c 128,-1,82
 901 -80 901 -80 914.5 -80 c 128,-1,83
 928 -80 928 -80 982 -65.5 c 128,-1,84
 1036 -51 1036 -51 1092 -21 c 0,85,86
 1208 39 1208 39 1283 193 c 1,87,-1
 1353 308 l 1,88,89
 1377 338 1377 338 1405 338 c 128,-1,90
 1433 338 1433 338 1440.5 324.5 c 128,-1,91
 1448 311 1448 311 1448 250.5 c 128,-1,92
 1448 190 1448 190 1370.5 73.5 c 128,-1,93
 1293 -43 1293 -43 1199 -106 c 2,94,-1
 1125 -155 l 1,95,-1
 836 -224 l 1,96,-1
 552 -149 l 1,97,-1
 471 -111 l 2,98,99
 382 -68 382 -68 278 19 c 128,-1,100
 174 106 174 106 145 163 c 0,101,102
 78 298 78 298 62 356 c 128,-1,103
 46 414 46 414 46 587 c 128,-1,104
 46 760 46 760 105 922 c 0,105,106
 111 940 111 940 146 1032.5 c 128,-1,107
 181 1125 181 1125 203 1162.5 c 128,-1,108
 225 1200 225 1200 254.5 1256.5 c 128,-1,109
 284 1313 284 1313 338 1374.5 c 128,-1,110
 392 1436 392 1436 448.5 1465 c 128,-1,111
 505 1494 505 1494 620 1494 c 128,-1,112
 735 1494 735 1494 778.5 1483.5 c 128,-1,113
 822 1473 822 1473 1005.5 1381.5 c 128,-1,114
 1189 1290 1189 1290 1303 1166 c 0,115,116
 1358 1109 1358 1109 1396 1050.5 c 128,-1,117
 1434 992 1434 992 1434 867.5 c 128,-1,118
 1434 743 1434 743 1410 624 c 128,-1,119
 1386 505 1386 505 1365.5 447.5 c 128,-1,120
 1345 390 1345 390 1307 344 c 0,121,122
 1209 222 1209 222 1114 222 c 2,123,-1
 1112 222 l 2,124,125
 1018 222 1018 222 977 281.5 c 128,-1,126
 936 341 936 341 923 350 c 1,127,128
 911 346 911 346 885 318 c 0,129,130
 810 237 810 237 735 236 c 1,131,-1
 733 234 l 1,132,-1
 728 234 l 2,133,134
 658 234 658 234 591.5 252.5 c 128,-1,135
 525 271 525 271 494 293.5 c 128,-1,136
 463 316 463 316 412.5 403.5 c 128,-1,137
 362 491 362 491 362 638 c 0,138,139
 362 906 362 906 591 1013 c 0,140,141
 655 1042 655 1042 736 1043 c 128,-1,142
 817 1044 817 1044 842 1048 c 1,143,-1
 887 1068 l 1,144,-1
 928 1090 l 1,145,-1
 929 1090 l 1,36,-1
EndSplineSet
EndChar

StartChar: A
Encoding: 65 65 37
Width: 1186
Flags: W
LayerCount: 2
Fore
SplineSet
56 61 m 2,0,1
 56 90 56 90 92 118.5 c 128,-1,2
 128 147 128 147 128 165 c 2,3,-1
 164 483 l 2,4,5
 172 575 172 575 174 631 c 1,6,-1
 172 682 l 2,7,8
 172 748 172 748 206.5 910 c 128,-1,9
 241 1072 241 1072 302 1169.5 c 128,-1,10
 363 1267 363 1267 404.5 1307 c 128,-1,11
 446 1347 446 1347 496.5 1358.5 c 128,-1,12
 547 1370 547 1370 573 1370 c 128,-1,13
 599 1370 599 1370 639 1368 c 0,14,15
 907 1348 907 1348 988 1055 c 0,16,17
 1006 987 1006 987 1009 940 c 128,-1,18
 1012 893 1012 893 1012 853.5 c 128,-1,19
 1012 814 1012 814 1008 791 c 1,20,-1
 1030 157 l 1,21,-1
 1106 94 l 1,22,-1
 1118 70 l 1,23,-1
 1101 2 l 1,24,-1
 779 16 l 1,25,26
 739 26 739 26 736 62 c 2,27,-1
 736 67 l 2,28,29
 736 97 736 97 758 117.5 c 128,-1,30
 780 138 780 138 811 148 c 1,31,32
 802 346 802 346 795 543 c 1,33,34
 743 546 743 546 602.5 546 c 128,-1,35
 462 546 462 546 426.5 538 c 128,-1,36
 391 530 391 530 387 529 c 0,37,38
 361 328 361 328 333 128 c 0,39,40
 335 127 335 127 354 124 c 1,41,-1
 385 109 l 1,42,-1
 391 96 l 1,43,-1
 392 94 l 1,44,-1
 383 58 l 1,45,46
 368 23 368 23 324.5 14.5 c 128,-1,47
 281 6 281 6 205.5 6 c 128,-1,48
 130 6 130 6 94.5 15 c 128,-1,49
 59 24 59 24 56 58 c 2,50,-1
 56 61 l 2,0,1
319 727 m 2,51,-1
 319 671 l 1,52,53
 337 672 337 672 355 673 c 1,54,55
 381 878 381 878 408 1082 c 1,56,57
 396 1056 396 1056 357.5 955 c 128,-1,58
 319 854 319 854 319 727 c 2,51,-1
292 343 m 1,59,-1
 282 167 l 2,60,61
 283 155 283 155 293 146 c 1,62,63
 313 328 313 328 335 510 c 1,64,65
 324 504 324 504 316 490 c 128,-1,66
 308 476 308 476 292 343 c 1,59,-1
466 1178 m 1,67,68
 438 926 438 926 406 676 c 1,69,-1
 586 688 l 1,70,71
 668 688 668 688 716.5 683.5 c 128,-1,72
 765 679 765 679 791 678 c 1,73,74
 784 922 784 922 780 1165 c 1,75,-1
 715 1224 l 1,76,-1
 622 1224 l 2,77,78
 526 1222 526 1222 503 1208 c 1,79,-1
 502 1208 l 1,80,-1
 466 1178 l 1,67,68
878 218 m 2,81,-1
 870 524 l 2,82,83
 866 528 866 528 850 534 c 1,84,85
 855 347 855 347 858 161 c 1,86,87
 869 166 869 166 873 170 c 0,88,89
 878 182 878 182 878 218 c 2,81,-1
845 693 m 1,90,-1
 878 713 l 1,91,-1
 864 896 l 2,92,93
 852 1048 852 1048 841.5 1072.5 c 128,-1,94
 831 1097 831 1097 830 1098 c 1,95,96
 839 895 839 895 845 693 c 1,90,-1
EndSplineSet
EndChar

StartChar: B
Encoding: 66 66 38
Width: 1070
Flags: W
LayerCount: 2
Fore
SplineSet
389 114 m 1,0,1
 392 345 392 345 398 574 c 1,2,-1
 384 571 l 1,3,-1
 369 138 l 1,4,-1
 364 115 l 1,5,6
 372 114 372 114 389 114 c 1,0,1
436 114 m 2,7,8
 509 114 509 114 594.5 132.5 c 128,-1,9
 680 151 680 151 698 160 c 1,10,11
 800 283 800 283 800 390 c 128,-1,12
 800 497 800 497 729 589 c 1,13,-1
 545 592 l 2,14,15
 492 592 492 592 450 585 c 1,16,17
 443 348 443 348 434 114 c 1,18,-1
 436 114 l 2,7,8
872 388 m 128,-1,20
 872 437 872 437 848.5 479 c 128,-1,21
 825 521 825 521 809 539 c 1,22,23
 848 470 848 470 848 401 c 128,-1,24
 848 332 848 332 815 264 c 1,25,19
 872 339 872 339 872 388 c 128,-1,20
764 1015 m 128,-1,27
 764 948 764 948 743 893 c 1,28,29
 760 912 760 912 775 939 c 2,30,-1
 803 991 l 1,31,32
 778 1068 778 1068 752 1143 c 1,33,-1
 715 1160 l 1,34,26
 764 1082 764 1082 764 1015 c 128,-1,27
584 1214 m 128,-1,36
 568 1214 568 1214 554.5 1209 c 128,-1,37
 541 1204 541 1204 503.5 1203.5 c 128,-1,38
 466 1203 466 1203 463 1203 c 0,39,40
 460 972 460 972 455 743 c 1,41,42
 499 746 499 746 539 761 c 128,-1,43
 579 776 579 776 616 799.5 c 128,-1,44
 653 823 653 823 662 829 c 1,45,46
 716 918 716 918 716 1009.5 c 128,-1,47
 716 1101 716 1101 644 1194 c 1,48,35
 600 1214 600 1214 584 1214 c 128,-1,36
386 1170.5 m 128,-1,50
 386 1155 386 1155 393.5 1126.5 c 128,-1,51
 401 1098 401 1098 401 1024 c 1,52,-1
 381 742 l 1,53,-1
 402 742 l 1,54,55
 409 972 409 972 418 1201 c 1,56,57
 400 1199 400 1199 393 1192.5 c 128,-1,49
 386 1186 386 1186 386 1170.5 c 128,-1,50
404 1352 m 2,58,-1
 472 1352 l 2,59,60
 508 1352 508 1352 618.5 1333 c 128,-1,61
 729 1314 729 1314 790 1273 c 128,-1,62
 851 1232 851 1232 894.5 1149 c 128,-1,63
 938 1066 938 1066 938 1007 c 128,-1,64
 938 948 938 948 896 866 c 128,-1,65
 854 784 854 784 824 760.5 c 128,-1,66
 794 737 794 737 788 728 c 1,67,68
 795 720 795 720 822.5 702 c 128,-1,69
 850 684 850 684 860 675 c 0,70,71
 916 637 916 637 962 544.5 c 128,-1,72
 1008 452 1008 452 1008 409 c 128,-1,73
 1008 366 1008 366 988.5 296 c 128,-1,74
 969 226 969 226 913.5 155.5 c 128,-1,75
 858 85 858 85 761 36.5 c 128,-1,76
 664 -12 664 -12 352 -12 c 1,77,-1
 132 -6 l 1,78,79
 82 1 82 1 71 19.5 c 128,-1,80
 60 38 60 38 59.5 46 c 128,-1,81
 59 54 59 54 59 62 c 1,82,-1
 78 91 l 1,83,-1
 119 112 l 1,84,-1
 234 112 l 1,85,-1
 236 487 l 1,86,-1
 242 1003 l 2,87,88
 242 1073 242 1073 234 1128 c 2,89,-1
 226 1178 l 1,90,-1
 142 1171 l 2,91,92
 116 1171 116 1171 97.5 1185 c 128,-1,93
 79 1199 79 1199 79.5 1214.5 c 128,-1,94
 80 1230 80 1230 93.5 1259 c 128,-1,95
 107 1288 107 1288 141 1305 c 128,-1,96
 175 1322 175 1322 260 1330.5 c 128,-1,97
 345 1339 345 1339 358.5 1345.5 c 128,-1,98
 372 1352 372 1352 404 1352 c 2,58,-1
EndSplineSet
EndChar

StartChar: C
Encoding: 67 67 39
Width: 1084
Flags: W
LayerCount: 2
Fore
SplineSet
988 57 m 0,0,1
 922 48 922 48 856 38 c 0,2,3
 844 36 844 36 699 -46 c 0,4,5
 688 -52 688 -52 563 -52 c 0,6,7
 460 -52 460 -52 407.5 -35.5 c 128,-1,8
 355 -19 355 -19 274 45 c 0,9,10
 122 168 122 168 111 274.5 c 128,-1,11
 100 381 100 381 80 498.5 c 128,-1,12
 60 616 60 616 60 657.5 c 128,-1,13
 60 699 60 699 68 750 c 128,-1,14
 76 801 76 801 146 943.5 c 128,-1,15
 216 1086 216 1086 287 1164 c 0,16,17
 361 1242 361 1242 470.5 1314 c 128,-1,18
 580 1386 580 1386 696.5 1386 c 128,-1,19
 813 1386 813 1386 840.5 1368 c 128,-1,20
 868 1350 868 1350 886 1350 c 2,21,-1
 914 1350 l 1,22,-1
 955 1347 l 2,23,24
 972 1343 972 1343 990 1329 c 0,25,26
 1004 1318 1004 1318 1003 1286 c 0,27,28
 1002 1278 1002 1278 1002 1268 c 0,29,30
 998 1221 998 1221 981 1200 c 128,-1,31
 964 1179 964 1179 932.5 1122.5 c 128,-1,32
 901 1066 901 1066 866 1046 c 1,33,-1
 822 1013 l 1,34,-1
 765 1086 l 1,35,-1
 764 1088 l 2,36,37
 762 1093 762 1093 762 1100 c 0,38,39
 762 1116 762 1116 772 1144 c 0,40,41
 780 1169 780 1169 780 1186 c 0,42,43
 780 1195 780 1195 777 1201 c 0,44,45
 769 1217 769 1217 739.5 1232.5 c 128,-1,46
 710 1248 710 1248 693 1248 c 2,47,-1
 658 1241 l 1,48,49
 592 1220 592 1220 533 1180 c 1,50,51
 286 873 286 873 286 570 c 0,52,53
 286 339 286 339 429 110 c 1,54,55
 487 78 487 78 575 78 c 128,-1,56
 663 78 663 78 728.5 119 c 128,-1,57
 794 160 794 160 794 213 c 128,-1,58
 794 266 794 266 809 288 c 128,-1,59
 824 310 824 310 862.5 310 c 128,-1,60
 901 310 901 310 943.5 272.5 c 128,-1,61
 986 235 986 235 1003 192.5 c 128,-1,62
 1020 150 1020 150 1020 133 c 128,-1,63
 1020 116 1020 116 1011 89 c 0,64,65
 1001 59 1001 59 988 57 c 0,0,1
212 643 m 128,-1,67
 212 569 212 569 234 478 c 128,-1,68
 256 387 256 387 256 341.5 c 128,-1,69
 256 296 256 296 272.5 264 c 128,-1,70
 289 232 289 232 347 175 c 1,71,72
 236 375 236 375 236 576 c 0,73,74
 236 814 236 814 392 1053 c 1,75,76
 353 1013 353 1013 331 982.5 c 128,-1,77
 309 952 309 952 268 867 c 128,-1,78
 227 782 227 782 219.5 749.5 c 128,-1,66
 212 717 212 717 212 643 c 128,-1,67
EndSplineSet
EndChar

StartChar: D
Encoding: 68 68 40
Width: 1266
Flags: W
LayerCount: 2
Fore
SplineSet
1206 886 m 2,0,-1
 1206 815 l 1,1,2
 1200 703 1200 703 1159.5 588.5 c 128,-1,3
 1119 474 1119 474 1069.5 417.5 c 128,-1,4
 1020 361 1020 361 998 321.5 c 128,-1,5
 976 282 976 282 917 226 c 128,-1,6
 858 170 858 170 786 123 c 128,-1,7
 714 76 714 76 558.5 39 c 128,-1,8
 403 2 403 2 288 2 c 128,-1,9
 173 2 173 2 149.5 4.5 c 128,-1,10
 126 7 126 7 114 22 c 1,11,-1
 102 50 l 1,12,-1
 114 77 l 1,13,-1
 115 78 l 2,14,15
 133 101 133 101 175.5 112.5 c 128,-1,16
 218 124 218 124 224 148 c 2,17,-1
 236 222 l 1,18,-1
 230 476 l 2,19,20
 230 590 230 590 236 787 c 1,21,-1
 248 981 l 1,22,-1
 242 1107 l 2,23,24
 236 1165 236 1165 230.5 1171 c 128,-1,25
 225 1177 225 1177 217.5 1177 c 128,-1,26
 210 1177 210 1177 184 1169 c 128,-1,27
 158 1161 158 1161 138 1161 c 0,28,29
 64 1161 64 1161 64 1212.5 c 128,-1,30
 64 1264 64 1264 124 1298 c 128,-1,31
 184 1332 184 1332 269 1350 c 128,-1,32
 354 1368 354 1368 515.5 1368 c 128,-1,33
 677 1368 677 1368 762.5 1350 c 128,-1,34
 848 1332 848 1332 929 1286.5 c 128,-1,35
 1010 1241 1010 1241 1041.5 1196 c 128,-1,36
 1073 1151 1073 1151 1124 1093 c 128,-1,37
 1175 1035 1175 1035 1190.5 985 c 128,-1,38
 1206 935 1206 935 1206 886 c 2,0,-1
1064 818 m 2,39,40
 1064 902 1064 902 1050.5 953 c 128,-1,41
 1037 1004 1037 1004 955 1092 c 128,-1,42
 873 1180 873 1180 832.5 1200 c 128,-1,43
 792 1220 792 1220 764 1227 c 1,44,45
 1049 1062 1049 1062 1049 817 c 0,46,47
 1049 703 1049 703 987 571 c 1,48,49
 1061 690 1061 690 1064 768 c 2,50,-1
 1064 818 l 2,39,40
779 307 m 1,51,52
 1023 595 1023 595 1023 817 c 0,53,54
 1023 1066 1023 1066 714 1231 c 1,55,56
 597 1233 597 1233 480 1235 c 1,57,58
 474 684 474 684 451 143 c 1,59,60
 486 146 486 146 542 160.5 c 128,-1,61
 598 175 598 175 648.5 199.5 c 128,-1,62
 699 224 699 224 779 307 c 1,51,52
360 640 m 1,63,-1
 376 420 l 1,64,-1
 376 362 l 1,65,-1
 389 214 l 1,66,-1
 400 142 l 1,67,-1
 404 142 l 1,68,69
 411 692 411 692 434 1236 c 1,70,71
 432 1236 432 1236 430 1236 c 2,72,-1
 420 1099 l 2,73,74
 410 962 410 962 386 834.5 c 128,-1,75
 362 707 362 707 360 640 c 1,63,-1
EndSplineSet
EndChar

StartChar: E
Encoding: 69 69 41
Width: 1142
Flags: W
LayerCount: 2
Fore
SplineSet
346 1181 m 1,0,-1
 346 1063 l 2,1,2
 346 936 346 936 338 902 c 128,-1,3
 330 868 330 868 330 847 c 128,-1,4
 330 826 330 826 337.5 801 c 128,-1,5
 345 776 345 776 347.5 773 c 128,-1,6
 350 770 350 770 353.5 770 c 128,-1,7
 357 770 357 770 367 772 c 1,8,9
 364 977 364 977 363 1181 c 1,10,-1
 346 1181 l 1,0,-1
618 241 m 128,-1,12
 753 241 753 241 797 234 c 2,13,-1
 864 227 l 1,14,15
 875 233 875 233 899.5 268.5 c 128,-1,16
 924 304 924 304 964 304 c 2,17,-1
 966 304 l 2,18,19
 1012 304 1012 304 1012 238 c 128,-1,20
 1012 172 1012 172 960 117.5 c 128,-1,21
 908 63 908 63 898 46 c 1,22,-1
 898 43 l 2,23,24
 898 23 898 23 871 13.5 c 128,-1,25
 844 4 844 4 829 4 c 0,26,27
 785 4 785 4 776.5 48 c 128,-1,28
 768 92 768 92 759.5 97.5 c 128,-1,29
 751 103 751 103 713 111.5 c 128,-1,30
 675 120 675 120 640 120 c 128,-1,31
 605 120 605 120 434 90 c 2,32,-1
 133 32 l 1,33,-1
 130 32 l 2,34,35
 72 32 72 32 72 77 c 0,36,37
 72 84 72 84 74.5 104 c 128,-1,38
 77 124 77 124 121 153 c 2,39,-1
 218 222 l 1,40,-1
 202 836 l 1,41,42
 194 979 194 979 184.5 1048 c 128,-1,43
 175 1117 175 1117 170.5 1121 c 128,-1,44
 166 1125 166 1125 164 1127 c 2,45,-1
 133 1130 l 1,46,-1
 129 1126 l 1,47,-1
 124 1126 l 2,48,49
 87 1126 87 1126 65.5 1143 c 128,-1,50
 44 1160 44 1160 44 1196 c 2,51,-1
 44 1197 l 2,52,53
 44 1232 44 1232 86 1264 c 128,-1,54
 128 1296 128 1296 203 1315 c 128,-1,55
 278 1334 278 1334 539 1334 c 128,-1,56
 800 1334 800 1334 840 1321 c 128,-1,57
 880 1308 880 1308 894.5 1308 c 128,-1,58
 909 1308 909 1308 923 1311.5 c 128,-1,59
 937 1315 937 1315 965.5 1351.5 c 128,-1,60
 994 1388 994 1388 1027 1388 c 128,-1,61
 1060 1388 1060 1388 1076 1370 c 128,-1,62
 1092 1352 1092 1352 1092 1322 c 128,-1,63
 1092 1292 1092 1292 1056 1233 c 128,-1,64
 1020 1174 1020 1174 986 1148 c 128,-1,65
 952 1122 952 1122 916 1122 c 128,-1,66
 880 1122 880 1122 858 1150 c 128,-1,67
 836 1178 836 1178 768 1200 c 128,-1,68
 700 1222 700 1222 675.5 1222 c 128,-1,69
 651 1222 651 1222 552.5 1204 c 128,-1,70
 454 1186 454 1186 406 1182 c 1,71,72
 413 982 413 982 418 783 c 1,73,74
 440 786 440 786 490 792 c 128,-1,75
 540 798 540 798 577 822 c 128,-1,76
 614 846 614 846 633 846 c 1,77,-1
 686 832 l 1,78,79
 725 816 725 816 725 757 c 128,-1,80
 725 698 725 698 678 629 c 128,-1,81
 631 560 631 560 589 560 c 128,-1,82
 547 560 547 560 508 609 c 2,83,-1
 477 645 l 1,84,-1
 421 633 l 1,85,86
 425 432 425 432 425 233 c 1,87,88
 432 234 432 234 457.5 237.5 c 128,-1,11
 483 241 483 241 618 241 c 128,-1,12
349 552 m 1,89,-1
 367 393 l 1,90,-1
 351 260 l 2,91,92
 351 242 351 242 357 236 c 1,93,-1
 381 229 l 1,94,95
 374 423 374 423 370 615 c 1,96,97
 363 612 363 612 356 606.5 c 128,-1,98
 349 601 349 601 349 552 c 1,89,-1
EndSplineSet
EndChar

StartChar: F
Encoding: 70 70 42
Width: 1232
Flags: W
LayerCount: 2
Fore
SplineSet
410 740 m 1,0,1
 427 935 427 935 446 1129 c 1,2,3
 438 1128 438 1128 429 1126 c 1,4,-1
 422 1085 l 1,5,6
 401 990 401 990 397 884 c 128,-1,7
 393 778 393 778 388.5 761.5 c 128,-1,8
 384 745 384 745 383 738 c 1,9,10
 391 738 391 738 410 740 c 1,0,1
358 296 m 2,11,-1
 366 185 l 1,12,13
 381 397 381 397 399 609 c 1,14,15
 394 609 394 609 389 608 c 1,16,-1
 385 476 l 2,17,18
 383 414 383 414 370.5 373 c 128,-1,19
 358 332 358 332 358 296 c 2,11,-1
236 970 m 1,20,-1
 246 1090 l 2,21,22
 245 1110 245 1110 235.5 1119 c 128,-1,23
 226 1128 226 1128 204 1128 c 2,24,-1
 140 1126 l 2,25,26
 105 1126 105 1126 84.5 1142 c 128,-1,27
 64 1158 64 1158 62 1188 c 2,28,-1
 62 1199 l 1,29,-1
 77 1245 l 1,30,31
 90 1264 90 1264 151 1264 c 2,32,-1
 154 1264 l 1,33,-1
 158 1263 l 1,34,35
 220 1263 220 1263 248.5 1281 c 128,-1,36
 277 1299 277 1299 315 1299 c 128,-1,37
 353 1299 353 1299 384 1283 c 128,-1,38
 415 1267 415 1267 440 1267 c 128,-1,39
 465 1267 465 1267 575.5 1288.5 c 128,-1,40
 686 1310 686 1310 833.5 1310 c 128,-1,41
 981 1310 981 1310 1008 1314 c 128,-1,42
 1035 1318 1035 1318 1059 1340 c 128,-1,43
 1083 1362 1083 1362 1096 1362 c 2,44,-1
 1104 1362 l 2,45,46
 1133 1362 1133 1362 1149.5 1344 c 128,-1,47
 1166 1326 1166 1326 1168 1294 c 2,48,-1
 1168 1258 l 2,49,50
 1168 1224 1168 1224 1136 1156.5 c 128,-1,51
 1104 1089 1104 1089 1067 1089 c 128,-1,52
 1030 1089 1030 1089 994 1135 c 2,53,-1
 962 1177 l 1,54,-1
 857 1177 l 2,55,56
 740 1177 740 1177 653 1162.5 c 128,-1,57
 566 1148 566 1148 490 1136 c 1,58,59
 477 941 477 941 461 746 c 1,60,61
 501 750 501 750 556.5 750 c 128,-1,62
 612 750 612 750 628 756 c 128,-1,63
 644 762 644 762 663.5 787 c 128,-1,64
 683 812 683 812 720 812 c 128,-1,65
 757 812 757 812 775 800 c 128,-1,66
 793 788 793 788 793 746.5 c 128,-1,67
 793 705 793 705 781 634 c 128,-1,68
 769 563 769 563 753.5 545.5 c 128,-1,69
 738 528 738 528 702.5 528 c 128,-1,70
 667 528 667 528 638 582 c 1,71,-1
 619 612 l 1,72,-1
 502 612 l 1,73,-1
 450 610 l 1,74,75
 431 379 431 379 408 151 c 1,76,77
 418 145 418 145 441 127 c 128,-1,78
 464 109 464 109 468 100 c 128,-1,79
 472 91 472 91 472 82 c 2,80,-1
 468 57 l 1,81,82
 455 26 455 26 403 13 c 128,-1,83
 351 0 351 0 304 0 c 2,84,-1
 91 6 l 2,85,86
 79 10 79 10 70 20 c 1,87,-1
 60 49 l 1,88,89
 60 69 60 69 83 87 c 128,-1,90
 106 105 106 105 166 132 c 128,-1,91
 226 159 226 159 226 236 c 2,92,-1
 226 269 l 2,93,94
 226 294 226 294 240 366.5 c 128,-1,95
 254 439 254 439 254 515 c 2,96,-1
 236 970 l 1,20,-1
EndSplineSet
EndChar

StartChar: G
Encoding: 71 71 43
Width: 1114
Flags: W
LayerCount: 2
Fore
SplineSet
726 676 m 1,0,-1
 812 670 l 1,1,2
 870 672 870 672 918 688 c 128,-1,3
 966 704 966 704 982 704 c 128,-1,4
 998 704 998 704 1019 676 c 1,5,6
 1050 647 1050 647 1051 615.5 c 128,-1,7
 1052 584 1052 584 1052 542 c 128,-1,8
 1052 500 1052 500 1037 341 c 128,-1,9
 1022 182 1022 182 1019 141.5 c 128,-1,10
 1016 101 1016 101 996.5 82 c 128,-1,11
 977 63 977 63 958 63 c 128,-1,12
 939 63 939 63 916 67.5 c 128,-1,13
 893 72 893 72 882.5 72 c 128,-1,14
 872 72 872 72 863 69.5 c 128,-1,15
 854 67 854 67 825 49 c 0,16,17
 720 -18 720 -18 545 -18 c 2,18,-1
 539 -18 l 2,19,20
 361 -18 361 -18 284.5 22.5 c 128,-1,21
 208 63 208 63 159 118.5 c 128,-1,22
 110 174 110 174 86.5 224.5 c 128,-1,23
 63 275 63 275 61 334 c 2,24,-1
 56 568 l 1,25,26
 56 804 56 804 92.5 895 c 128,-1,27
 129 986 129 986 146 1056.5 c 128,-1,28
 163 1127 163 1127 245.5 1220 c 128,-1,29
 328 1313 328 1313 417 1345.5 c 128,-1,30
 506 1378 506 1378 585.5 1378 c 128,-1,31
 665 1378 665 1378 760 1355 c 128,-1,32
 855 1332 855 1332 877 1332 c 0,33,34
 900 1332 900 1332 918 1345 c 128,-1,35
 936 1358 936 1358 968 1358 c 2,36,-1
 970 1358 l 2,37,38
 1004 1358 1004 1358 1021 1339.5 c 128,-1,39
 1038 1321 1038 1321 1040 1290 c 2,40,-1
 1042 1251 l 2,41,42
 1042 1224 1042 1224 1012.5 1158.5 c 128,-1,43
 983 1093 983 1093 943 1078 c 1,44,45
 912 1080 912 1080 878 1133 c 128,-1,46
 844 1186 844 1186 813.5 1206.5 c 128,-1,47
 783 1227 783 1227 728 1242 c 0,48,49
 679 1255 679 1255 645 1255 c 0,50,51
 640 1255 640 1255 636 1255 c 0,52,53
 599 1253 599 1253 575 1249 c 1,54,55
 439 1174 439 1174 353 1028 c 0,56,57
 264 877 264 877 264 543 c 0,58,59
 264 420 264 420 276 272 c 0,60,61
 280 220 280 220 346 131 c 1,62,-1
 530 102 l 1,63,64
 672 102 672 102 738 156 c 1,65,66
 785 346 785 346 838 532 c 1,67,68
 828 532 828 532 775 532 c 128,-1,69
 722 532 722 532 677 549.5 c 128,-1,70
 632 567 632 567 629 615 c 1,71,-1
 626 617 l 1,72,-1
 626 622 l 2,73,74
 626 676 626 676 726 676 c 1,0,-1
876 530 m 1,75,76
 838 378 838 378 796 229 c 1,77,78
 835 293 835 293 865.5 395.5 c 128,-1,79
 896 498 896 498 900 526 c 1,80,81
 892 529 892 529 876 530 c 1,75,76
279 995 m 0,82,83
 239 898 239 898 217.5 780.5 c 128,-1,84
 196 663 196 663 196 494.5 c 128,-1,85
 196 326 196 326 209 291 c 128,-1,86
 222 256 222 256 239 230 c 1,87,88
 231 252 231 252 229 273 c 0,89,90
 217 421 217 421 217 543 c 0,91,92
 217 912 217 912 324 1050 c 0,93,94
 401 1148 401 1148 515 1239 c 1,95,96
 506 1237 506 1237 497 1236 c 0,97,98
 355 1184 355 1184 279 995 c 0,82,83
EndSplineSet
EndChar

StartChar: H
Encoding: 72 72 44
Width: 1232
Flags: W
LayerCount: 2
Fore
SplineSet
935 752 m 1,0,1
 924 459 924 459 909 169 c 1,2,3
 925 185 925 185 926 203 c 2,4,-1
 936 752 l 1,5,-1
 935 752 l 1,0,1
331 156 m 1,6,7
 347 381 347 381 366 606 c 1,8,9
 353 596 353 596 350 583 c 2,10,-1
 311 168 l 1,11,-1
 331 156 l 1,6,7
383 789 m 1,12,13
 402 998 402 998 423 1206 c 1,14,15
 401 1182 401 1182 393 1159 c 1,16,-1
 367 786 l 1,17,-1
 383 789 l 1,12,13
952 1054 m 1,18,19
 966 1116 966 1116 966 1140 c 2,20,-1
 966 1172 l 1,21,22
 962 1216 962 1216 949 1227 c 1,23,24
 945 1057 945 1057 940 888 c 1,25,-1
 956 888 l 1,26,-1
 952 1054 l 1,18,19
1000.5 1370 m 128,-1,28
 1121 1370 1121 1370 1147 1341 c 128,-1,29
 1173 1312 1173 1312 1176 1286 c 1,30,-1
 1178 1284 l 1,31,-1
 1178 1279 l 2,32,33
 1178 1250 1178 1250 1153.5 1230 c 128,-1,34
 1129 1210 1129 1210 1117.5 1143 c 128,-1,35
 1106 1076 1106 1076 1106 967 c 2,36,-1
 1106 912 l 2,37,38
 1106 809 1106 809 1090 665 c 128,-1,39
 1074 521 1074 521 1068 408 c 2,40,-1
 1061 218 l 1,41,-1
 1099 164 l 1,42,43
 1138 118 1138 118 1138 98 c 2,44,-1
 1138 96 l 2,45,46
 1138 51 1138 51 1068 22.5 c 128,-1,47
 998 -6 998 -6 963.5 -10 c 128,-1,48
 929 -14 929 -14 905 -14.5 c 128,-1,49
 881 -15 881 -15 845 -8.5 c 128,-1,50
 809 -2 809 -2 797.5 7.5 c 128,-1,51
 786 17 786 17 786 52.5 c 128,-1,52
 786 88 786 88 831 127 c 1,53,54
 847 133 847 133 861 139 c 1,55,56
 868 447 868 447 881 752 c 1,57,-1
 853 752 l 2,58,59
 776 752 776 752 715.5 736.5 c 128,-1,60
 655 721 655 721 561.5 683 c 128,-1,61
 468 645 468 645 423 629 c 1,62,63
 401 378 401 378 375 129 c 1,64,-1
 427 98 l 2,65,66
 435 93 435 93 435 80.5 c 128,-1,67
 435 68 435 68 424 57 c 0,68,69
 394 6 394 6 210 6 c 2,70,-1
 194 6 l 2,71,72
 60 6 60 6 58 86 c 2,73,-1
 58 90 l 2,74,75
 58 120 58 120 78 138.5 c 128,-1,76
 98 157 98 157 126.5 162 c 128,-1,77
 155 167 155 167 163.5 187 c 128,-1,78
 172 207 172 207 184 308.5 c 128,-1,79
 196 410 196 410 202 468.5 c 128,-1,80
 208 527 208 527 208 636 c 2,81,-1
 198 1293 l 1,82,-1
 234 1317 l 2,83,84
 281 1344 281 1344 316 1346 c 2,85,-1
 324 1346 l 1,86,-1
 326 1342 l 1,87,-1
 385 1342 l 2,88,89
 454 1342 454 1342 482 1322.5 c 128,-1,90
 510 1303 510 1303 510 1280 c 2,91,-1
 510 1275 l 1,92,-1
 508 1262 l 1,93,-1
 508 1261 l 1,94,95
 489 1254 489 1254 472 1245 c 1,96,97
 456 1021 456 1021 438 799 c 1,98,-1
 481 806 l 2,99,100
 546 817 546 817 576.5 834 c 128,-1,101
 607 851 607 851 702.5 869.5 c 128,-1,102
 798 888 798 888 870 888 c 2,103,-1
 886 888 l 1,104,105
 894 1066 894 1066 904 1244 c 1,106,107
 890 1246 890 1246 880 1246 c 2,108,-1
 863 1246 l 1,109,-1
 852 1280 l 1,110,111
 852 1300 852 1300 861 1321 c 0,112,27
 880 1370 880 1370 1000.5 1370 c 128,-1,28
EndSplineSet
EndChar

StartChar: I
Encoding: 73 73 45
Width: 548
Flags: W
LayerCount: 2
Fore
SplineSet
342 295 m 1,0,-1
 338 198 l 1,1,-1
 342 187 l 1,2,-1
 365 174 l 1,3,4
 361 447 361 447 361 680 c 128,-1,5
 361 913 361 913 363 1106 c 1,6,7
 361 1096 361 1096 354.5 1048.5 c 128,-1,8
 348 1001 348 1001 345 952 c 128,-1,9
 342 903 342 903 342 815 c 2,10,-1
 342 295 l 1,0,-1
363.5 1340 m 128,-1,12
 388 1340 388 1340 416 1318 c 2,13,-1
 455 1283 l 1,14,-1
 412 1212 l 1,15,16
 417 857 417 857 417 680.5 c 128,-1,17
 417 504 417 504 415 355 c 2,18,-1
 413 153 l 1,19,20
 473 129 473 129 483 96 c 0,21,22
 486 90 486 90 486 71.5 c 128,-1,23
 486 53 486 53 449 23.5 c 128,-1,24
 412 -6 412 -6 238 -6 c 128,-1,25
 64 -6 64 -6 64 59 c 2,26,-1
 64 61 l 2,27,28
 64 102 64 102 109.5 122 c 128,-1,29
 155 142 155 142 174 145 c 1,30,31
 184 183 184 183 185 369.5 c 128,-1,32
 186 556 186 556 188 616 c 128,-1,33
 190 676 190 676 196 691 c 128,-1,34
 202 706 202 706 209.5 812 c 128,-1,35
 217 918 217 918 217 936 c 2,36,-1
 214 1080 l 2,37,38
 212 1119 212 1119 204 1134 c 128,-1,39
 196 1149 196 1149 134 1160 c 128,-1,40
 72 1171 72 1171 70 1224 c 2,41,-1
 70 1231 l 2,42,43
 72 1278 72 1278 106.5 1290 c 128,-1,44
 141 1302 141 1302 240 1321 c 128,-1,11
 339 1340 339 1340 363.5 1340 c 128,-1,12
EndSplineSet
EndChar

StartChar: J
Encoding: 74 74 46
Width: 1032
Flags: WO
LayerCount: 2
Fore
SplineSet
110 1110.5 m 0,0,1
 108 1137 108 1137 122.5 1173 c 0,2,3
 155 1255 155 1255 197 1272 c 0,4,5
 266 1300 266 1300 282 1307.5 c 128,-1,6
 298 1315 298 1315 467 1328.5 c 0,7,8
 568 1337 568 1337 586 1338.5 c 0,9,10
 600 1340 600 1340 801 1337.5 c 0,11,12
 958 1335 958 1335 975 1322.5 c 0,13,-1
 964 1162 l 1,14,-1
 770 1134 l 1,15,-1
 764 723 l 2,16,17
 763.113682777 644.117767189 763.113682777 644.117767189 734 429 c 0,18,19
 716 296 716 296 710.5 273 c 0,20,21
 689 189 689 189 656 108 c 0,22,23
 628 41 628 41 551.5 -15.5 c 0,24,25
 496.652941176 -57.5 496.652941176 -57.5 369 -57.5 c 2,26,-1
 359 -57.5 l 2,27,28
 223.342149555 -57.9879778793 223.342149555 -57.9879778793 34 21.5 c 0,29,30
 -72 66 -72 66 -72 187.5 c 0,31,32
 -72 235 -72 235 -69.5 256.5 c 0,33,34
 -67 279 -67 279 -55 290.5 c 0,35,36
 -43 303 -43 303 -4 302.5 c 0,37,38
 35 303 35 303 56 279.5 c 0,39,40
 77 257 77 257 96.5 199 c 128,-1,41
 116 141 116 141 128 129.5 c 0,42,43
 140 117 140 117 220.5 93 c 0,44,45
 292 71 292 71 307.5 80 c 0,46,47
 344 102 344 102 380 123 c 1,48,49
 419 155 419 155 464 242 c 0,50,51
 511 331 511 331 536 558 c 1,52,53
 564 915 564 915 562 930 c 0,54,55
 546 1093 546 1093 541 1145.5 c 1,56,-1
 461 1149 l 2,57,-1
 218 1116 l 0,58,59
 110 1111 110 1111 110 1110.5 c 0,0,1
480 122.5 m 1,60,61
 499 139.5 499 139.5 517 165.5 c 1,62,63
 500 144.5 500 144.5 480 122.5 c 1,60,61
EndSplineSet
EndChar

StartChar: K
Encoding: 75 75 47
Width: 1248
Flags: W
LayerCount: 2
Fore
SplineSet
60 1222 m 2,0,-1
 60 1225 l 1,1,2
 90 1346 90 1346 227 1346 c 0,3,4
 321 1346 321 1346 379.5 1337.5 c 128,-1,5
 438 1329 438 1329 450 1314.5 c 128,-1,6
 462 1300 462 1300 462 1274 c 128,-1,7
 462 1248 462 1248 441 1239 c 128,-1,8
 420 1230 420 1230 402 1222 c 1,9,10
 406 972 406 972 406 823 c 2,11,-1
 406 625 l 2,12,13
 409 628 409 628 440 657 c 128,-1,14
 471 686 471 686 619 849.5 c 128,-1,15
 767 1013 767 1013 809 1097.5 c 128,-1,16
 851 1182 851 1182 853 1205 c 1,17,-1
 838 1283 l 1,18,-1
 838 1284 l 2,19,20
 840 1360 840 1360 988 1360 c 1,21,-1
 1101 1356 l 2,22,23
 1136 1352 1136 1352 1154 1336 c 128,-1,24
 1172 1320 1172 1320 1172 1301 c 0,25,26
 1172 1240 1172 1240 1118 1219 c 1,27,-1
 1024 1160 l 1,28,-1
 771 839 l 2,29,30
 750 810 750 810 728 779.5 c 128,-1,31
 706 749 706 749 685 721.5 c 128,-1,32
 664 694 664 694 654 682 c 1,33,34
 678 663 678 663 770.5 569 c 128,-1,35
 863 475 863 475 936 391.5 c 128,-1,36
 1009 308 1009 308 1051 252 c 128,-1,37
 1093 196 1093 196 1129 162 c 128,-1,38
 1165 128 1165 128 1176.5 113 c 128,-1,39
 1188 98 1188 98 1188 86 c 0,40,41
 1188 0 1188 0 1070 0 c 0,42,43
 869 0 869 0 850.5 31.5 c 128,-1,44
 832 63 832 63 832 90 c 2,45,-1
 832 91 l 1,46,-1
 915 130 l 1,47,48
 760 288 760 288 638 430 c 2,49,-1
 517 573 l 1,50,51
 494 551 494 551 461 518.5 c 128,-1,52
 428 486 428 486 406 464 c 1,53,54
 405 299 405 299 402 136 c 1,55,-1
 427 125 l 2,56,57
 469 108 469 108 477 80 c 1,58,-1
 472 53 l 1,59,60
 465 42 465 42 458 38 c 128,-1,61
 451 34 451 34 446.5 23 c 128,-1,62
 442 12 442 12 334.5 3 c 128,-1,63
 227 -6 227 -6 196 -6 c 128,-1,64
 165 -6 165 -6 136 -0.5 c 128,-1,65
 107 5 107 5 92.5 26.5 c 128,-1,66
 78 48 78 48 78 65.5 c 128,-1,67
 78 83 78 83 95.5 101.5 c 128,-1,68
 113 120 113 120 141.5 132 c 128,-1,69
 170 144 170 144 173 159.5 c 128,-1,70
 176 175 176 175 185 300 c 128,-1,71
 194 425 194 425 194 727 c 128,-1,72
 194 1029 194 1029 185.5 1081 c 128,-1,73
 177 1133 177 1133 172 1140 c 128,-1,74
 167 1147 167 1147 136.5 1153.5 c 128,-1,75
 106 1160 106 1160 83 1184 c 128,-1,76
 60 1208 60 1208 60 1222 c 2,0,-1
341 582 m 2,77,-1
 352 577 l 1,78,79
 352 629 352 629 352 785 c 128,-1,80
 352 941 352 941 356 1200 c 1,81,82
 327 1185 327 1185 327 1178 c 0,83,84
 339 1134 339 1134 339 1078 c 0,85,86
 338 1076 338 1076 338 1073 c 0,87,88
 338 1014 338 1014 337 944 c 128,-1,89
 336 874 336 874 334 787 c 0,90,91
 333 722 333 722 333 673 c 0,92,93
 334 657 334 657 334 643 c 0,94,95
 334 586 334 586 341 582 c 2,77,-1
333 394 m 2,96,-1
 333 374 l 1,97,-1
 343 159 l 1,98,-1
 356 154 l 1,99,100
 354 285 354 285 353 416 c 1,101,102
 347 411 347 411 340 408 c 128,-1,103
 333 405 333 405 333 394 c 2,96,-1
947 145 m 1,104,-1
 969 155 l 1,105,-1
 608 560 l 2,106,107
 572 599 572 599 558 607 c 1,108,109
 552 603 552 603 541 594 c 1,110,111
 680 449 680 449 947 145 c 1,104,-1
EndSplineSet
EndChar

StartChar: L
Encoding: 76 76 48
Width: 1146
Flags: W
LayerCount: 2
Fore
SplineSet
360 894 m 2,0,1
 360 577 360 577 369 545 c 1,2,-1
 377 489 l 1,3,-1
 371 381 l 1,4,-1
 377 302 l 1,5,-1
 371 229 l 1,6,7
 371 154 371 154 382 142 c 128,-1,8
 393 130 393 130 395 128 c 1,9,10
 374 676 374 676 371 1218 c 1,11,-1
 360 1214 l 1,12,-1
 360 894 l 2,0,1
441 124 m 1,13,-1
 561 135 l 1,14,15
 622 135 622 135 724 159 c 128,-1,16
 826 183 826 183 866 183 c 128,-1,17
 906 183 906 183 915 185.5 c 128,-1,18
 924 188 924 188 929.5 205 c 128,-1,19
 935 222 935 222 961.5 253.5 c 128,-1,20
 988 285 988 285 1012 285 c 128,-1,21
 1036 285 1036 285 1059 251.5 c 128,-1,22
 1082 218 1082 218 1082 170.5 c 128,-1,23
 1082 123 1082 123 1030 61 c 2,24,-1
 963 -14 l 1,25,-1
 936 -20 l 1,26,-1
 916 -20 l 1,27,28
 887 -15 887 -15 867.5 10.5 c 128,-1,29
 848 36 848 36 798 36 c 128,-1,30
 748 36 748 36 693.5 17 c 128,-1,31
 639 -2 639 -2 445 -12 c 128,-1,32
 251 -22 251 -22 218 -26 c 128,-1,33
 185 -30 185 -30 168 -30 c 0,34,35
 64 -30 64 -30 64 42 c 2,36,-1
 64 44 l 2,37,38
 64 116 64 116 180 116 c 2,39,-1
 232 116 l 1,40,-1
 212 889 l 1,41,-1
 208 1184 l 1,42,-1
 165 1195 l 2,43,44
 122 1208 122 1208 97 1236 c 2,45,-1
 96 1237 l 1,46,-1
 84 1265 l 1,47,-1
 84 1266 l 1,48,-1
 98 1306 l 1,49,-1
 99 1306 l 1,50,51
 126 1337 126 1337 226 1349 c 2,52,-1
 338 1362 l 1,53,-1
 386 1351 l 1,54,-1
 387 1351 l 1,55,56
 459 1314 459 1314 459 1295 c 0,57,58
 459 1259 459 1259 432 1241 c 1,59,-1
 416 1235 l 1,60,61
 438 675 438 675 441 124 c 1,13,-1
EndSplineSet
EndChar

StartChar: M
Encoding: 77 77 49
Width: 1602
Flags: W
LayerCount: 2
Fore
SplineSet
213 597 m 2,0,-1
 362 1013 l 1,1,2
 366 1010 366 1010 369 1008 c 1,3,4
 369 1012 369 1012 367.5 1015 c 128,-1,5
 366 1018 366 1018 363 1021 c 1,6,7
 213 599 213 599 213 597 c 2,0,-1
412 978 m 1,8,9
 560 875 560 875 703 769 c 1,10,11
 668 809 668 809 598.5 867.5 c 128,-1,12
 529 926 529 926 479 951.5 c 128,-1,13
 429 977 429 977 412 987 c 1,14,-1
 412 978 l 1,8,9
1228 939 m 1,15,16
 1255 536 1255 536 1263 139 c 1,17,-1
 1275 149 l 1,18,-1
 1253 816 l 2,19,20
 1250 918 1250 918 1244 960 c 1,21,22
 1241 956 1241 956 1237.5 951.5 c 128,-1,23
 1234 947 1234 947 1228 939 c 1,15,16
364 530 m 128,-1,25
 364 740 364 740 368 948 c 1,26,27
 361 953 361 953 353 959 c 1,28,29
 351 939 351 939 348.5 901.5 c 128,-1,30
 346 864 346 864 341 804 c 1,31,-1
 341 529 l 1,32,-1
 347 143 l 2,33,34
 348 132 348 132 368 110 c 1,35,24
 364 320 364 320 364 530 c 128,-1,25
1542 80 m 128,-1,37
 1542 65 1542 65 1533 32 c 128,-1,38
 1524 -1 1524 -1 1497 -12.5 c 128,-1,39
 1470 -24 1470 -24 1451.5 -24 c 128,-1,40
 1433 -24 1433 -24 1411.5 -10 c 128,-1,41
 1390 4 1390 4 1362 4 c 128,-1,42
 1334 4 1334 4 1294.5 -11 c 128,-1,43
 1255 -26 1255 -26 1243 -26 c 2,44,-1
 1152 -34 l 1,45,46
 1125 -10 1125 -10 1125.5 4.5 c 128,-1,47
 1126 19 1126 19 1132 36 c 128,-1,48
 1138 53 1138 53 1165.5 66.5 c 128,-1,49
 1193 80 1193 80 1209 95 c 1,50,51
 1183 482 1183 482 1175 866 c 1,52,53
 1158 843 1158 843 1105 772.5 c 128,-1,54
 1052 702 1052 702 1032 667 c 128,-1,55
 1012 632 1012 632 988 615 c 128,-1,56
 964 598 964 598 921.5 598 c 128,-1,57
 879 598 879 598 860.5 604 c 128,-1,58
 842 610 842 610 733 683.5 c 128,-1,59
 624 757 624 757 413 914 c 1,60,61
 416 715 416 715 416 503 c 128,-1,62
 416 291 416 291 412 67 c 1,63,64
 421 59 421 59 435.5 43 c 128,-1,65
 450 27 450 27 450 0 c 2,66,-1
 450 -4 l 1,67,-1
 384 -28 l 1,68,-1
 275 -34 l 1,69,-1
 273 -32 l 1,70,-1
 170 -32 l 2,71,72
 121 -32 121 -32 101.5 -12.5 c 128,-1,73
 82 7 82 7 82 23 c 2,74,-1
 82 24 l 1,75,-1
 99 57 l 1,76,77
 125 85 125 85 168.5 101.5 c 128,-1,78
 212 118 212 118 214 146 c 2,79,-1
 204 448 l 1,80,-1
 206 694 l 1,81,-1
 203 768 l 1,82,-1
 190 991 l 1,83,-1
 174 1098 l 2,84,85
 174 1118 174 1118 124.5 1156 c 128,-1,86
 75 1194 75 1194 54.5 1221 c 128,-1,87
 34 1248 34 1248 34 1281 c 2,88,-1
 34 1287 l 1,89,-1
 37 1342 l 1,90,-1
 94 1334 l 2,91,92
 139 1325 139 1325 179 1292 c 1,93,-1
 584 1034 l 2,94,95
 760 925 760 925 864 783 c 0,96,97
 894 739 894 739 907 732 c 1,98,-1
 930 742 l 1,99,100
 948 762 948 762 1029 883.5 c 128,-1,101
 1110 1005 1110 1005 1134 1040.5 c 128,-1,102
 1158 1076 1158 1076 1194 1171 c 128,-1,103
 1230 1266 1230 1266 1296 1331 c 0,104,105
 1299 1334 1299 1334 1302.5 1335.5 c 128,-1,106
 1306 1337 1306 1337 1313 1338.5 c 128,-1,107
 1320 1340 1320 1340 1327 1341 c 128,-1,108
 1334 1342 1334 1342 1347 1344 c 128,-1,109
 1360 1346 1360 1346 1399.5 1353 c 128,-1,110
 1439 1360 1439 1360 1483.5 1360 c 128,-1,111
 1528 1360 1528 1360 1528 1337 c 128,-1,112
 1528 1314 1528 1314 1493.5 1273 c 128,-1,113
 1459 1232 1459 1232 1446.5 1193 c 128,-1,114
 1434 1154 1434 1154 1418 1067.5 c 128,-1,115
 1402 981 1402 981 1402 706 c 128,-1,116
 1402 431 1402 431 1410 397 c 2,117,-1
 1418 337 l 1,118,-1
 1408 251 l 1,119,120
 1408 177 1408 177 1451.5 157 c 128,-1,121
 1495 137 1495 137 1518.5 116 c 128,-1,36
 1542 95 1542 95 1542 80 c 128,-1,37
EndSplineSet
EndChar

StartChar: N
Encoding: 78 78 50
Width: 1280
Flags: W
LayerCount: 2
Fore
SplineSet
421 915 m 1,0,1
 420 906 420 906 420 897 c 1,2,3
 582 681 582 681 741 465 c 1,4,5
 641 653 641 653 570 730 c 128,-1,6
 499 807 499 807 466.5 852.5 c 128,-1,7
 434 898 434 898 421 915 c 1,0,1
315 118 m 1,8,9
 338 500 338 500 372 877 c 1,10,11
 362 890 362 890 353 903 c 1,12,13
 352 891 352 891 343.5 796.5 c 128,-1,14
 335 702 335 702 326 530 c 0,15,16
 318 360 318 360 310 266 c 0,17,18
 307 232 307 232 307 202 c 0,19,20
 307 152 307 152 315 118 c 1,8,9
380 963 m 1,21,22
 372 969 372 969 369 970 c 0,23,24
 367 970 367 970 366.5 970 c 128,-1,25
 366 970 366 970 365 970 c 1,26,27
 372 961 372 961 379 952 c 1,28,29
 379 957 379 957 380 963 c 1,21,22
1047 1342 m 2,30,-1
 1163 1358 l 1,31,32
 1202 1358 1202 1358 1234 1330 c 128,-1,33
 1266 1302 1266 1302 1266 1279 c 2,34,-1
 1266 1230 l 2,35,36
 1266 1195 1266 1195 1232 1180.5 c 128,-1,37
 1198 1166 1198 1166 1188 1149 c 0,38,39
 1126 1039 1126 1039 1118 410 c 1,40,-1
 1108 14 l 1,41,-1
 1070 -21 l 2,42,43
 1035 -56 1035 -56 997 -56 c 2,44,-1
 995 -56 l 2,45,46
 956 -56 956 -56 938.5 -33.5 c 128,-1,47
 921 -11 921 -11 907 63 c 128,-1,48
 893 137 893 137 861 214 c 1,49,50
 634 514 634 514 415 817 c 1,51,52
 392 445 392 445 356 78 c 1,53,-1
 393 85 l 1,54,-1
 393 84 l 1,55,56
 416 64 416 64 422 44 c 0,57,58
 428 25 428 25 428 19 c 2,59,-1
 428 18 l 2,60,61
 428 12 428 12 406 -22 c 0,62,63
 405 -24 405 -24 392 -24 c 0,64,65
 376 -24 376 -24 336 -20 c 0,66,67
 320 -19 320 -19 300 -19 c 0,68,69
 240 -19 240 -19 152 -32 c 0,70,71
 144 -33 144 -33 137 -33 c 0,72,73
 91 -33 91 -33 73 15 c 0,74,75
 68 24 68 24 68 48 c 128,-1,76
 68 72 68 72 109.5 93 c 128,-1,77
 151 114 151 114 170 117 c 1,78,79
 182 162 182 162 190 483 c 0,80,81
 197 768 197 768 197 912 c 0,82,83
 197 930 197 930 197 946 c 0,84,85
 196 1088 196 1088 188 1112.5 c 128,-1,86
 180 1137 180 1137 128 1162 c 128,-1,87
 76 1187 76 1187 64 1201 c 128,-1,88
 52 1215 52 1215 50 1250 c 2,89,-1
 42 1309 l 1,90,-1
 317 1304 l 1,91,-1
 329 1242 l 2,92,93
 340 1189 340 1189 374 1163 c 2,94,-1
 437 1110 l 1,95,96
 461 1084 461 1084 575 940 c 128,-1,97
 689 796 689 796 780 668.5 c 128,-1,98
 871 541 871 541 895.5 502.5 c 128,-1,99
 920 464 920 464 920 449.5 c 128,-1,100
 920 435 920 435 946 395 c 2,101,-1
 954 381 l 1,102,-1
 958 410 l 1,103,104
 988 582 988 582 1001 981 c 2,105,-1
 1007 1158 l 1,106,-1
 981 1178 l 2,107,108
 946 1207 946 1207 943 1233 c 2,109,-1
 943 1234 l 2,110,111
 943 1278 943 1278 970 1305 c 128,-1,112
 997 1332 997 1332 1047 1342 c 2,30,-1
EndSplineSet
EndChar

StartChar: O
Encoding: 79 79 51
Width: 1226
Flags: W
LayerCount: 2
Fore
SplineSet
884 221 m 1,0,1
 911 251 911 251 928 281.5 c 128,-1,2
 945 312 945 312 970.5 405 c 128,-1,3
 996 498 996 498 996 517 c 128,-1,4
 996 536 996 536 1005 578.5 c 128,-1,5
 1014 621 1014 621 1014 736.5 c 128,-1,6
 1014 852 1014 852 1009.5 886.5 c 128,-1,7
 1005 921 1005 921 991 962 c 1,8,9
 995 866 995 866 995 782 c 0,10,11
 995 391 995 391 900 245 c 0,12,13
 892 233 892 233 884 221 c 1,0,1
371 1190 m 1,14,15
 355 1177 355 1177 322 1142 c 128,-1,16
 289 1107 289 1107 250.5 985.5 c 128,-1,17
 212 864 212 864 204 776 c 128,-1,18
 196 688 196 688 196 624 c 128,-1,19
 196 560 196 560 204.5 502.5 c 128,-1,20
 213 445 213 445 220 413 c 1,21,22
 217 495 217 495 217 569 c 0,23,24
 217 961 217 961 311 1107 c 0,25,26
 338 1149 338 1149 371 1190 c 1,14,15
66 433 m 2,27,-1
 56 570 l 1,28,29
 56 631 56 631 68 766.5 c 128,-1,30
 80 902 80 902 95.5 959 c 128,-1,31
 111 1016 111 1016 149 1117 c 128,-1,32
 187 1218 187 1218 204 1246 c 128,-1,33
 221 1274 221 1274 280.5 1315.5 c 128,-1,34
 340 1357 340 1357 405.5 1376.5 c 128,-1,35
 471 1396 471 1396 568 1400 c 1,36,-1
 685 1392 l 1,37,38
 836 1366 836 1366 913.5 1309.5 c 128,-1,39
 991 1253 991 1253 1037 1193.5 c 128,-1,40
 1083 1134 1083 1134 1118.5 1020.5 c 128,-1,41
 1154 907 1154 907 1158 874.5 c 128,-1,42
 1162 842 1162 842 1162 794.5 c 128,-1,43
 1162 747 1162 747 1154 602 c 128,-1,44
 1146 457 1146 457 1065.5 267.5 c 128,-1,45
 985 78 985 78 849 15 c 2,46,-1
 822 2 l 2,47,48
 795 -12 795 -12 753 -27 c 1,49,-1
 678 -42 l 1,50,-1
 526 -20 l 1,51,-1
 388 19 l 2,52,53
 342 36 342 36 275 75.5 c 128,-1,54
 208 115 208 115 168.5 168.5 c 128,-1,55
 129 222 129 222 100.5 303.5 c 128,-1,56
 72 385 72 385 66 433 c 2,27,-1
943 1073 m 0,57,58
 943 1076 943 1076 931 1101 c 128,-1,59
 919 1126 919 1126 889.5 1164 c 128,-1,60
 860 1202 860 1202 802.5 1233.5 c 128,-1,61
 745 1265 745 1265 721.5 1270.5 c 128,-1,62
 698 1276 698 1276 623 1276 c 128,-1,63
 548 1276 548 1276 499.5 1257.5 c 128,-1,64
 451 1239 451 1239 432 1229 c 1,65,66
 378 1167 378 1167 337 1083 c 0,67,68
 258 921 258 921 258 563 c 0,69,70
 258 434 258 434 268 279 c 1,71,72
 311 206 311 206 377.5 171.5 c 128,-1,73
 444 137 444 137 535 119.5 c 128,-1,74
 626 102 626 102 656 102 c 1,75,-1
 702 109 l 1,76,77
 761 128 761 128 808 158 c 1,78,79
 845 207 845 207 874 269 c 0,80,81
 953 431 953 431 953 789 c 0,82,83
 953 918 953 918 943 1073 c 0,57,58
EndSplineSet
EndChar

StartChar: P
Encoding: 80 80 52
Width: 1072
Flags: W
LayerCount: 2
Fore
SplineSet
146 1152 m 1,0,-1
 143 1151 l 1,1,-1
 108 1147 l 2,2,3
 85 1147 85 1147 53.5 1161 c 128,-1,4
 22 1175 22 1175 22 1208 c 0,5,6
 22 1272 22 1272 134 1308 c 0,7,8
 196 1328 196 1328 246 1328 c 128,-1,9
 296 1328 296 1328 327.5 1337 c 128,-1,10
 359 1346 359 1346 416 1346 c 128,-1,11
 473 1346 473 1346 615 1325 c 128,-1,12
 757 1304 757 1304 845 1257.5 c 128,-1,13
 933 1211 933 1211 973.5 1131 c 128,-1,14
 1014 1051 1014 1051 1017 1014 c 128,-1,15
 1020 977 1020 977 1020 942 c 128,-1,16
 1020 907 1020 907 995.5 762.5 c 128,-1,17
 971 618 971 618 905 522.5 c 128,-1,18
 839 427 839 427 819.5 409 c 128,-1,19
 800 391 800 391 715.5 363.5 c 128,-1,20
 631 336 631 336 569.5 336 c 128,-1,21
 508 336 508 336 456.5 350 c 128,-1,22
 405 364 405 364 381 364 c 128,-1,23
 357 364 357 364 350 363 c 1,24,25
 343 248 343 248 335 133 c 1,26,27
 339 131 339 131 361.5 119 c 128,-1,28
 384 107 384 107 393 88 c 128,-1,29
 402 69 402 69 402 54.5 c 128,-1,30
 402 40 402 40 380.5 28 c 128,-1,31
 359 16 359 16 273 2 c 128,-1,32
 187 -12 187 -12 132 -12 c 128,-1,33
 77 -12 77 -12 58 21 c 1,34,-1
 57 22 l 1,35,-1
 52 41 l 1,36,37
 52 68 52 68 86 99 c 2,38,-1
 124 131 l 1,39,-1
 148 521 l 2,40,41
 164 725 164 725 164 883.5 c 128,-1,42
 164 1042 164 1042 157 1090.5 c 128,-1,43
 150 1139 150 1139 146 1152 c 1,0,-1
283 161 m 2,44,45
 287 151 287 151 289 150 c 1,46,47
 293 252 293 252 297 354 c 1,48,-1
 279 346 l 1,49,-1
 283 161 l 2,44,45
356 475 m 1,50,51
 370 471 370 471 423 458.5 c 128,-1,52
 476 446 476 446 516 444 c 128,-1,53
 556 442 556 442 592 442 c 128,-1,54
 628 442 628 442 654 458 c 2,55,-1
 665 464 l 1,56,57
 665 464 665 464 665 465 c 256,58,59
 665 466 665 466 666 466 c 0,60,61
 804 685 804 685 804 900 c 0,62,63
 804 1034 804 1034 750 1167 c 1,64,65
 723 1178 723 1178 671 1193 c 128,-1,66
 619 1208 619 1208 467 1212 c 2,67,-1
 388 1213 l 1,68,69
 376 842 376 842 356 475 c 1,50,51
343 1214 m 1,70,71
 335 1214 335 1214 326 1214 c 1,72,-1
 302 489 l 1,73,-1
 303 489 l 1,74,75
 320 853 320 853 343 1214 c 1,70,71
864 950 m 2,76,-1
 864 1102 l 1,77,-1
 799 1144 l 1,78,79
 847 1023 847 1023 847 898 c 0,80,81
 847 728 847 728 758 553 c 1,82,83
 763 560 763 560 792 604.5 c 128,-1,84
 821 649 821 649 842.5 722.5 c 128,-1,85
 864 796 864 796 864 950 c 2,76,-1
EndSplineSet
EndChar

StartChar: Q
Encoding: 81 81 53
Width: 1180
Flags: W
LayerCount: 2
Fore
SplineSet
540 154 m 2,0,-1
 540 170 l 2,1,2
 540 246 540 246 669 246 c 0,3,4
 708 246 708 246 747 222 c 128,-1,5
 786 198 786 198 804 193 c 1,6,7
 829 249 829 249 866 374 c 0,8,9
 903 497 903 497 903 680 c 1,10,-1
 902 684 l 1,11,12
 902 870 902 870 849 1059 c 1,13,14
 811 1098 811 1098 723 1179 c 128,-1,15
 635 1260 635 1260 540 1260 c 0,16,17
 521 1260 521 1260 504 1258 c 1,18,19
 420 1186 420 1186 359 1070 c 0,20,21
 266 891 266 891 266 468 c 0,22,23
 266 374 266 374 269 310.5 c 128,-1,24
 272 247 272 247 281 221 c 1,25,26
 327 168 327 168 398 142 c 128,-1,27
 469 116 469 116 492 116 c 2,28,-1
 519 117 l 1,29,-1
 521 118 l 1,30,31
 540 122 540 122 540 154 c 2,0,-1
1030 -70 m 2,32,33
 1090 -70 1090 -70 1090 -114 c 1,34,-1
 1077 -172 l 1,35,36
 1062 -211 1062 -211 1015 -249.5 c 128,-1,37
 968 -288 968 -288 921.5 -288 c 128,-1,38
 875 -288 875 -288 856 -259.5 c 128,-1,39
 837 -231 837 -231 808.5 -133.5 c 128,-1,40
 780 -36 780 -36 771.5 -27 c 128,-1,41
 763 -18 763 -18 722 -18 c 2,42,-1
 609 -22 l 1,43,44
 426 -22 426 -22 324.5 28.5 c 128,-1,45
 223 79 223 79 186.5 117.5 c 128,-1,46
 150 156 150 156 107 243.5 c 128,-1,47
 64 331 64 331 58 413 c 128,-1,48
 52 495 52 495 52 558.5 c 128,-1,49
 52 622 52 622 75 727 c 128,-1,50
 98 832 98 832 125 948.5 c 128,-1,51
 152 1065 152 1065 207 1198 c 128,-1,52
 262 1331 262 1331 305.5 1357.5 c 128,-1,53
 349 1384 349 1384 449 1384 c 128,-1,54
 549 1384 549 1384 589 1366 c 128,-1,55
 629 1348 629 1348 683 1340 c 128,-1,56
 737 1332 737 1332 799.5 1284 c 128,-1,57
 862 1236 862 1236 870.5 1232.5 c 128,-1,58
 879 1229 879 1229 883 1227 c 128,-1,59
 887 1225 887 1225 892.5 1220.5 c 128,-1,60
 898 1216 898 1216 902.5 1211.5 c 128,-1,61
 907 1207 907 1207 915 1198 c 0,62,63
 922 1188 922 1188 928 1182 c 2,64,-1
 963 1141 l 1,65,66
 1109 961 1109 961 1124 773 c 1,67,-1
 1116 569 l 1,68,69
 1104 410 1104 410 1079.5 348 c 128,-1,70
 1055 286 1055 286 1003 193.5 c 128,-1,71
 951 101 951 101 941.5 91 c 128,-1,72
 932 81 932 81 932 51 c 2,73,-1
 941 -70 l 1,74,-1
 1030 -70 l 2,32,33
196 579 m 128,-1,76
 196 539 196 539 202 453.5 c 128,-1,77
 208 368 208 368 213 345 c 128,-1,78
 218 322 218 322 229 298 c 1,79,80
 225 391 225 391 225 474 c 0,81,82
 225 936 225 936 334 1094 c 0,83,84
 389 1174 389 1174 465 1250 c 1,85,86
 422 1238 422 1238 380 1198 c 128,-1,87
 338 1158 338 1158 313.5 1095.5 c 128,-1,88
 289 1033 289 1033 248.5 867.5 c 128,-1,89
 208 702 208 702 202 660.5 c 128,-1,75
 196 619 196 619 196 579 c 128,-1,76
903 990 m 1,90,91
 937 812 937 812 937 635.5 c 128,-1,92
 937 459 937 459 898 352 c 128,-1,93
 859 245 859 245 832 190 c 1,94,95
 842 192 842 192 856 200 c 128,-1,96
 870 208 870 208 903 292 c 128,-1,97
 936 376 936 376 960 531 c 1,98,-1
 980 724 l 1,99,100
 966 887 966 887 903 990 c 1,90,91
EndSplineSet
EndChar

StartChar: R
Encoding: 82 82 54
Width: 1096
Flags: W
LayerCount: 2
Fore
SplineSet
745 566 m 1,0,1
 769 591 769 591 788 618 c 0,2,3
 888 775 888 775 888 1002 c 0,4,5
 886 1077 886 1077 853 1114.5 c 128,-1,6
 820 1152 820 1152 802 1166 c 1,7,8
 857 1045 857 1045 857 922 c 0,9,10
 857 746 857 746 745 566 c 1,0,1
324 206 m 2,11,-1
 326 187 l 1,12,-1
 328 169 l 1,13,-1
 329 167 l 1,14,-1
 347 153 l 1,15,16
 348 210 348 210 349 268 c 1,17,18
 341 262 341 262 332.5 246.5 c 128,-1,19
 324 231 324 231 324 206 c 2,11,-1
372 1149 m 1,20,21
 365 1138 365 1138 358 1103.5 c 128,-1,22
 351 1069 351 1069 351 838.5 c 128,-1,23
 351 608 351 608 353 527 c 1,24,25
 360 839 360 839 372 1149 c 1,20,21
725 1188 m 1,26,27
 709 1190 709 1190 658 1195 c 128,-1,28
 607 1200 607 1200 533 1200 c 128,-1,29
 459 1200 459 1200 437 1189 c 1,30,-1
 435 1189 l 1,31,-1
 420 1184 l 1,32,33
 416 782 416 782 403 386 c 1,34,35
 406 386 406 386 428.5 386 c 128,-1,36
 451 386 451 386 522 421.5 c 128,-1,37
 593 457 593 457 599 460 c 0,38,39
 788 695 788 695 788 924 c 0,40,41
 788 1057 788 1057 725 1188 c 1,26,27
677 24 m 1,42,-1
 679 32 l 1,43,-1
 679 33 l 1,44,-1
 700 117 l 1,45,-1
 700 122 l 2,46,47
 700 154 700 154 613 221 c 128,-1,48
 526 288 526 288 510 293 c 128,-1,49
 494 298 494 298 476 298 c 2,50,-1
 400 290 l 1,51,52
 397 206 397 206 394 122 c 1,53,-1
 444 79 l 2,54,55
 462 59 462 59 462 45 c 2,56,-1
 449 0 l 1,57,58
 432 -36 432 -36 424 -36 c 0,59,60
 423 -36 423 -36 422 -36 c 0,61,62
 410 -29 410 -29 381 -6 c 1,63,-1
 373 -6 l 1,64,-1
 322 0 l 2,65,66
 290 0 290 0 265 -16 c 128,-1,67
 240 -32 240 -32 212 -32 c 2,68,-1
 186 -32 l 2,69,70
 151 -32 151 -32 129.5 -16 c 128,-1,71
 108 0 108 0 106 30 c 2,72,-1
 106 34 l 1,73,-1
 110 53 l 2,74,75
 113 74 113 74 143 98 c 0,76,77
 172 122 172 122 182 205 c 0,78,79
 190 277 190 277 191 469 c 0,80,81
 190 498 190 498 190 532 c 0,82,83
 188 776 188 776 186 870.5 c 128,-1,84
 184 965 184 965 180.5 1011.5 c 128,-1,85
 177 1058 177 1058 169 1072 c 0,86,87
 162 1086 162 1086 154 1086 c 1,88,-1
 153 1087 l 1,89,90
 145 1087 145 1087 129 1074 c 0,91,92
 112 1061 112 1061 98.5 1061 c 128,-1,93
 85 1061 85 1061 59.5 1085 c 128,-1,94
 34 1109 34 1109 34 1140 c 128,-1,95
 34 1171 34 1171 55 1201 c 128,-1,96
 76 1231 76 1231 117 1250.5 c 128,-1,97
 158 1270 158 1270 263 1300 c 2,98,-1
 403 1336 l 2,99,100
 420 1340 420 1340 521.5 1340 c 128,-1,101
 623 1340 623 1340 740.5 1321 c 128,-1,102
 858 1302 858 1302 898.5 1277 c 128,-1,103
 939 1252 939 1252 987.5 1168 c 128,-1,104
 1036 1084 1036 1084 1036 991.5 c 128,-1,105
 1036 899 1036 899 1003.5 754.5 c 128,-1,106
 971 610 971 610 914 530 c 1,107,-1
 913 529 l 1,108,109
 875 483 875 483 794 431.5 c 128,-1,110
 713 380 713 380 702 364 c 1,111,112
 706 350 706 350 746 301.5 c 128,-1,113
 786 253 786 253 814 235 c 128,-1,114
 842 217 842 217 889.5 155 c 128,-1,115
 937 93 937 93 975.5 85 c 128,-1,116
 1014 77 1014 77 1022 64 c 128,-1,117
 1030 51 1030 51 1030 9 c 128,-1,118
 1030 -33 1030 -33 1023.5 -43.5 c 128,-1,119
 1017 -54 1017 -54 1006 -56 c 128,-1,120
 995 -58 995 -58 966.5 -58 c 128,-1,121
 938 -58 938 -58 898 -44 c 128,-1,122
 858 -30 858 -30 767.5 -30 c 128,-1,123
 677 -30 677 -30 677 22 c 2,124,-1
 677 24 l 1,42,-1
EndSplineSet
EndChar

StartChar: S
Encoding: 83 83 55
Width: 1118
Flags: W
LayerCount: 2
Fore
SplineSet
855 1350 m 1,0,-1
 946 1358 l 1,1,2
 1026 1358 1026 1358 1026 1307.5 c 128,-1,3
 1026 1257 1026 1257 969 1165 c 128,-1,4
 912 1073 912 1073 880 1041.5 c 128,-1,5
 848 1010 848 1010 821.5 1010 c 128,-1,6
 795 1010 795 1010 781.5 1023.5 c 128,-1,7
 768 1037 768 1037 768 1068 c 128,-1,8
 768 1099 768 1099 771 1126 c 128,-1,9
 774 1153 774 1153 774 1162 c 2,10,-1
 773 1176 l 1,11,-1
 773 1177 l 2,12,13
 770 1188 770 1188 736 1209 c 128,-1,14
 702 1230 702 1230 593 1230 c 128,-1,15
 484 1230 484 1230 470 1227 c 128,-1,16
 456 1224 456 1224 453 1223 c 0,17,18
 288 1106 288 1106 288 967 c 0,19,20
 288 889 288 889 340 804 c 1,21,22
 407 782 407 782 572 769.5 c 128,-1,23
 737 757 737 757 794 735 c 0,24,25
 923 688 923 688 1005 525 c 0,26,27
 1046 441 1046 441 1050 402 c 128,-1,28
 1054 363 1054 363 1054 327.5 c 128,-1,29
 1054 292 1054 292 1028.5 221.5 c 128,-1,30
 1003 151 1003 151 940 79.5 c 128,-1,31
 877 8 877 8 838.5 -6 c 128,-1,32
 800 -20 800 -20 674 -20 c 128,-1,33
 548 -20 548 -20 419.5 18 c 128,-1,34
 291 56 291 56 229 56 c 1,35,-1
 115 46 l 1,36,-1
 114 46 l 2,37,38
 83 46 83 46 65.5 63.5 c 128,-1,39
 48 81 48 81 48 112 c 2,40,-1
 48 116 l 2,41,42
 48 155 48 155 77 213 c 1,43,-1
 78 214 l 1,44,45
 114 271 114 271 134 282 c 2,46,-1
 137 284 l 1,47,-1
 139 284 l 1,48,-1
 143 286 l 1,49,-1
 146 286 l 2,50,51
 174 286 174 286 238 235.5 c 128,-1,52
 302 185 302 185 436 155.5 c 128,-1,53
 570 126 570 126 622 121 c 1,54,55
 859 212 859 212 859 394 c 0,56,57
 859 471 859 471 817 564 c 1,58,59
 799 580 799 580 760.5 598.5 c 128,-1,60
 722 617 722 617 679.5 623.5 c 128,-1,61
 637 630 637 630 501.5 632 c 128,-1,62
 366 634 366 634 329 642 c 0,63,64
 237 661 237 661 148 798 c 1,65,-1
 103 891 l 2,66,67
 94 918 94 918 94 997 c 128,-1,68
 94 1076 94 1076 118 1131 c 128,-1,69
 142 1186 142 1186 200.5 1245 c 128,-1,70
 259 1304 259 1304 277 1314 c 1,71,-1
 322 1324 l 1,72,-1
 330 1322 l 1,73,-1
 340 1322 l 1,74,-1
 470 1376 l 2,75,76
 522 1394 522 1394 586 1394 c 128,-1,77
 650 1394 650 1394 729.5 1372 c 128,-1,78
 809 1350 809 1350 855 1350 c 1,0,-1
688 122 m 1,79,80
 709 124 709 124 738.5 129.5 c 128,-1,81
 768 135 768 135 836 207 c 128,-1,82
 904 279 904 279 904 326 c 128,-1,83
 904 373 904 373 888 423 c 1,84,85
 890 406 890 406 890 390 c 0,86,87
 890 221 890 221 688 122 c 1,79,80
252.5 1038 m 128,-1,89
 246 1016 246 1016 246 939 c 128,-1,90
 246 862 246 862 295 826 c 1,91,92
 257 898 257 898 257 966 c 0,93,94
 257 1064 257 1064 335 1153 c 1,95,96
 308 1130 308 1130 283.5 1095 c 128,-1,88
 259 1060 259 1060 252.5 1038 c 128,-1,89
EndSplineSet
EndChar

StartChar: T
Encoding: 84 84 56
Width: 1284
Flags: W
LayerCount: 2
Fore
SplineSet
713 145 m 1,0,1
 714 663 714 663 730 1174 c 1,2,3
 718 1162 718 1162 709 1130 c 128,-1,4
 700 1098 700 1098 694 565 c 2,5,-1
 688 152 l 1,6,-1
 713 145 l 1,0,1
547 262 m 2,7,-1
 532 495 l 1,8,-1
 541 1031 l 1,9,-1
 539 1090 l 1,10,-1
 555 1174 l 1,11,-1
 252 1159 l 1,12,13
 213 1150 213 1150 200 1133.5 c 128,-1,14
 187 1117 187 1117 177 1053.5 c 128,-1,15
 167 990 167 990 154 970 c 1,16,-1
 153 969 l 2,17,18
 135 949 135 949 112 949 c 2,19,-1
 107 949 l 2,20,21
 79 952 79 952 55.5 985 c 128,-1,22
 32 1018 32 1018 32 1131 c 128,-1,23
 32 1244 32 1244 45 1272 c 1,24,-1
 45 1273 l 1,25,-1
 67 1309 l 1,26,-1
 297 1309 l 2,27,28
 456 1309 456 1309 609.5 1319 c 128,-1,29
 763 1329 763 1329 778 1337.5 c 128,-1,30
 793 1346 793 1346 813 1348 c 2,31,-1
 877 1350 l 1,32,-1
 1197 1345 l 2,33,34
 1226 1342 1226 1342 1240 1329.5 c 128,-1,35
 1254 1317 1254 1317 1254 1280 c 0,36,37
 1254 1082 1254 1082 1179 1028 c 0,38,39
 1162 1016 1162 1016 1145.5 1016 c 128,-1,40
 1129 1016 1129 1016 1110.5 1034.5 c 128,-1,41
 1092 1053 1092 1053 1092 1092 c 2,42,-1
 1088 1195 l 2,43,44
 1085 1206 1085 1206 1081 1209.5 c 128,-1,45
 1077 1213 1077 1213 1067 1214 c 1,46,-1
 1063 1212 l 1,47,-1
 874 1194 l 1,48,49
 805 1194 805 1194 776 1191 c 1,50,51
 776 657 776 657 760 132 c 1,52,-1
 776 128 l 1,53,54
 812 110 812 110 829 84 c 1,55,-1
 845 39 l 1,56,57
 845 24 845 24 836 16 c 128,-1,58
 827 8 827 8 810 4 c 0,59,60
 695 -1 695 -1 605 -1 c 0,61,62
 535 -1 535 -1 479 2 c 1,63,64
 465 8 465 8 452 19 c 2,65,-1
 423 55 l 1,66,-1
 423 60 l 1,67,-1
 436 95 l 1,68,-1
 437 96 l 1,69,70
 454 123 454 123 486 136 c 128,-1,71
 518 149 518 149 525.5 158.5 c 128,-1,72
 533 168 533 168 540 200 c 128,-1,73
 547 232 547 232 547 262 c 2,7,-1
EndSplineSet
EndChar

StartChar: U
Encoding: 85 85 57
Width: 1234
Flags: W
LayerCount: 2
Fore
SplineSet
917 1176 m 1,0,-1
 897 1173 l 1,1,-1
 896 1173 l 2,2,3
 858 1173 858 1173 835.5 1189.5 c 128,-1,4
 813 1206 813 1206 811 1237 c 2,5,-1
 811 1238 l 1,6,-1
 811 1244 l 2,7,8
 811 1304 811 1304 892 1314 c 128,-1,9
 973 1324 973 1324 1012.5 1340 c 128,-1,10
 1052 1356 1052 1356 1069.5 1356 c 128,-1,11
 1087 1356 1087 1356 1128.5 1335 c 128,-1,12
 1170 1314 1170 1314 1182 1300 c 1,13,-1
 1196 1254 l 1,14,-1
 1191 1210 l 1,15,16
 1184 1193 1184 1193 1155 1187 c 0,17,18
 1127 1181 1127 1181 1127 1148 c 0,19,20
 1127 1147 1127 1147 1127 1146 c 0,21,22
 1128 1110 1128 1110 1129 1098 c 0,23,24
 1129 1092 1129 1092 1129.5 1074 c 128,-1,25
 1130 1056 1130 1056 1129 1026 c 0,26,27
 1128 966 1128 966 1094 726.5 c 128,-1,28
 1060 487 1060 487 1030.5 381 c 128,-1,29
 1001 275 1001 275 982.5 234.5 c 128,-1,30
 964 194 964 194 903 121 c 128,-1,31
 842 48 842 48 783.5 12 c 128,-1,32
 725 -24 725 -24 650 -24 c 128,-1,33
 575 -24 575 -24 470.5 -1.5 c 128,-1,34
 366 21 366 21 345.5 44.5 c 128,-1,35
 325 68 325 68 280 103 c 128,-1,36
 235 138 235 138 203 194.5 c 128,-1,37
 171 251 171 251 156.5 301.5 c 128,-1,38
 142 352 142 352 135 433 c 128,-1,39
 128 514 128 514 128 585.5 c 128,-1,40
 128 657 128 657 142 787 c 1,41,-1
 156 997 l 1,42,43
 152 1044 152 1044 147 1085 c 128,-1,44
 142 1126 142 1126 136.5 1136 c 128,-1,45
 131 1146 131 1146 99 1162 c 128,-1,46
 67 1178 67 1178 57.5 1197 c 128,-1,47
 48 1216 48 1216 45 1228 c 1,48,-1
 42 1228 l 1,49,-1
 52 1267 l 1,50,51
 63 1287 63 1287 93.5 1297.5 c 128,-1,52
 124 1308 124 1308 153.5 1316 c 128,-1,53
 183 1324 183 1324 222 1330 c 2,54,-1
 334 1350 l 1,55,-1
 339 1350 l 1,56,-1
 341 1348 l 1,57,58
 360 1346 360 1346 386 1322 c 128,-1,59
 412 1298 412 1298 417 1259 c 2,60,-1
 419 1240 l 1,61,-1
 413 1208 l 1,62,-1
 371 1192 l 1,63,64
 360 727 360 727 331 269 c 1,65,66
 348 244 348 244 370 220 c 0,67,68
 462 118 462 118 605.5 118 c 128,-1,69
 749 118 749 118 841 292 c 1,70,71
 871 737 871 737 917 1176 c 1,0,-1
909 478 m 1,72,73
 937 582 937 582 960.5 731 c 128,-1,74
 984 880 984 880 984 959 c 1,75,-1
 971 1182 l 2,76,77
 968 1182 968 1182 964 1181 c 0,78,79
 942 827 942 827 909 478 c 1,72,73
321 1176 m 1,80,81
 316 1172 316 1172 309 1157.5 c 128,-1,82
 302 1143 302 1143 296 1079 c 128,-1,83
 290 1015 290 1015 284 954 c 0,84,85
 279 902 279 902 279 869 c 0,86,87
 279 863 279 863 279 858 c 0,88,89
 280 823 280 823 281 800 c 0,90,91
 281 788 281 788 281.5 772 c 128,-1,92
 282 756 282 756 281 734 c 0,93,94
 280 692 280 692 273 603 c 128,-1,95
 266 514 266 514 266 483 c 2,96,-1
 268 441 l 2,97,98
 272 397 272 397 287 355 c 1,99,100
 297 768 297 768 321 1176 c 1,80,81
EndSplineSet
EndChar

StartChar: V
Encoding: 86 86 58
Width: 1282
Flags: W
LayerCount: 2
Fore
SplineSet
372 1221 m 1,0,1
 367 1215 367 1215 361 1210 c 1,2,-1
 376 1134 l 2,3,4
 391 1057 391 1057 435.5 935.5 c 128,-1,5
 480 814 480 814 503.5 729 c 128,-1,6
 527 644 527 644 591.5 509.5 c 128,-1,7
 656 375 656 375 680 331 c 1,8,9
 519 776 519 776 372 1221 c 1,0,1
60 1280 m 2,10,11
 86 1317 86 1317 162 1340.5 c 128,-1,12
 238 1364 238 1364 347.5 1364 c 128,-1,13
 457 1364 457 1364 457 1293 c 0,14,15
 457 1290 457 1290 412 1255 c 1,16,17
 590 771 590 771 749 290 c 1,18,19
 776 362 776 362 841 599.5 c 128,-1,20
 906 837 906 837 940 952.5 c 128,-1,21
 974 1068 974 1068 989 1205.5 c 128,-1,22
 1004 1343 1004 1343 1025 1366.5 c 128,-1,23
 1046 1390 1046 1390 1109 1390 c 128,-1,24
 1172 1390 1172 1390 1214.5 1352 c 128,-1,25
 1257 1314 1257 1314 1257 1289 c 128,-1,26
 1257 1264 1257 1264 1216.5 1246.5 c 128,-1,27
 1176 1229 1176 1229 1167 1215.5 c 128,-1,28
 1158 1202 1158 1202 1147.5 1169.5 c 128,-1,29
 1137 1137 1137 1137 1088 993 c 128,-1,30
 1039 849 1039 849 1032 825.5 c 128,-1,31
 1025 802 1025 802 1017 768.5 c 128,-1,32
 1009 735 1009 735 995 678 c 128,-1,33
 981 621 981 621 963.5 555.5 c 128,-1,34
 946 490 946 490 924.5 416 c 128,-1,35
 903 342 903 342 867.5 241.5 c 128,-1,36
 832 141 832 141 832 82 c 2,37,-1
 832 76 l 2,38,39
 832 12 832 12 803 -13.5 c 128,-1,40
 774 -39 774 -39 766 -45 c 128,-1,41
 758 -51 758 -51 748.5 -56.5 c 128,-1,42
 739 -62 739 -62 728 -62 c 128,-1,43
 717 -62 717 -62 689.5 -47.5 c 128,-1,44
 662 -33 662 -33 631.5 47 c 128,-1,45
 601 127 601 127 537 273 c 128,-1,46
 473 419 473 419 455.5 453.5 c 128,-1,47
 438 488 438 488 414 557 c 128,-1,48
 390 626 390 626 365 672 c 128,-1,49
 340 718 340 718 317.5 797 c 128,-1,50
 295 876 295 876 254.5 955 c 128,-1,51
 214 1034 214 1034 204.5 1093 c 128,-1,52
 195 1152 195 1152 188 1162 c 0,53,54
 180 1168 180 1168 136 1171.5 c 128,-1,55
 92 1175 92 1175 65 1202 c 2,56,-1
 30 1239 l 1,57,-1
 60 1280 l 2,10,11
EndSplineSet
EndChar

StartChar: W
Encoding: 87 87 59
Width: 1578
Flags: W
LayerCount: 2
Fore
SplineSet
20 1251 m 0,0,1
 20 1332 20 1332 222 1332 c 0,2,3
 280 1332 280 1332 307 1329 c 128,-1,4
 334 1326 334 1326 344 1311 c 128,-1,5
 354 1296 354 1296 354 1263 c 1,6,-1
 346 1204 l 1,7,8
 341 1197 341 1197 331 1191 c 1,9,10
 522 722 522 722 689 254 c 1,11,12
 689 255 689 255 711.5 298.5 c 128,-1,13
 734 342 734 342 740.5 372 c 128,-1,14
 747 402 747 402 747 475 c 128,-1,15
 747 548 747 548 757 573.5 c 128,-1,16
 767 599 767 599 805 608.5 c 128,-1,17
 843 618 843 618 873.5 632 c 128,-1,18
 904 646 904 646 918 648 c 1,19,-1
 920 650 l 1,20,-1
 925 650 l 2,21,22
 942 650 942 650 960.5 635 c 128,-1,23
 979 620 979 620 979 582 c 2,24,-1
 970 453 l 1,25,26
 1028 392 1028 392 1028 367.5 c 128,-1,27
 1028 343 1028 343 1015 333 c 1,28,-1
 1054 299 l 1,29,30
 1161 766 1161 766 1285 1223 c 1,31,32
 1281 1225 1281 1225 1256.5 1233.5 c 128,-1,33
 1232 1242 1232 1242 1232 1253 c 2,34,-1
 1235 1274 l 2,35,36
 1240 1298 1240 1298 1299 1304 c 2,37,-1
 1450 1320 l 2,38,39
 1453 1320 1453 1320 1456 1320 c 2,40,-1
 1510 1302 l 1,41,42
 1540 1282 1540 1282 1540 1250 c 128,-1,43
 1540 1218 1540 1218 1490.5 1077 c 128,-1,44
 1441 936 1441 936 1420 899 c 128,-1,45
 1399 862 1399 862 1344.5 671.5 c 128,-1,46
 1290 481 1290 481 1268 342 c 128,-1,47
 1246 203 1246 203 1204 114 c 128,-1,48
 1162 25 1162 25 1138 13 c 1,49,-1
 1096 0 l 1,50,51
 1016 22 1016 22 980.5 104.5 c 128,-1,52
 945 187 945 187 915 227.5 c 128,-1,53
 885 268 885 268 862 273 c 1,54,-1
 819 227 l 1,55,56
 798 189 798 189 782.5 131.5 c 128,-1,57
 767 74 767 74 753 49.5 c 128,-1,58
 739 25 739 25 731 14 c 1,59,-1
 711 0 l 1,60,-1
 653 -4 l 1,61,62
 558 -4 558 -4 532.5 32.5 c 128,-1,63
 507 69 507 69 480 148.5 c 128,-1,64
 453 228 453 228 419.5 333 c 128,-1,65
 386 438 386 438 338.5 526.5 c 128,-1,66
 291 615 291 615 270 694.5 c 128,-1,67
 249 774 249 774 224 824 c 128,-1,68
 199 874 199 874 164.5 977.5 c 128,-1,69
 130 1081 130 1081 130 1124 c 128,-1,70
 130 1167 130 1167 75 1190.5 c 128,-1,71
 20 1214 20 1214 20 1251 c 0,0,1
667 214 m 1,72,73
 663 213 663 213 658.5 213 c 128,-1,74
 654 213 654 213 557.5 452.5 c 128,-1,75
 461 692 461 692 291 1168 c 1,76,77
 294 1143 294 1143 344 958.5 c 128,-1,78
 394 774 394 774 461.5 625 c 128,-1,79
 529 476 529 476 578.5 342 c 128,-1,80
 628 208 628 208 645 178 c 1,81,82
 654 189 654 189 667 214 c 1,72,73
1108 312 m 1,83,84
 1121 334 1121 334 1143.5 404.5 c 128,-1,85
 1166 475 1166 475 1175 497.5 c 128,-1,86
 1184 520 1184 520 1239 740 c 128,-1,87
 1294 960 1294 960 1310 1032 c 0,88,89
 1325 1100 1325 1100 1325 1117 c 0,90,91
 1325 1118 1325 1118 1325 1119 c 0,92,93
 1324 1134 1324 1134 1322 1144 c 128,-1,94
 1320 1154 1320 1154 1319 1165 c 1,95,96
 1221 733 1221 733 1108 312 c 1,83,84
EndSplineSet
EndChar

StartChar: X
Encoding: 88 88 60
Width: 1160
Flags: W
LayerCount: 2
Fore
SplineSet
270.5 0 m 128,-1,1
 152 0 152 0 121.5 2.5 c 128,-1,2
 91 5 91 5 74.5 17.5 c 128,-1,3
 58 30 58 30 58 66.5 c 128,-1,4
 58 103 58 103 77 121 c 128,-1,5
 96 139 96 139 125.5 145.5 c 128,-1,6
 155 152 155 152 164.5 163 c 128,-1,7
 174 174 174 174 194 213 c 128,-1,8
 214 252 214 252 252 303 c 128,-1,9
 290 354 290 354 377.5 500 c 128,-1,10
 465 646 465 646 465 672 c 128,-1,11
 465 698 465 698 401.5 799.5 c 128,-1,12
 338 901 338 901 301 967.5 c 128,-1,13
 264 1034 264 1034 226.5 1098.5 c 128,-1,14
 189 1163 189 1163 148.5 1188 c 128,-1,15
 108 1213 108 1213 95 1229 c 128,-1,16
 82 1245 82 1245 82 1274.5 c 128,-1,17
 82 1304 82 1304 101 1320 c 128,-1,18
 120 1336 120 1336 212 1336 c 128,-1,19
 304 1336 304 1336 344 1310.5 c 128,-1,20
 384 1285 384 1285 397.5 1273 c 128,-1,21
 411 1261 411 1261 411 1248 c 2,22,-1
 401 1214 l 1,23,24
 391 1202 391 1202 384 1193 c 128,-1,25
 377 1184 377 1184 377 1172 c 128,-1,26
 377 1160 377 1160 382 1140 c 128,-1,27
 387 1120 387 1120 461.5 975.5 c 128,-1,28
 536 831 536 831 570 809 c 1,29,30
 640 931 640 931 698 1039 c 1,31,-1
 770 1189 l 1,32,-1
 773 1200 l 1,33,34
 773 1224 773 1224 765.5 1246 c 128,-1,35
 758 1268 758 1268 758 1284 c 2,36,-1
 763 1313 l 1,37,-1
 767 1319 l 2,38,39
 771 1325 771 1325 819 1348.5 c 128,-1,40
 867 1372 867 1372 884 1372 c 2,41,-1
 900 1372 l 2,42,43
 1030 1372 1030 1372 1064 1347.5 c 128,-1,44
 1098 1323 1098 1323 1098 1302.5 c 128,-1,45
 1098 1282 1098 1282 1095 1257 c 128,-1,46
 1092 1232 1092 1232 1088 1232 c 0,47,48
 1064 1240 1064 1240 1042 1243 c 1,49,50
 1042 1235 1042 1235 939 1049.5 c 128,-1,51
 836 864 836 864 689 607 c 1,52,53
 709 565 709 565 768 446 c 128,-1,54
 827 327 827 327 868.5 290 c 128,-1,55
 910 253 910 253 932 213 c 128,-1,56
 954 173 954 173 999.5 155.5 c 128,-1,57
 1045 138 1045 138 1071.5 104.5 c 128,-1,58
 1098 71 1098 71 1098 56 c 2,59,-1
 1092 29 l 1,60,61
 1081 12 1081 12 1049 6 c 128,-1,62
 1017 0 1017 0 933 0 c 128,-1,63
 849 0 849 0 826.5 4.5 c 128,-1,64
 804 9 804 9 785.5 24 c 128,-1,65
 767 39 767 39 761 50 c 1,66,-1
 756 50 l 1,67,-1
 756 62 l 2,68,69
 756 76 756 76 771.5 95 c 128,-1,70
 787 114 787 114 787 134 c 2,71,-1
 787 136 l 1,72,73
 779 157 779 157 773 168 c 128,-1,74
 767 179 767 179 612 473 c 1,75,76
 463 215 463 215 390 106 c 1,77,78
 421 94 421 94 429 81 c 2,79,-1
 435 64 l 1,80,-1
 413 25 l 1,81,0
 389 0 389 0 270.5 0 c 128,-1,1
569 517 m 1,82,83
 564 515 564 515 548.5 506 c 128,-1,84
 533 497 533 497 478 402.5 c 128,-1,85
 423 308 423 308 366 231.5 c 128,-1,86
 309 155 309 155 301 137 c 1,87,88
 313 126 313 126 325 123 c 2,89,-1
 345 118 l 1,90,91
 438 289 438 289 569 517 c 1,82,83
939 1212 m 0,92,93
 929 1204 929 1204 884 1128 c 0,94,95
 837 1049 837 1049 784 932 c 128,-1,96
 731 815 731 815 694 755 c 0,97,98
 655 690 655 690 655 690 c 1,99,-1
 659 674 l 1,100,101
 807 927 807 927 996 1241 c 1,102,103
 967 1235 967 1235 939 1212 c 0,92,93
EndSplineSet
EndChar

StartChar: Y
Encoding: 89 89 61
Width: 1308
Flags: W
LayerCount: 2
Fore
SplineSet
757 487.5 m 128,-1,1
 757 382 757 382 764.5 262 c 128,-1,2
 772 142 772 142 773 120 c 1,3,4
 780 119 780 119 787 118 c 1,5,6
 784 248 784 248 784 378 c 128,-1,7
 784 508 784 508 787 637 c 1,8,0
 757 593 757 593 757 487.5 c 128,-1,1
624.5 750 m 128,-1,10
 658 712 658 712 662 712 c 128,-1,11
 666 712 666 712 669.5 711.5 c 128,-1,12
 673 711 673 711 675 713 c 0,13,14
 517 955 517 955 373 1201 c 1,15,16
 383 1114 383 1114 465 1007 c 128,-1,17
 547 900 547 900 569 844 c 128,-1,9
 591 788 591 788 624.5 750 c 128,-1,10
26 1279 m 1,18,19
 26 1321 26 1321 74 1338.5 c 128,-1,20
 122 1356 122 1356 285 1356 c 128,-1,21
 448 1356 448 1356 448 1282 c 0,22,23
 448 1245 448 1245 407 1234 c 1,24,-1
 395 1232 l 1,25,26
 556 986 556 986 701 738 c 1,27,28
 702 739 702 739 754 817 c 1,29,-1
 864 1004 l 1,30,31
 975 1174 975 1174 976 1233 c 1,32,-1
 972 1267 l 1,33,-1
 972 1268 l 2,34,35
 973 1315 973 1315 1003 1339.5 c 128,-1,36
 1033 1364 1033 1364 1111 1364 c 128,-1,37
 1189 1364 1189 1364 1234.5 1322.5 c 128,-1,38
 1280 1281 1280 1281 1280 1262 c 128,-1,39
 1280 1243 1280 1243 1263.5 1235 c 128,-1,40
 1247 1227 1247 1227 1209 1220.5 c 128,-1,41
 1171 1214 1171 1214 1163 1188 c 128,-1,42
 1155 1162 1155 1162 1049 1035.5 c 128,-1,43
 943 909 943 909 892 816.5 c 128,-1,44
 841 724 841 724 818 685 c 1,45,46
 822 684 822 684 824.5 584 c 128,-1,47
 827 484 827 484 827 387 c 128,-1,48
 827 290 827 290 823 110 c 1,49,50
 879 94 879 94 889 72 c 128,-1,51
 899 50 899 50 898.5 20 c 128,-1,52
 898 -10 898 -10 896 -12 c 0,53,54
 793 -11 793 -11 718 -10 c 1,55,-1
 593 -26 l 1,56,57
 548 -26 548 -26 538 -18 c 0,58,59
 533 -14 533 -14 530 -8 c 1,60,61
 509 -8 509 -8 529 -7 c 1,62,63
 526 2 526 2 526 16 c 0,64,65
 526 42 526 42 557 76.5 c 128,-1,66
 588 111 588 111 612 115 c 1,67,-1
 615 204 l 2,68,69
 615 302 615 302 601.5 427.5 c 128,-1,70
 588 553 588 553 581.5 573 c 128,-1,71
 575 593 575 593 543.5 624 c 128,-1,72
 512 655 512 655 474 719.5 c 128,-1,73
 436 784 436 784 434 804.5 c 128,-1,74
 432 825 432 825 328 994.5 c 128,-1,75
 224 1164 224 1164 203 1185 c 1,76,77
 164 1186 164 1186 107 1207 c 0,78,79
 51 1228 51 1228 38 1250 c 2,80,-1
 26 1279 l 1,18,19
728 -9 m 1,81,82
 776 -9 776 -9 836 -10 c 1,83,84
 790 -2 790 -2 782 -2 c 2,85,-1
 728 -9 l 1,81,82
EndSplineSet
EndChar

StartChar: Z
Encoding: 90 90 62
Width: 1124
Flags: W
LayerCount: 2
Fore
SplineSet
609 568 m 1,0,1
 584 566 584 566 528.5 514.5 c 128,-1,2
 473 463 473 463 451 428 c 128,-1,3
 429 393 429 393 390.5 367 c 128,-1,4
 352 341 352 341 307 279.5 c 128,-1,5
 262 218 262 218 249 200 c 1,6,7
 452 379 452 379 609 568 c 1,0,1
936 1072 m 1,8,9
 916 1038 916 1038 842 933.5 c 128,-1,10
 768 829 768 829 732 773.5 c 128,-1,11
 696 718 696 718 696 702 c 128,-1,12
 696 686 696 686 698 681 c 1,13,14
 840 872 840 872 936 1072 c 1,8,9
327 1301 m 2,15,-1
 970 1356 l 1,16,17
 1066 1356 1066 1356 1090 1310 c 0,18,19
 1105 1282 1105 1282 1105 1269 c 2,20,21
 1105 1269 1105 1269 1105 1268 c 0,22,23
 1105 1262 1105 1262 1101 1261 c 2,24,-1
 1071 1249 l 1,25,-1
 1053 1246 l 2,26,27
 1053 1244 1053 1244 1052 1241 c 0,28,29
 927 930 927 930 732 662 c 1,30,31
 764 642 764 642 764 612 c 1,32,-1
 765 612 l 1,33,34
 764 584 764 584 732 576 c 128,-1,35
 700 568 700 568 661 568 c 1,36,37
 474 331 474 331 231 129 c 1,38,39
 245 128 245 128 292.5 128 c 128,-1,40
 340 128 340 128 414 127 c 0,41,42
 415 127 415 127 416 127 c 0,43,44
 419 127 419 127 422 127 c 0,45,46
 495 127 495 127 608 152 c 0,47,48
 728 178 728 178 823.5 189.5 c 128,-1,49
 919 201 919 201 929 206.5 c 128,-1,50
 939 212 939 212 959.5 257 c 128,-1,51
 980 302 980 302 1014 302 c 0,52,53
 1068 302 1068 302 1068 186 c 0,54,55
 1068 159 1068 159 1050.5 85.5 c 128,-1,56
 1033 12 1033 12 1012 -7 c 1,57,-1
 990 -14 l 1,58,59
 968 -14 968 -14 938.5 9.5 c 128,-1,60
 909 33 909 33 891 37 c 2,61,-1
 734 42 l 2,62,63
 675 42 675 42 611 26 c 128,-1,64
 547 10 547 10 396 -6 c 0,65,66
 250 -22 250 -22 186 -22 c 0,67,68
 184 -22 184 -22 182 -22 c 0,69,70
 120 -22 120 -22 91 11.5 c 128,-1,71
 62 45 62 45 62 103 c 128,-1,72
 62 161 62 161 116.5 240.5 c 128,-1,73
 171 320 171 320 283 437 c 2,74,-1
 387 544 l 1,75,-1
 356 574 l 2,76,77
 332 599 332 599 327 608 c 2,78,-1
 323 629 l 2,79,80
 323 641 323 641 330 657 c 128,-1,81
 337 673 337 673 360 683.5 c 128,-1,82
 383 694 383 694 444.5 708 c 128,-1,83
 506 722 506 722 522.5 722 c 128,-1,84
 539 722 539 722 543 723 c 0,85,86
 544 734 544 734 556 750.5 c 128,-1,87
 568 767 568 767 611 815.5 c 128,-1,88
 654 864 654 864 735 1000.5 c 128,-1,89
 816 1137 816 1137 836.5 1158.5 c 128,-1,90
 857 1180 857 1180 862 1188 c 1,91,92
 850 1193 850 1193 810 1202 c 128,-1,93
 770 1211 770 1211 680.5 1211 c 128,-1,94
 591 1211 591 1211 446.5 1175 c 128,-1,95
 302 1139 302 1139 284 1127 c 1,96,97
 262 1087 262 1087 258 1050 c 128,-1,98
 254 1013 254 1013 236 1002 c 128,-1,99
 218 991 218 991 200.5 991 c 128,-1,100
 183 991 183 991 153.5 1022 c 128,-1,101
 124 1053 124 1053 124 1138 c 2,102,-1
 124 1154 l 2,103,104
 124 1247 124 1247 182 1303 c 1,105,-1
 214 1326 l 1,106,-1
 262 1313 l 1,107,108
 285 1301 285 1301 327 1301 c 2,15,-1
EndSplineSet
EndChar

StartChar: bracketleft
Encoding: 91 91 63
Width: 492
Flags: W
LayerCount: 2
Fore
SplineSet
571 -303 m 2,0,-1
 138 -304 l 1,1,-1
 154 228 l 1,2,-1
 150 438 l 1,3,-1
 160 829 l 1,4,5
 174 1081 174 1081 174 1444 c 2,6,-1
 174 1466 l 2,7,8
 174 1531 174 1531 271 1558 c 0,9,10
 313 1570 313 1570 425 1570 c 128,-1,11
 537 1570 537 1570 570.5 1563.5 c 128,-1,12
 604 1557 604 1557 616 1550 c 128,-1,13
 628 1543 628 1543 628 1520 c 2,14,-1
 628 1519 l 1,15,16
 623 1422 623 1422 444 1422 c 0,17,18
 413 1422 413 1422 392 1421 c 1,19,20
 384 600 384 600 355 -206 c 1,21,22
 377 -204 377 -204 419.5 -191 c 128,-1,23
 462 -178 462 -178 518.5 -178 c 128,-1,24
 575 -178 575 -178 600 -204 c 128,-1,25
 625 -230 625 -230 630 -236.5 c 128,-1,26
 635 -243 635 -243 640.5 -252 c 128,-1,27
 646 -261 646 -261 646 -273 c 128,-1,28
 646 -285 646 -285 631 -293.5 c 128,-1,29
 616 -302 616 -302 571 -303 c 2,0,-1
307 -198 m 1,30,31
 317 614 317 614 345 1417 c 1,32,33
 338 1415 338 1415 336 1413 c 2,34,-1
 336 1410 l 1,35,-1
 333 1407 l 1,36,37
 324 1391 324 1391 316.5 1249.5 c 128,-1,38
 309 1108 309 1108 303 825 c 2,39,-1
 292 -190 l 1,40,-1
 307 -198 l 1,30,31
EndSplineSet
EndChar

StartChar: backslash
Encoding: 92 92 64
Width: 768
Flags: W
LayerCount: 2
Fore
SplineSet
73 1472 m 0,0,1
 66 1486 66 1486 83 1495 c 0,2,3
 101 1504 101 1504 109 1491 c 0,4,5
 520 718 520 718 904 -51 c 0,6,7
 910 -63 910 -63 893 -72 c 0,8,9
 875 -81 875 -81 868 -69 c 0,10,11
 460 702 460 702 73 1472 c 0,0,1
177 1239 m 1,12,13
 343 877 343 877 481 619 c 128,-1,14
 619 361 619 361 720 166 c 0,15,16
 822 -29 822 -29 829 -47 c 128,-1,17
 836 -65 836 -65 836 -82 c 0,18,19
 836 -98 836 -98 822 -123 c 128,-1,20
 808 -148 808 -148 782 -148 c 0,21,22
 757 -148 757 -148 736 -131 c 0,23,24
 714 -114 714 -114 689 -63 c 0,25,26
 663 -12 663 -12 531 234 c 0,27,28
 399 479 399 479 227 824 c 0,29,30
 55 1170 55 1170 -12 1268 c 0,31,32
 -80 1366 -80 1366 -80 1410 c 128,-1,33
 -80 1454 -80 1454 -70 1469 c 2,34,-1
 -69 1470 l 2,35,36
 -56 1485 -56 1485 -30 1490 c 2,37,-1
 10 1497 l 1,38,-1
 177 1240 l 1,39,-1
 177 1239 l 1,12,13
EndSplineSet
EndChar

StartChar: bracketright
Encoding: 93 93 65
Width: 456
Flags: W
LayerCount: 2
Fore
SplineSet
168 1168 m 128,-1,1
 168 1362 168 1362 149 1425 c 0,2,3
 146 1427 146 1427 140 1428 c 1,4,5
 144 1033 144 1033 144 641.5 c 128,-1,6
 144 250 144 250 140 -138 c 1,7,-1
 141 -138 l 1,8,-1
 176 392 l 1,9,-1
 162 772 l 1,10,0
 168 974 168 974 168 1168 c 128,-1,1
90 -138 m 2,11,-1
 98 -138 l 1,12,13
 94 258 94 258 94 651 c 128,-1,14
 94 1044 94 1044 98 1435 c 1,15,16
 84 1436 84 1436 30 1439 c 128,-1,17
 -24 1442 -24 1442 -43.5 1446.5 c 128,-1,18
 -63 1451 -63 1451 -92 1475 c 2,19,-1
 -135 1510 l 1,20,-1
 -92 1547 l 2,21,22
 -64 1571 -64 1571 -40 1577.5 c 128,-1,23
 -16 1584 -16 1584 98 1589 c 2,24,-1
 260 1594 l 2,25,26
 310 1594 310 1594 319 1550 c 1,27,-1
 328 1460 l 1,28,-1
 302 934 l 1,29,-1
 314 414 l 1,30,31
 312 301 312 301 296 136 c 128,-1,32
 280 -29 280 -29 280 -72.5 c 128,-1,33
 280 -116 280 -116 288 -133 c 2,34,-1
 309 -186 l 1,35,-1
 274 -266 l 1,36,-1
 78 -270 l 2,37,38
 -4 -270 -4 -270 -47 -256.5 c 128,-1,39
 -90 -243 -90 -243 -90 -210 c 1,40,-1
 -87 -197 l 1,41,-1
 -50 -114 l 2,42,43
 -50 -115 -50 -115 -80 -187 c 1,44,-1
 -79 -186 l 2,45,46
 -33 -138 -33 -138 90 -138 c 2,11,-1
EndSplineSet
EndChar

StartChar: asciicircum
Encoding: 94 94 66
Width: 890
Flags: W
LayerCount: 2
Fore
SplineSet
431 947 m 1,0,1
 395 931 395 931 362 853 c 128,-1,2
 329 775 329 775 268 747.5 c 128,-1,3
 207 720 207 720 178 720 c 128,-1,4
 149 720 149 720 137.5 734 c 128,-1,5
 126 748 126 748 126 781.5 c 128,-1,6
 126 815 126 815 208 945.5 c 128,-1,7
 290 1076 290 1076 331.5 1145.5 c 128,-1,8
 373 1215 373 1215 392 1226.5 c 128,-1,9
 411 1238 411 1238 478 1238 c 128,-1,10
 545 1238 545 1238 562.5 1228.5 c 128,-1,11
 580 1219 580 1219 580 1185 c 128,-1,12
 580 1151 580 1151 613 1081.5 c 128,-1,13
 646 1012 646 1012 694.5 952.5 c 128,-1,14
 743 893 743 893 751.5 849 c 128,-1,15
 760 805 760 805 760 792 c 128,-1,16
 760 779 760 779 753.5 767.5 c 128,-1,17
 747 756 747 756 714 756 c 128,-1,18
 681 756 681 756 627.5 803.5 c 128,-1,19
 574 851 574 851 523.5 901.5 c 128,-1,20
 473 952 473 952 456 952 c 2,21,-1
 432 948 l 1,22,-1
 431 947 l 1,0,1
EndSplineSet
EndChar

StartChar: underscore
Encoding: 95 95 67
Width: 924
Flags: W
LayerCount: 2
Fore
SplineSet
159 -164 m 2,0,1
 225 -168 225 -168 543 -168 c 128,-1,2
 861 -168 861 -168 903.5 -175.5 c 128,-1,3
 946 -183 946 -183 955 -192 c 128,-1,4
 964 -201 964 -201 964 -241.5 c 128,-1,5
 964 -282 964 -282 935.5 -295 c 128,-1,6
 907 -308 907 -308 648 -310 c 2,7,-1
 514 -310 l 1,8,-1
 246 -316 l 1,9,-1
 246 -303 l 1,10,-1
 235 -309 l 1,11,12
 199 -307 199 -307 111 -303 c 2,13,-1
 -4 -293 l 1,14,-1
 -30 -266 l 2,15,16
 -50 -246 -50 -246 -48 -227 c 0,17,18
 -47 -158 -47 -158 56 -156 c 1,19,-1
 159 -164 l 2,0,1
EndSplineSet
EndChar

StartChar: grave
Encoding: 96 96 68
Width: 530
Flags: W
LayerCount: 2
Fore
SplineSet
470 972 m 2,0,1
 470 960 470 960 461 955 c 2,2,-1
 435 952 l 1,3,-1
 425 950 l 1,4,-1
 420 950 l 2,5,6
 392 950 392 950 356 980.5 c 128,-1,7
 320 1011 320 1011 271 1073 c 1,8,-1
 268 1076 l 1,9,-1
 268 1079 l 1,10,11
 261 1094 261 1094 203.5 1178 c 128,-1,12
 146 1262 146 1262 144 1305 c 2,13,-1
 144 1306 l 1,14,-1
 144 1316 l 2,15,16
 144 1393 144 1393 259 1406 c 2,17,-1
 277 1408 l 1,18,-1
 282 1408 l 2,19,20
 330 1408 330 1408 359 1336 c 0,21,22
 367 1313 367 1313 385.5 1211.5 c 128,-1,23
 404 1110 404 1110 433 1054.5 c 128,-1,24
 462 999 462 999 465 982 c 1,25,-1
 470 977 l 1,26,-1
 470 972 l 2,0,1
EndSplineSet
EndChar

StartChar: a
Encoding: 97 97 69
Width: 856
Flags: W
LayerCount: 2
Fore
SplineSet
625 564 m 0,0,1
 632 574 632 574 632 619 c 128,-1,2
 632 664 632 664 611 690 c 1,3,4
 605 624 605 624 602 591 c 2,5,-1
 599 558 l 1,6,7
 617 558 617 558 625 564 c 0,0,1
548 438 m 1,8,9
 533 442 533 442 488.5 446 c 128,-1,10
 444 450 444 450 423.5 450 c 128,-1,11
 403 450 403 450 391.5 446.5 c 128,-1,12
 380 443 380 443 328 431 c 1,13,14
 242 354 242 354 242 278 c 0,15,16
 242 203 242 203 327 129 c 1,17,18
 363 122 363 122 414 122 c 128,-1,19
 465 122 465 122 487.5 149 c 128,-1,20
 510 176 510 176 523 191 c 1,21,22
 535 315 535 315 548 438 c 1,8,9
772 556 m 2,23,-1
 748 365 l 1,24,-1
 764 121 l 2,25,26
 766 100 766 100 784 82 c 1,27,-1
 800 71 l 1,28,-1
 775 27 l 2,29,30
 756 -10 756 -10 726 -10 c 2,31,-1
 724 -10 l 2,32,33
 701 -10 701 -10 662 12.5 c 128,-1,34
 623 35 623 35 613 52 c 128,-1,35
 603 69 603 69 599 73 c 1,36,-1
 596 71 l 1,37,-1
 534 30 l 2,38,39
 483 0 483 0 424.5 0 c 128,-1,40
 366 0 366 0 283 16 c 0,41,42
 101 55 101 55 72 198 c 0,43,44
 68 221 68 221 68 253 c 128,-1,45
 68 285 68 285 92 376.5 c 128,-1,46
 116 468 116 468 157 491 c 128,-1,47
 198 514 198 514 323 542 c 1,48,-1
 486 570 l 1,49,50
 524 566 524 566 562 562 c 1,51,52
 571 639 571 639 581 716 c 1,53,54
 531 746 531 746 432 746 c 2,55,-1
 358 746 l 2,56,57
 351 746 351 746 334 732 c 128,-1,58
 317 718 317 718 285 672 c 128,-1,59
 253 626 253 626 232 607 c 128,-1,60
 211 588 211 588 183 588 c 128,-1,61
 155 588 155 588 145.5 603 c 128,-1,62
 136 618 136 618 136 634 c 128,-1,63
 136 650 136 650 157.5 704.5 c 128,-1,64
 179 759 179 759 182 764.5 c 128,-1,65
 185 770 185 770 187.5 773.5 c 128,-1,66
 190 777 190 777 196 782.5 c 128,-1,67
 202 788 202 788 207 792.5 c 128,-1,68
 212 797 212 797 223.5 807 c 128,-1,69
 235 817 235 817 244 825 c 0,70,71
 303 878 303 878 412 878 c 128,-1,72
 521 878 521 878 592 845.5 c 128,-1,73
 663 813 663 813 683.5 794 c 128,-1,74
 704 775 704 775 731.5 718.5 c 128,-1,75
 759 662 759 662 761.5 655 c 128,-1,76
 764 648 764 648 768 606 c 128,-1,77
 772 564 772 564 772 556 c 2,23,-1
561 228 m 1,78,79
 585 251 585 251 586.5 261 c 128,-1,80
 588 271 588 271 588 325.5 c 128,-1,81
 588 380 588 380 582 405 c 1,82,83
 572 317 572 317 561 228 c 1,78,79
272 409 m 1,84,-1
 198 352 l 1,85,-1
 198 272 l 2,86,87
 198 202 198 202 214 181.5 c 128,-1,88
 230 161 230 161 274 144 c 1,89,90
 211 209 211 209 211 275 c 128,-1,91
 211 341 211 341 272 409 c 1,84,-1
EndSplineSet
EndChar

StartChar: b
Encoding: 98 98 70
Width: 1006
Flags: W
LayerCount: 2
Fore
SplineSet
742 231 m 1,0,1
 753 246 753 246 774.5 284.5 c 128,-1,2
 796 323 796 323 799 395.5 c 128,-1,3
 802 468 802 468 802 515 c 128,-1,4
 802 562 802 562 793.5 594 c 128,-1,5
 785 626 785 626 746 671 c 1,6,7
 779 571 779 571 779 464 c 0,8,9
 779 351 779 351 742 231 c 1,0,1
368 844 m 1,10,11
 428 880 428 880 480 894 c 128,-1,12
 532 908 532 908 546 908 c 128,-1,13
 560 908 560 908 573.5 907 c 128,-1,14
 587 906 587 906 679 877.5 c 128,-1,15
 771 849 771 849 829 783.5 c 128,-1,16
 887 718 887 718 915 594 c 1,17,-1
 946 431 l 1,18,-1
 944 429 l 1,19,20
 942 395 942 395 922 316 c 0,21,22
 868 124 868 124 669 47 c 0,23,24
 591 17 591 17 557 17 c 2,25,-1
 527 17 l 2,26,27
 470 17 470 17 413 47 c 128,-1,28
 356 77 356 77 344.5 80.5 c 128,-1,29
 333 84 333 84 327 85 c 1,30,31
 327 79 327 79 329 67 c 128,-1,32
 331 55 331 55 331 50 c 0,33,34
 328 -7 328 -7 223 -8 c 1,35,-1
 221 -10 l 1,36,-1
 216 -10 l 2,37,38
 116 -10 116 -10 116 43 c 2,39,-1
 116 45 l 2,40,41
 116 67 116 67 146 102 c 128,-1,42
 176 137 176 137 178 179 c 1,43,-1
 168 266 l 1,44,-1
 162 469 l 2,45,46
 162 565 162 565 164 681.5 c 128,-1,47
 166 798 166 798 166 964 c 128,-1,48
 166 1130 166 1130 149 1161 c 0,49,50
 145 1163 145 1163 115 1191 c 128,-1,51
 85 1219 85 1219 79.5 1225 c 128,-1,52
 74 1231 74 1231 68 1240 c 128,-1,53
 62 1249 62 1249 62 1256 c 0,54,55
 64 1314 64 1314 154 1345 c 1,56,-1
 228 1352 l 1,57,58
 363 1352 363 1352 391 1330 c 0,59,60
 414 1310 414 1310 414 1279 c 2,61,-1
 414 1274 l 1,62,-1
 412 1272 l 1,63,64
 412 1253 412 1253 365 1239 c 1,65,66
 367 1041 367 1041 368 844 c 1,10,11
536 110 m 2,67,-1
 542 110 l 1,68,-1
 668 155 l 2,69,70
 673 159 673 159 677 162 c 0,71,72
 736 316 736 316 736 460 c 0,73,74
 736 602 736 602 678 734 c 1,75,76
 627 770 627 770 558.5 770 c 128,-1,77
 490 770 490 770 393 673 c 0,78,79
 380 660 380 660 369 645 c 1,80,81
 369 415 369 415 364 187 c 1,82,83
 376 178 376 178 422 144 c 128,-1,84
 468 110 468 110 536 110 c 2,67,-1
297 273 m 1,85,86
 304 248 304 248 317 232 c 1,87,88
 315 387 315 387 314 542 c 1,89,90
 292 477 292 477 290 396 c 1,91,-1
 297 273 l 1,85,86
292 954 m 2,92,93
 292 832 292 832 305 807 c 1,94,95
 309 809 309 809 314 812 c 1,96,97
 315 1020 315 1020 318 1228 c 1,98,99
 313 1227 313 1227 308 1226 c 0,100,101
 296 1205 296 1205 292 1004 c 1,102,-1
 292 954 l 2,92,93
EndSplineSet
EndChar

StartChar: c
Encoding: 99 99 71
Width: 1004
Flags: W
LayerCount: 2
Fore
SplineSet
613 738 m 2,0,-1
 605 738 l 2,1,2
 556 738 556 738 498.5 719 c 128,-1,3
 441 700 441 700 437 699 c 0,4,5
 272 531 272 531 272 372 c 0,6,7
 272 257 272 257 358 145 c 1,8,9
 372 139 372 139 430 116.5 c 128,-1,10
 488 94 488 94 543.5 94 c 128,-1,11
 599 94 599 94 615 101.5 c 128,-1,12
 631 109 631 109 672.5 146.5 c 128,-1,13
 714 184 714 184 720 195 c 2,14,-1
 728 223 l 1,15,16
 724 239 724 239 724 255.5 c 128,-1,17
 724 272 724 272 739 286 c 128,-1,18
 754 300 754 300 780 300 c 2,19,-1
 782 300 l 2,20,21
 829 300 829 300 868 266.5 c 128,-1,22
 907 233 907 233 923.5 170 c 128,-1,23
 940 107 940 107 940 81 c 0,24,25
 940 45 940 45 898.5 45 c 128,-1,26
 857 45 857 45 839.5 53 c 128,-1,27
 822 61 822 61 816 61 c 128,-1,28
 810 61 810 61 801.5 58 c 128,-1,29
 793 55 793 55 736 14.5 c 128,-1,30
 679 -26 679 -26 565 -26 c 128,-1,31
 451 -26 451 -26 369 0 c 128,-1,32
 287 26 287 26 256 44.5 c 128,-1,33
 225 63 225 63 170.5 116.5 c 128,-1,34
 116 170 116 170 89 224 c 128,-1,35
 62 278 62 278 59 296 c 128,-1,36
 56 314 56 314 56 333 c 0,37,38
 56 540 56 540 193 681 c 0,39,40
 331 821 331 821 437 851.5 c 128,-1,41
 543 882 543 882 557.5 882 c 128,-1,42
 572 882 572 882 624 866 c 128,-1,43
 676 850 676 850 719 848 c 1,44,-1
 777 856 l 1,45,-1
 778 856 l 2,46,47
 870 856 870 856 870 823.5 c 128,-1,48
 870 791 870 791 847.5 751.5 c 128,-1,49
 825 712 825 712 796 693 c 128,-1,50
 767 674 767 674 743 672 c 1,51,-1
 741 670 l 1,52,-1
 736 670 l 2,53,54
 708 670 708 670 682 704 c 128,-1,55
 656 738 656 738 613 738 c 2,0,-1
357 662 m 1,56,57
 338 652 338 652 319.5 639 c 128,-1,58
 301 626 301 626 247.5 552 c 128,-1,59
 194 478 194 478 194 375 c 128,-1,60
 194 272 194 272 224.5 239 c 128,-1,61
 255 206 255 206 277 190 c 1,62,63
 219 279 219 279 219 371 c 0,64,65
 219 513 219 513 357 662 c 1,56,57
EndSplineSet
EndChar

StartChar: d
Encoding: 100 100 72
Width: 1053
Flags: W
LayerCount: 2
Fore
SplineSet
244 230 m 1,0,1
 221 314 221 314 221 401 c 128,-1,2
 221 488 221 488 244 579 c 1,3,4
 239 571 239 571 223 543 c 128,-1,5
 207 515 207 515 204 477 c 2,6,-1
 198 362 l 1,7,-1
 198 351 l 1,8,9
 203 285 203 285 244 230 c 1,0,1
708 668 m 1,10,11
 686 681 686 681 630.5 716.5 c 128,-1,12
 575 752 575 752 522.5 752 c 128,-1,13
 470 752 470 752 415.5 741 c 128,-1,14
 361 730 361 730 318 682 c 1,15,16
 264 539 264 539 264 404 c 0,17,18
 264 282 264 282 308 166 c 1,19,20
 325 153 325 153 371 124.5 c 128,-1,21
 417 96 417 96 479 96 c 2,22,-1
 486 96 l 2,23,24
 543 96 543 96 606.5 136 c 128,-1,25
 670 176 670 176 717 249 c 1,26,27
 711 459 711 459 708 668 c 1,10,11
782 461 m 2,28,29
 782 527 782 527 765 577 c 1,30,31
 765 461 765 461 765 345 c 1,32,33
 778 377 778 377 782 383 c 1,34,-1
 782 461 l 2,28,29
776 923 m 2,35,-1
 776 1009 l 2,36,37
 776 1143 776 1143 755 1196 c 1,38,39
 760 1012 760 1012 762 828 c 0,40,41
 766 826 766 826 769 826 c 0,42,43
 776 848 776 848 776 923 c 2,35,-1
628 1293 m 2,44,-1
 628 1302 l 2,45,46
 630 1334 630 1334 672 1348 c 128,-1,47
 714 1362 714 1362 796 1362 c 2,48,-1
 830 1362 l 2,49,50
 896 1360 896 1360 908 1342 c 128,-1,51
 920 1324 920 1324 920 1278 c 2,52,-1
 920 1218 l 1,53,-1
 908 803 l 1,54,-1
 930 384 l 2,55,56
 940 264 940 264 942 206 c 128,-1,57
 944 148 944 148 968 119.5 c 128,-1,58
 992 91 992 91 992 75 c 2,59,-1
 992 63 l 1,60,-1
 988 63 l 1,61,62
 985 53 985 53 976 40 c 128,-1,63
 967 27 967 27 922 14 c 2,64,-1
 859 0 l 1,65,-1
 856 3 l 1,66,67
 843 7 843 7 822 34 c 128,-1,68
 801 61 801 61 796 109 c 2,69,-1
 794 129 l 1,70,-1
 739 85 l 2,71,72
 592 -30 592 -30 467 -32 c 2,73,-1
 465 -32 l 1,74,-1
 318 1 l 1,75,-1
 203 62 l 1,76,77
 127 96 127 96 75 261 c 0,78,79
 61 305 61 305 61 317 c 0,80,81
 61 318 61 318 61 319 c 2,82,-1
 64 429 l 1,83,-1
 66 462 l 1,84,85
 76 559 76 559 162 677 c 128,-1,86
 248 795 248 795 295 818 c 0,87,88
 342 840 342 840 429 864 c 128,-1,89
 516 888 516 888 549 888 c 2,90,-1
 611 888 l 2,91,92
 643 888 643 888 706 856 c 1,93,94
 706 952 706 952 706 1047 c 128,-1,95
 706 1142 706 1142 706 1237 c 1,96,97
 628 1273 628 1273 628 1293 c 2,44,-1
EndSplineSet
EndChar

StartChar: e
Encoding: 101 101 73
Width: 902
Flags: W
LayerCount: 2
Fore
SplineSet
298 520 m 1,0,1
 327 516 327 516 347 516 c 128,-1,2
 367 516 367 516 440.5 531.5 c 128,-1,3
 514 547 514 547 553 555 c 1,4,5
 570 589 570 589 570 625 c 0,6,7
 570 702 570 702 490 785 c 1,8,9
 476 786 476 786 441.5 786 c 128,-1,10
 407 786 407 786 393.5 776 c 128,-1,11
 380 766 380 766 378 764 c 1,12,13
 379 764 379 764 379 762 c 0,14,15
 379 754 379 754 352 700 c 0,16,17
 321 638 321 638 298 520 c 1,0,1
469 116 m 2,18,19
 562 116 562 116 602 138.5 c 128,-1,20
 642 161 642 161 644 222.5 c 128,-1,21
 646 284 646 284 672 305 c 2,22,-1
 705 333 l 1,23,-1
 763 294 l 1,24,-1
 764 293 l 1,25,26
 834 235 834 235 834 173 c 128,-1,27
 834 111 834 111 825 92.5 c 128,-1,28
 816 74 816 74 759 59.5 c 128,-1,29
 702 45 702 45 664 27 c 128,-1,30
 626 9 626 9 558.5 -4.5 c 128,-1,31
 491 -18 491 -18 458.5 -18 c 128,-1,32
 426 -18 426 -18 364 -4 c 128,-1,33
 302 10 302 10 274 22.5 c 128,-1,34
 246 35 246 35 191.5 74.5 c 128,-1,35
 137 114 137 114 114 147 c 1,36,-1
 83 225 l 2,37,38
 66 278 66 278 66 305 c 2,39,-1
 66 340 l 1,40,-1
 71 390 l 2,41,42
 72 426 72 426 103 513 c 0,43,44
 206 795 206 795 286.5 848.5 c 128,-1,45
 367 902 367 902 426.5 902 c 128,-1,46
 486 902 486 902 563.5 883.5 c 128,-1,47
 641 865 641 865 667 845 c 128,-1,48
 693 825 693 825 750 745 c 128,-1,49
 807 665 807 665 822.5 602 c 128,-1,50
 838 539 838 539 838 494 c 128,-1,51
 838 449 838 449 812 428.5 c 128,-1,52
 786 408 786 408 716 408 c 1,53,-1
 580 422 l 1,54,55
 470 422 470 422 378 398 c 128,-1,56
 286 374 286 374 284 373 c 0,57,58
 285 253 285 253 329 139 c 1,59,60
 378 117 378 117 454 116 c 2,61,-1
 469 116 l 2,18,19
302 674 m 1,62,63
 287 651 287 651 261.5 602.5 c 128,-1,64
 236 554 236 554 229 535 c 1,65,66
 237 531 237 531 257 527 c 1,67,68
 272 599 272 599 302 674 c 1,62,63
228 265 m 2,69,70
 228 240 228 240 233.5 226.5 c 128,-1,71
 239 213 239 213 271 182 c 1,72,73
 243 270 243 270 241 362 c 1,74,-1
 228 359 l 1,75,-1
 228 265 l 2,69,70
551 776 m 128,-1,77
 539 779 539 779 537 780 c 1,78,79
 613 699 613 699 613 625 c 0,80,81
 613 595 613 595 601 566 c 1,82,83
 605 567 605 567 621 571 c 128,-1,84
 637 575 637 575 648 580 c 1,85,86
 606 705 606 705 584.5 739 c 128,-1,76
 563 773 563 773 551 776 c 128,-1,77
EndSplineSet
EndChar

StartChar: f
Encoding: 102 102 74
Width: 712
Flags: W
LayerCount: 2
Fore
SplineSet
650 1333 m 0,0,1
 674 1312 674 1312 674 1282 c 128,-1,2
 674 1252 674 1252 655.5 1203 c 128,-1,3
 637 1154 637 1154 615.5 1147 c 128,-1,4
 594 1140 594 1140 548.5 1140 c 128,-1,5
 503 1140 503 1140 467.5 1175.5 c 128,-1,6
 432 1211 432 1211 429 1219 c 1,7,8
 415 1212 415 1212 391.5 1196 c 128,-1,9
 368 1180 368 1180 347 1153 c 1,10,11
 350 921 350 921 351 692 c 1,12,13
 449 679 449 679 486 654.5 c 128,-1,14
 523 630 523 630 523 585 c 2,15,-1
 523 533 l 1,16,-1
 385 551 l 1,17,-1
 350 549 l 1,18,19
 349 339 349 339 347 130 c 1,20,21
 441 104 441 104 448 63 c 1,22,23
 448 63 448 63 450 60 c 0,24,25
 452 56 452 56 454 50 c 0,26,27
 455 47 455 47 455 42 c 0,28,29
 456 36 456 36 454 24 c 0,30,31
 452 9 452 9 441 8 c 0,32,33
 437 8 437 8 433 10 c 0,34,35
 428 12 428 12 414 12 c 0,36,37
 381 12 381 12 300 0 c 0,38,39
 185 -16 185 -16 159.5 -16 c 128,-1,40
 134 -16 134 -16 113 -10 c 128,-1,41
 92 -4 92 -4 76 23.5 c 128,-1,42
 60 51 60 51 60 62 c 128,-1,43
 60 73 60 73 67 81 c 128,-1,44
 74 89 74 89 95 105.5 c 128,-1,45
 116 122 116 122 133 122 c 128,-1,46
 150 122 150 122 150 155 c 2,47,-1
 154 720 l 1,48,49
 150 777 150 777 150 866.5 c 128,-1,50
 150 956 150 956 170 1056 c 0,51,52
 217 1295 217 1295 350 1345 c 1,53,-1
 424 1358 l 1,54,-1
 554 1356 l 2,55,56
 624 1354 624 1354 650 1333 c 0,0,1
280 880 m 2,57,-1
 280 864 l 1,58,-1
 284 706 l 1,59,60
 290 705 290 705 296 703 c 1,61,62
 296 875 296 875 298 1047 c 1,63,64
 280 977 280 977 280 880 c 2,57,-1
280 399 m 2,65,-1
 288 208 l 2,66,67
 293 172 293 172 299 161 c 1,68,69
 296 352 296 352 296 541 c 1,70,71
 291 539 291 539 285.5 515 c 128,-1,72
 280 491 280 491 280 399 c 2,65,-1
EndSplineSet
EndChar

StartChar: g
Encoding: 103 103 75
Width: 1142
Flags: W
LayerCount: 2
Fore
SplineSet
244 462 m 128,-1,1
 244 535 244 535 356 626 c 1,2,3
 220 540 220 540 220 448 c 0,4,5
 220 393 220 393 234.5 371 c 128,-1,6
 249 349 249 349 294 332 c 1,7,0
 244 389 244 389 244 462 c 128,-1,1
643.5 716 m 128,-1,9
 582 716 582 716 495 690 c 1,10,11
 282 569 282 569 282 452 c 0,12,13
 282 384 282 384 354 316 c 1,14,15
 389 310 389 310 439 310 c 128,-1,16
 489 310 489 310 562.5 332 c 128,-1,17
 636 354 636 354 702 355 c 1,18,19
 836 465 836 465 836 553 c 128,-1,20
 836 641 836 641 733 711 c 1,21,8
 705 716 705 716 643.5 716 c 128,-1,9
899 571 m 0,22,23
 899 607 899 607 893 630 c 0,24,25
 888 653 888 653 862 676 c 0,26,27
 833 704 833 704 789 708 c 1,28,29
 871 627 871 627 871 556 c 0,30,31
 871 552 871 552 871 548 c 0,32,33
 867 475 867 475 743 355 c 1,34,35
 775 356 775 356 785 359.5 c 128,-1,36
 795 363 795 363 829 401.5 c 128,-1,37
 863 440 863 440 881 474 c 0,38,39
 899 507 899 507 899 571 c 0,22,23
639.5 -226 m 128,-1,41
 662 -226 662 -226 701 -191 c 128,-1,42
 740 -156 740 -156 748.5 -142.5 c 128,-1,43
 757 -129 757 -129 757 -76 c 128,-1,44
 757 -23 757 -23 706 5.5 c 128,-1,45
 655 34 655 34 632 34 c 128,-1,46
 609 34 609 34 599 32 c 1,47,48
 727 -37 727 -37 727 -103 c 0,49,50
 728 -110 728 -110 726 -117 c 0,51,52
 710 -189 710 -189 595 -220 c 1,53,40
 617 -226 617 -226 639.5 -226 c 128,-1,41
291.5 70 m 128,-1,55
 321 70 321 70 412 113.5 c 128,-1,56
 503 157 503 157 538 167.5 c 128,-1,57
 573 178 573 178 622 178 c 128,-1,58
 671 178 671 178 697 169.5 c 128,-1,59
 723 161 723 161 775 126.5 c 128,-1,60
 827 92 827 92 849 55 c 128,-1,61
 871 18 871 18 879.5 -31.5 c 128,-1,62
 888 -81 888 -81 888 -123 c 128,-1,63
 888 -165 888 -165 857.5 -229 c 128,-1,64
 827 -293 827 -293 764 -320.5 c 128,-1,65
 701 -348 701 -348 671 -348 c 128,-1,66
 641 -348 641 -348 609.5 -345 c 128,-1,67
 578 -342 578 -342 480.5 -309 c 128,-1,68
 383 -276 383 -276 367.5 -273 c 128,-1,69
 352 -270 352 -270 333 -270 c 128,-1,70
 314 -270 314 -270 261 -277.5 c 128,-1,71
 208 -285 208 -285 198 -293 c 1,72,73
 196 -306 196 -306 185.5 -318.5 c 128,-1,74
 175 -331 175 -331 139.5 -361.5 c 128,-1,75
 104 -392 104 -392 77 -392 c 128,-1,76
 50 -392 50 -392 42 -381 c 128,-1,77
 34 -370 34 -370 34 -328 c 128,-1,78
 34 -286 34 -286 65 -238.5 c 128,-1,79
 96 -191 96 -191 141.5 -168.5 c 128,-1,80
 187 -146 187 -146 271.5 -146 c 128,-1,81
 356 -146 356 -146 394 -153 c 1,82,83
 507 -215 507 -215 554 -215 c 0,84,85
 562 -215 562 -215 568 -213 c 0,86,87
 702 -170 702 -170 702 -109 c 0,88,89
 702 -108 702 -108 702 -107 c 0,90,91
 699 -47 699 -47 567 24 c 1,92,93
 551 18 551 18 515 0.5 c 128,-1,94
 479 -17 479 -17 399.5 -44.5 c 128,-1,95
 320 -72 320 -72 285.5 -72 c 128,-1,96
 251 -72 251 -72 186.5 -38 c 128,-1,97
 122 -4 122 -4 103 24 c 128,-1,98
 84 52 84 52 84 88 c 128,-1,99
 84 124 84 124 107 150.5 c 128,-1,100
 130 177 130 177 148.5 205 c 128,-1,101
 167 233 167 233 167 241 c 1,102,-1
 166 242 l 1,103,104
 164 250 164 250 134 292 c 128,-1,105
 104 334 104 334 104 398.5 c 128,-1,106
 104 463 104 463 155 569 c 1,107,-1
 156 570 l 1,108,109
 211 661 211 661 236 682 c 0,110,111
 313 740 313 740 323 755.5 c 128,-1,112
 333 771 333 771 399 805.5 c 128,-1,113
 465 840 465 840 518 855 c 128,-1,114
 571 870 571 870 659.5 871 c 128,-1,115
 748 872 748 872 767 885 c 128,-1,116
 786 898 786 898 814 968 c 1,117,118
 852 1080 852 1080 954 1080 c 0,119,120
 996 1080 996 1080 1039 1047 c 128,-1,121
 1082 1014 1082 1014 1082 935 c 128,-1,122
 1082 856 1082 856 1046 856 c 0,123,124
 1026 856 1026 856 1000 876.5 c 128,-1,125
 974 897 974 897 960 901 c 1,126,-1
 938 826 l 1,127,128
 943 813 943 813 990.5 762 c 128,-1,129
 1038 711 1038 711 1038 636 c 2,130,-1
 1038 634 l 2,131,132
 1038 571 1038 571 1005 478 c 0,133,134
 931 262 931 262 762 217 c 0,135,136
 725 209 725 209 600.5 198.5 c 128,-1,137
 476 188 476 188 440.5 168 c 128,-1,138
 405 148 405 148 393 148 c 2,139,-1
 375 148 l 1,140,-1
 339 152 l 1,141,-1
 333 152 l 1,142,-1
 302 147 l 2,143,144
 246 141 246 141 246 98 c 1,145,-1
 254 78 l 1,146,54
 262 70 262 70 291.5 70 c 128,-1,55
EndSplineSet
EndChar

StartChar: h
Encoding: 104 104 76
Width: 918
Flags: W
LayerCount: 2
Fore
SplineSet
681 645 m 1,0,1
 683 527 683 527 683 397.5 c 128,-1,2
 683 268 683 268 680 128 c 1,3,4
 688 134 688 134 696 140 c 1,5,-1
 700 365 l 1,6,-1
 694 582 l 2,7,8
 690 615 690 615 681 645 c 1,0,1
264 439 m 1,9,-1
 248 385 l 1,10,-1
 250 363 l 1,11,-1
 253 96 l 1,12,-1
 267 89 l 1,13,14
 265 264 265 264 264 439 c 1,9,-1
242 980.5 m 128,-1,16
 242 744 242 744 250 684 c 2,17,-1
 253 668 l 1,18,-1
 263 688 l 1,19,20
 264 981 264 981 269 1275 c 1,21,22
 248 1265 248 1265 245 1241 c 128,-1,15
 242 1217 242 1217 242 980.5 c 128,-1,16
638 416.5 m 128,-1,24
 638 572 638 572 642 726 c 1,25,26
 626 746 626 746 603.5 755 c 128,-1,27
 581 764 581 764 540.5 764 c 128,-1,28
 500 764 500 764 444.5 738 c 128,-1,29
 389 712 389 712 335 596 c 2,30,-1
 318 557 l 1,31,32
 317 311 317 311 312 65 c 1,33,-1
 328 57 l 1,34,-1
 334 -12 l 1,35,36
 328 -24 328 -24 154 -24 c 0,37,38
 66 -24 66 -24 66 25 c 0,39,40
 66 45 66 45 79 75.5 c 128,-1,41
 92 106 92 106 94 166.5 c 128,-1,42
 96 227 96 227 98 371.5 c 128,-1,43
 100 516 100 516 100 712.5 c 128,-1,44
 100 909 100 909 92 1053.5 c 128,-1,45
 84 1198 84 1198 73 1214 c 1,46,47
 50 1230 50 1230 50 1249 c 2,48,-1
 50 1269 l 2,49,50
 50 1308 50 1308 84 1338 c 0,51,52
 117 1368 117 1368 146 1369 c 1,53,-1
 146 1368 l 1,54,55
 174 1368 174 1368 180 1368 c 0,56,57
 362 1359 362 1359 364 1332 c 2,58,-1
 370 1269 l 1,59,60
 337 1279 337 1279 313 1280 c 1,61,62
 317 1031 317 1031 318 782 c 1,63,64
 405 908 405 908 493 908 c 2,65,-1
 495 908 l 2,66,67
 604 908 604 908 689 862.5 c 128,-1,68
 774 817 774 817 802 721.5 c 128,-1,69
 830 626 830 626 830 455 c 1,70,-1
 828 417 l 1,71,-1
 828 358 l 2,72,73
 828 212 828 212 843 156 c 1,74,-1
 858 60 l 1,75,-1
 856 58 l 1,76,77
 856 20 856 20 841.5 7 c 128,-1,78
 827 -6 827 -6 803 -6 c 128,-1,79
 779 -6 779 -6 709 1 c 128,-1,80
 639 8 639 8 621.5 23 c 128,-1,81
 604 38 604 38 604 63 c 2,82,-1
 604 66 l 1,83,-1
 606 71 l 1,84,-1
 606 72 l 1,85,-1
 607 73 l 1,86,87
 609 84 609 84 642 105 c 1,88,23
 638 261 638 261 638 416.5 c 128,-1,24
EndSplineSet
EndChar

StartChar: k
Encoding: 107 107 79
Width: 944
Flags: W
LayerCount: 2
Fore
SplineSet
550 822 m 2,0,1
 550 856 550 856 559.5 868 c 128,-1,2
 569 880 569 880 606 880 c 128,-1,3
 643 880 643 880 690.5 880 c 128,-1,4
 738 880 738 880 754 857 c 128,-1,5
 770 834 770 834 770 817.5 c 128,-1,6
 770 801 770 801 738 764 c 128,-1,7
 706 727 706 727 679 674 c 128,-1,8
 652 621 652 621 605 556.5 c 128,-1,9
 558 492 558 492 558 482.5 c 128,-1,10
 558 473 558 473 570 466.5 c 128,-1,11
 582 460 582 460 602 440.5 c 128,-1,12
 622 421 622 421 689 322 c 128,-1,13
 756 223 756 223 819 156.5 c 128,-1,14
 882 90 882 90 884 55 c 2,15,-1
 884 52 l 2,16,17
 884 -12 884 -12 787 -12 c 128,-1,18
 690 -12 690 -12 666 8 c 128,-1,19
 642 28 642 28 642 42 c 1,20,-1
 671 115 l 1,21,22
 548 219 548 219 429 327 c 1,23,24
 423 318 423 318 401.5 285 c 128,-1,25
 380 252 380 252 341 225.5 c 128,-1,26
 302 199 302 199 296 191.5 c 128,-1,27
 290 184 290 184 290 176 c 128,-1,28
 290 168 290 168 294 154 c 1,29,-1
 345 136 l 2,30,31
 378 121 378 121 390.5 98 c 128,-1,32
 403 75 403 75 403 58.5 c 128,-1,33
 403 42 403 42 381.5 27.5 c 128,-1,34
 360 13 360 13 273.5 -0.5 c 128,-1,35
 187 -14 187 -14 144.5 -14 c 128,-1,36
 102 -14 102 -14 82 20.5 c 128,-1,37
 62 55 62 55 62 68 c 128,-1,38
 62 81 62 81 92 106 c 1,39,40
 96 541 96 541 110 971 c 1,41,42
 89 987 89 987 84 992 c 0,43,44
 59 1004 59 1004 59 1020 c 0,45,46
 59 1045 59 1045 86 1127.5 c 128,-1,47
 113 1210 113 1210 116.5 1233.5 c 128,-1,48
 120 1257 120 1257 120.5 1263 c 128,-1,49
 121 1269 121 1269 123.5 1277 c 128,-1,50
 126 1285 126 1285 127 1308.5 c 128,-1,51
 128 1332 128 1332 145 1339 c 128,-1,52
 162 1346 162 1346 209 1346 c 128,-1,53
 256 1346 256 1346 256 1316 c 0,54,55
 256 1302 256 1302 278 1273 c 128,-1,56
 300 1244 300 1244 302 1134 c 128,-1,57
 304 1024 304 1024 307 980 c 2,58,-1
 308 836 l 1,59,-1
 294 444 l 1,60,-1
 284 361 l 2,61,62
 287 360 287 360 299 360 c 128,-1,63
 311 360 311 360 313.5 377.5 c 128,-1,64
 316 395 316 395 373 472.5 c 128,-1,65
 430 550 430 550 463.5 595 c 128,-1,66
 497 640 497 640 524 703.5 c 128,-1,67
 551 767 551 767 552 805 c 1,68,-1
 550 809 l 1,69,-1
 550 822 l 2,0,1
160 386 m 1,70,-1
 180 932 l 1,71,-1
 161 940 l 1,72,73
 155 530 155 530 139 126 c 1,74,75
 145 127 145 127 152.5 146 c 128,-1,76
 160 165 160 165 160 285 c 2,77,-1
 160 386 l 1,70,-1
450 356 m 1,78,79
 543 279 543 279 634 200 c 1,80,-1
 535 308 l 2,81,82
 483 363 483 363 466 372 c 1,83,84
 460 368 460 368 450 356 c 1,78,79
EndSplineSet
EndChar

StartChar: l
Encoding: 108 108 80
Width: 496
Flags: W
LayerCount: 2
Fore
SplineSet
316 169 m 1,0,-1
 364 190 l 1,1,2
 397 190 397 190 415.5 173 c 128,-1,3
 434 156 434 156 434 111.5 c 128,-1,4
 434 67 434 67 395.5 30.5 c 128,-1,5
 357 -6 357 -6 312.5 -6 c 128,-1,6
 268 -6 268 -6 247 3 c 128,-1,7
 226 12 226 12 187 46.5 c 128,-1,8
 148 81 148 81 128 123 c 128,-1,9
 108 165 108 165 108 360 c 2,10,-1
 108 735 l 1,11,12
 113 783 113 783 114 827 c 1,13,-1
 98 828 l 2,14,15
 54 828 54 828 42 910 c 1,16,-1
 42 911 l 1,17,-1
 74 1058 l 1,18,-1
 86 1162 l 2,19,20
 86 1192 86 1192 95.5 1222.5 c 128,-1,21
 105 1253 105 1253 108 1257.5 c 128,-1,22
 111 1262 111 1262 112.5 1275 c 128,-1,23
 114 1288 114 1288 118.5 1293.5 c 128,-1,24
 123 1299 123 1299 134.5 1327.5 c 128,-1,25
 146 1356 146 1356 186 1356 c 128,-1,26
 226 1356 226 1356 238 1323 c 128,-1,27
 250 1290 250 1290 250 1222 c 2,28,-1
 246 424 l 2,29,30
 246 323 246 323 251 259.5 c 128,-1,31
 256 196 256 196 261 188.5 c 128,-1,32
 266 181 266 181 269 177 c 1,33,34
 265 444 265 444 265 709 c 0,35,36
 265 1007 265 1007 270 1304 c 0,37,38
 270 1315 270 1315 292 1315 c 128,-1,39
 314 1315 314 1315 314 1304 c 0,40,41
 320 989 320 989 320 678 c 0,42,43
 320 422 320 422 316 169 c 1,0,-1
EndSplineSet
EndChar

StartChar: m
Encoding: 109 109 81
Width: 1338
Flags: W
LayerCount: 2
Fore
SplineSet
756 358 m 1,0,1
 731 253 731 253 731 207 c 0,2,3
 732 192 732 192 734 184 c 0,4,5
 744 148 744 148 750 140 c 1,6,7
 749 127 749 127 749 118 c 0,8,9
 749 97 749 97 756 97 c 0,10,11
 757 97 757 97 759 98 c 0,12,13
 756 228 756 228 756 358 c 1,0,1
308 415 m 1,14,15
 282 346 282 346 282 290 c 0,16,17
 282 269 282 269 286 251 c 2,18,-1
 304 193 l 2,19,20
 304 192 304 192 304 191 c 0,21,22
 304 186 304 186 309 177 c 1,23,24
 308 256 308 256 308 336 c 0,25,26
 308 375 308 375 308 415 c 1,14,15
88 20 m 0,27,28
 88 40 88 40 117 81 c 128,-1,29
 146 122 146 122 146 149 c 2,30,-1
 116 610 l 2,31,32
 112 646 112 646 96 677 c 1,33,-1
 62 726 l 1,34,-1
 104 788 l 1,35,36
 147 868 147 868 167 868 c 0,37,38
 174 868 174 868 178 859 c 1,39,40
 214 876 214 876 227 876 c 128,-1,41
 240 876 240 876 263 851 c 128,-1,42
 286 826 286 826 286 754 c 1,43,-1
 278 626 l 1,44,-1
 284 626 l 1,45,-1
 431 834 l 1,46,47
 485 858 485 858 527 876 c 0,48,49
 540 882 540 882 553 882 c 0,50,51
 586 882 586 882 622 852 c 0,52,53
 674 808 674 808 687 765 c 128,-1,54
 700 722 700 722 706.5 716 c 128,-1,55
 713 710 713 710 718 710 c 128,-1,56
 723 710 723 710 738.5 727 c 128,-1,57
 754 744 754 744 780 782.5 c 128,-1,58
 806 821 806 821 835 853.5 c 128,-1,59
 864 886 864 886 924 888 c 0,60,61
 944 889 944 889 965 889 c 0,62,63
 1008 889 1008 889 1056 886 c 0,64,65
 1130 882 1130 882 1195 769 c 0,66,67
 1228 712 1228 712 1238 659 c 128,-1,68
 1248 606 1248 606 1248 479.5 c 128,-1,69
 1248 353 1248 353 1242 303.5 c 128,-1,70
 1236 254 1236 254 1236 230.5 c 128,-1,71
 1236 207 1236 207 1257 182.5 c 128,-1,72
 1278 158 1278 158 1278 108 c 128,-1,73
 1278 58 1278 58 1265 52 c 0,74,75
 1218 26 1218 26 1166 14 c 2,76,-1
 1100 2 l 1,77,-1
 1100 9 l 1,78,-1
 1035 -3 l 1,79,-1
 1030 2 l 2,80,81
 1028 4 1028 4 1021 4 c 128,-1,82
 1014 4 1014 4 1001 2 c 0,83,84
 997 1 997 1 994 1 c 0,85,86
 977 1 977 1 977 22 c 2,87,-1
 977 25 l 2,88,89
 977 55 977 55 1017 61 c 0,90,91
 1020 61 1020 61 1024 63 c 0,92,93
 1043 398 1043 398 1075 727 c 1,94,95
 1041 760 1041 760 993 760 c 128,-1,96
 945 760 945 760 906 724 c 128,-1,97
 867 688 867 688 845 649.5 c 128,-1,98
 823 611 823 611 795 509 c 1,99,100
 797 426 797 426 797 343 c 0,101,102
 797 219 797 219 793 96 c 1,103,104
 838 79 838 79 848 55 c 1,105,-1
 850 30 l 2,106,107
 850 29 850 29 850 28 c 0,108,109
 850 16 850 16 838 -2 c 128,-1,110
 826 -20 826 -20 645 -20 c 0,111,112
 586 -20 586 -20 586 26 c 0,113,114
 586 48 586 48 600.5 83.5 c 128,-1,115
 615 119 615 119 615 141 c 128,-1,116
 615 163 615 163 603.5 220 c 128,-1,117
 592 277 592 277 592 480 c 128,-1,118
 592 683 592 683 550 723 c 0,119,120
 530 740 530 740 522 742 c 0,121,122
 521 742 521 742 520 743 c 0,123,124
 513 743 513 743 505 734 c 0,125,126
 496 724 496 724 460.5 665.5 c 128,-1,127
 425 607 425 607 347 500 c 1,128,129
 348 419 348 419 348 338 c 0,130,131
 348 230 348 230 346 124 c 1,132,133
 360 105 360 105 382 75 c 0,134,135
 394 58 394 58 395 44 c 0,136,137
 395 33 395 33 387 23 c 0,138,139
 371 -8 371 -8 354 -8 c 2,140,-1
 353 -8 l 1,141,142
 283 -4 283 -4 252 -4 c 0,143,144
 231 -4 231 -4 226 -6 c 0,145,146
 158 -36 158 -36 144 -36 c 0,147,148
 88 -36 88 -36 88 20 c 0,27,28
1112.5 354.5 m 128,-1,150
 1118 387 1118 387 1118 520.5 c 128,-1,151
 1118 654 1118 654 1107 683 c 1,152,153
 1089 386 1089 386 1060 93 c 1,154,155
 1067 105 1067 105 1076 142 c 128,-1,156
 1085 179 1085 179 1096 250.5 c 128,-1,149
 1107 322 1107 322 1112.5 354.5 c 128,-1,150
EndSplineSet
EndChar

StartChar: n
Encoding: 110 110 82
Width: 1102
Flags: W
LayerCount: 2
Fore
SplineSet
276 278 m 1,0,-1
 304 162 l 1,1,-1
 307 140 l 1,2,3
 305 207 305 207 305 274 c 0,4,5
 306 291 306 291 306 308 c 0,6,7
 306 392 306 392 307 476 c 1,8,9
 305 470 305 470 290.5 413 c 128,-1,10
 276 356 276 356 276 278 c 1,0,-1
832 287 m 128,-1,12
 832 424 832 424 827 468.5 c 128,-1,13
 822 513 822 513 802 570 c 1,14,15
 804 466 804 466 804 336.5 c 128,-1,16
 804 207 804 207 800 53 c 1,17,-1
 802 55 l 1,18,19
 824 88 824 88 828 119 c 128,-1,11
 832 150 832 150 832 287 c 128,-1,12
188 -32 m 2,20,-1
 183 -32 l 2,21,22
 137 -30 137 -30 122 -7 c 1,23,-1
 122 -6 l 1,24,-1
 114 15 l 1,25,-1
 114 16 l 1,26,-1
 124 48 l 1,27,28
 139 73 139 73 141.5 126 c 128,-1,29
 144 179 144 179 144 354.5 c 128,-1,30
 144 530 144 530 141 587.5 c 128,-1,31
 138 645 138 645 130 667 c 128,-1,32
 122 689 122 689 92 711 c 128,-1,33
 62 733 62 733 62 759 c 128,-1,34
 62 785 62 785 98 836.5 c 128,-1,35
 134 888 134 888 195.5 888 c 128,-1,36
 257 888 257 888 282 802 c 0,37,38
 295 757 295 757 303 739 c 1,39,40
 316 750 316 750 353.5 784 c 128,-1,41
 391 818 391 818 417.5 832.5 c 128,-1,42
 444 847 444 847 510 863.5 c 128,-1,43
 576 880 576 880 635 880 c 128,-1,44
 694 880 694 880 777 822.5 c 128,-1,45
 860 765 860 765 880.5 709.5 c 128,-1,46
 901 654 901 654 927 587 c 1,47,-1
 956 479 l 1,48,-1
 960 162 l 1,49,-1
 1031 111 l 2,50,51
 1042 100 1042 100 1042 87 c 128,-1,52
 1042 74 1042 74 1030 63 c 128,-1,53
 1018 52 1018 52 986.5 37 c 128,-1,54
 955 22 955 22 913.5 -16 c 128,-1,55
 872 -54 872 -54 841 -54 c 0,56,57
 810 -56 810 -56 780 -56 c 2,58,-1
 779 -56 l 2,59,60
 750 -56 750 -56 725 -32 c 0,61,62
 701 -9 701 -9 701 9 c 2,63,64
 701 9 701 9 701 10 c 2,65,-1
 701 22 l 1,66,-1
 772 35 l 1,67,68
 768 198 768 198 768 348.5 c 128,-1,69
 768 499 768 499 771 637 c 1,70,71
 748 675 748 675 706.5 711.5 c 128,-1,72
 665 748 665 748 575 748 c 2,73,-1
 552 748 l 1,74,75
 445 740 445 740 373 639 c 0,76,77
 357 616 357 616 342 583 c 1,78,79
 346 454 346 454 346 335 c 128,-1,80
 346 216 346 216 343 107 c 1,81,82
 365 89 365 89 386.5 73.5 c 128,-1,83
 408 58 408 58 408 45.5 c 128,-1,84
 408 33 408 33 395 17.5 c 128,-1,85
 382 2 382 2 363 -15 c 128,-1,86
 344 -32 344 -32 188 -32 c 2,20,-1
EndSplineSet
EndChar

StartChar: o
Encoding: 111 111 83
Width: 940
Flags: W
LayerCount: 2
Fore
SplineSet
270 201 m 1,0,1
 234 304 234 304 234 405.5 c 128,-1,2
 234 507 234 507 260 603 c 1,3,4
 222 541 222 541 220 484 c 1,5,-1
 228 329 l 1,6,7
 238 250 238 250 241.5 239 c 128,-1,8
 245 228 245 228 270 201 c 1,0,1
329 688 m 1,9,10
 278 548 278 548 278 415.5 c 128,-1,11
 278 283 278 283 328 159 c 1,12,13
 408 114 408 114 509 114 c 2,14,-1
 515 114 l 2,15,16
 565 114 565 114 608 136 c 1,17,18
 676 301 676 301 676 453 c 128,-1,19
 676 605 676 605 610 745 c 1,20,21
 571 766 571 766 548 766 c 1,22,-1
 461 742 l 1,23,-1
 421 744 l 2,24,25
 407 744 407 744 382.5 731.5 c 128,-1,26
 358 719 358 719 329 688 c 1,9,10
678 685 m 1,27,28
 718 576 718 576 718 464.5 c 128,-1,29
 718 353 718 353 685 240 c 1,30,31
 698 271 698 271 720 344.5 c 128,-1,32
 742 418 742 418 742 488 c 2,33,-1
 740 526 l 1,34,35
 728 607 728 607 707 641 c 128,-1,36
 686 675 686 675 678 685 c 1,27,28
478.5 882 m 128,-1,38
 541 882 541 882 615.5 853.5 c 128,-1,39
 690 825 690 825 733 793 c 128,-1,40
 776 761 776 761 814.5 714 c 128,-1,41
 853 667 853 667 860 646 c 2,42,-1
 886 482 l 1,43,44
 886 452 886 452 874 425 c 128,-1,45
 862 398 862 398 862 352.5 c 128,-1,46
 862 307 862 307 829.5 219.5 c 128,-1,47
 797 132 797 132 762 75 c 0,48,49
 699 -30 699 -30 558.5 -30 c 128,-1,50
 418 -30 418 -30 322 12.5 c 128,-1,51
 226 55 226 55 179 92.5 c 128,-1,52
 132 130 132 130 95 222 c 1,53,-1
 54 339 l 1,54,-1
 64 458 l 1,55,56
 78 553 78 553 100.5 613 c 128,-1,57
 123 673 123 673 165.5 726 c 128,-1,58
 208 779 208 779 237 799 c 128,-1,59
 266 819 266 819 341 850.5 c 128,-1,37
 416 882 416 882 478.5 882 c 128,-1,38
EndSplineSet
EndChar

StartChar: p
Encoding: 112 112 84
Width: 1034
Flags: W
LayerCount: 2
Fore
SplineSet
848 489 m 1,0,-1
 844 547 l 2,1,2
 840 572 840 572 815 624 c 128,-1,3
 790 676 790 676 775 700 c 1,4,5
 810 598 810 598 810 491 c 0,6,7
 810 393 810 393 781 290 c 1,8,9
 810 343 810 343 829 401 c 128,-1,10
 848 459 848 459 850 487 c 1,11,-1
 848 489 l 1,0,-1
472 128.5 m 128,-1,13
 499 122 499 122 562 122 c 128,-1,14
 625 122 625 122 652.5 138 c 128,-1,15
 680 154 680 154 699 174 c 1,16,17
 766 335 766 335 766 486 c 0,18,19
 766 628 766 628 707 762 c 1,20,21
 688 771 688 771 652 779.5 c 128,-1,22
 616 788 616 788 596.5 788 c 128,-1,23
 577 788 577 788 535 769 c 128,-1,24
 493 750 493 750 486.5 727 c 128,-1,25
 480 704 480 704 452 691 c 128,-1,26
 424 678 424 678 385 663.5 c 128,-1,27
 346 649 346 649 338 646 c 1,28,29
 338 608 338 608 338 570 c 0,30,31
 338 380 338 380 334 192 c 1,32,33
 352 181 352 181 398.5 158 c 128,-1,12
 445 135 445 135 472 128.5 c 128,-1,13
272 -224 m 1,34,35
 272 -68 272 -68 274 87 c 1,36,-1
 260 87 l 1,37,38
 260 -66 260 -66 262 -219 c 1,39,40
 267 -221 267 -221 272 -224 c 1,34,35
270 514 m 2,41,-1
 270 358 l 2,42,43
 272 305 272 305 278 273 c 1,44,45
 282 445 282 445 288 616 c 1,46,47
 281 609 281 609 275.5 579 c 128,-1,48
 270 549 270 549 270 514 c 2,41,-1
96 771 m 2,49,-1
 96 776 l 2,50,51
 96 812 96 812 121 831 c 128,-1,52
 146 850 146 850 209 850 c 128,-1,53
 272 850 272 850 306 834 c 0,54,55
 338 819 338 819 350 819 c 0,56,57
 351 819 351 819 352 819 c 0,58,59
 365 820 365 820 381.5 824 c 128,-1,60
 398 828 398 828 443.5 866.5 c 128,-1,61
 489 905 489 905 517.5 913.5 c 128,-1,62
 546 922 546 922 621.5 922 c 128,-1,63
 697 922 697 922 774 885 c 128,-1,64
 851 848 851 848 911.5 736.5 c 128,-1,65
 972 625 972 625 976 503 c 1,66,-1
 976 487 l 2,67,68
 976 373 976 373 917 261 c 128,-1,69
 858 149 858 149 838 125.5 c 128,-1,70
 818 102 818 102 775.5 75.5 c 128,-1,71
 733 49 733 49 695.5 37 c 128,-1,72
 658 25 658 25 578.5 25 c 128,-1,73
 499 25 499 25 433 50.5 c 128,-1,74
 367 76 367 76 332 83 c 1,75,76
 328 -85 328 -85 322 -252 c 1,77,78
 367 -280 367 -280 375 -287 c 2,79,-1
 385 -306 l 1,80,-1
 385 -307 l 2,81,82
 385 -323 385 -323 356 -355 c 1,83,84
 347 -375 347 -375 288 -375 c 0,85,86
 257 -375 257 -375 213 -370 c 1,87,-1
 96 -380 l 1,88,89
 36 -380 36 -380 36 -336 c 2,90,-1
 36 -334 l 2,91,92
 36 -298 36 -298 72.5 -273.5 c 128,-1,93
 109 -249 109 -249 110.5 -229 c 128,-1,94
 112 -209 112 -209 114 -84.5 c 128,-1,95
 116 40 116 40 128 110 c 128,-1,96
 140 180 140 180 140 279 c 128,-1,97
 140 378 140 378 135.5 533 c 128,-1,98
 131 688 131 688 118 717 c 1,99,100
 98 730 98 730 96 771 c 2,49,-1
EndSplineSet
EndChar

StartChar: q
Encoding: 113 113 85
Width: 1044
Flags: W
LayerCount: 2
Fore
SplineSet
650 185 m 1,0,1
 668 -14 668 -14 678 -212 c 1,2,3
 683 -161 683 -161 683 -99 c 0,4,5
 683 21 683 21 663 182 c 1,6,7
 658 188 658 188 656 188 c 128,-1,8
 654 188 654 188 650 185 c 1,0,1
650 -312 m 0,9,10
 629 -89 629 -89 617 132 c 1,11,12
 592 82 592 82 573.5 54 c 128,-1,13
 555 26 555 26 515.5 10 c 128,-1,14
 476 -6 476 -6 417 -7 c 0,15,16
 415 -7 415 -7 413 -7 c 0,17,18
 354 -7 354 -7 252 25 c 0,19,20
 146 58 146 58 104 112 c 0,21,22
 62 165 62 165 58 232 c 2,23,-1
 48 381 l 1,24,-1
 60 505 l 2,25,26
 63 534 63 534 94 608 c 0,27,28
 126 684 126 684 155 720.5 c 128,-1,29
 184 757 184 757 257.5 808 c 128,-1,30
 331 859 331 859 365.5 867.5 c 128,-1,31
 400 876 400 876 466 876 c 128,-1,32
 532 876 532 876 594 842 c 1,33,-1
 676 804 l 1,34,-1
 762 822 l 1,35,36
 785 822 785 822 797.5 807.5 c 128,-1,37
 810 793 810 793 810 760.5 c 128,-1,38
 810 728 810 728 808 665.5 c 128,-1,39
 806 603 806 603 797 526 c 2,40,-1
 788 416 l 1,41,42
 795 288 795 288 798 235 c 2,43,-1
 806 77 l 1,44,-1
 804 74 l 2,45,46
 798 58 798 58 798 -10 c 0,47,48
 798 -24 798 -24 798 -37 c 0,49,50
 798 -92 798 -92 800 -152 c 1,51,-1
 830 11 l 2,52,53
 831 30 831 30 864 67 c 128,-1,54
 897 104 897 104 906 110 c 128,-1,55
 915 116 915 116 922 116 c 2,56,-1
 1003 85 l 1,57,-1
 996 15 l 2,58,59
 990 -46 990 -46 976 -78 c 0,60,61
 963 -110 963 -110 911 -237 c 0,62,63
 866 -349 866 -349 827 -384 c 0,64,65
 801 -406 801 -406 789 -406 c 0,66,67
 759 -404 759 -404 748 -399 c 0,68,69
 738 -394 738 -394 702 -384 c 0,70,71
 656 -372 656 -372 650 -312 c 0,9,10
177 564 m 0,72,73
 172 547 172 547 172 455.5 c 128,-1,74
 172 364 172 364 186.5 296.5 c 128,-1,75
 201 229 201 229 207.5 215.5 c 128,-1,76
 214 202 214 202 234 189 c 1,77,78
 195 297 195 297 195 411 c 0,79,80
 195 528 195 528 236 652 c 1,81,82
 203 617 203 617 177 564 c 0,72,73
617 659 m 1,83,84
 609 667 609 667 574.5 698.5 c 128,-1,85
 540 730 540 730 504 730 c 2,86,-1
 373 718 l 2,87,88
 330 715 330 715 293 696 c 1,89,90
 238 552 238 552 238 415 c 0,91,92
 238 285 238 285 288 161 c 0,93,94
 289 161 289 161 318 147 c 1,95,-1
 382 134 l 1,96,-1
 402 135 l 1,97,98
 442 146 442 146 480 173.5 c 128,-1,99
 518 201 518 201 546.5 247.5 c 128,-1,100
 575 294 575 294 583 306 c 1,101,102
 597 484 597 484 617 659 c 1,83,84
629 376 m 1,103,104
 632 380 632 380 640 390.5 c 128,-1,105
 648 401 648 401 648 463.5 c 128,-1,106
 648 526 648 526 657.5 556.5 c 128,-1,107
 667 587 667 587 667 595.5 c 128,-1,108
 667 604 667 604 664.5 609.5 c 128,-1,109
 662 615 662 615 650 626 c 1,110,111
 641 500 641 500 629 376 c 1,103,104
EndSplineSet
EndChar

StartChar: r
Encoding: 114 114 86
Width: 760
Flags: W
LayerCount: 2
Fore
SplineSet
288 437 m 1,0,-1
 293 210 l 2,1,2
 297 189 297 189 312 167 c 1,3,4
 310 277 310 277 310 387 c 128,-1,5
 310 497 310 497 312 606 c 1,6,7
 291 553 291 553 288 437 c 1,0,-1
458 680 m 1,8,-1
 412 690 l 2,9,10
 394 690 394 690 346 652 c 1,11,12
 350 522 350 522 350 394 c 128,-1,13
 350 266 350 266 346 138 c 1,14,15
 355 132 355 132 384 113 c 128,-1,16
 413 94 413 94 415.5 90.5 c 128,-1,17
 418 87 418 87 420.5 83 c 128,-1,18
 423 79 423 79 424 76 c 2,19,-1
 425 63 l 2,20,21
 425 16 425 16 411 16 c 0,22,23
 410 16 410 16 409 16 c 0,24,25
 356 25 356 25 322 25 c 0,26,27
 300 25 300 25 286 21 c 0,28,29
 250 12 250 12 232.5 12 c 128,-1,30
 215 12 215 12 162.5 20.5 c 128,-1,31
 110 29 110 29 93 61 c 2,32,-1
 92 63 l 1,33,-1
 92 66 l 2,34,35
 92 88 92 88 126 119 c 2,36,-1
 162 152 l 1,37,-1
 162 672 l 1,38,-1
 148 672 l 2,39,40
 117 672 117 672 89.5 701.5 c 128,-1,41
 62 731 62 731 62 745 c 128,-1,42
 62 759 62 759 71 779 c 0,43,44
 108 856 108 856 254 856 c 2,45,-1
 282 856 l 2,46,47
 309 856 309 856 341 834 c 2,48,-1
 367 815 l 1,49,-1
 475 910 l 1,50,-1
 476 910 l 1,51,52
 509 930 509 930 568.5 930 c 128,-1,53
 628 930 628 930 663 906 c 128,-1,54
 698 882 698 882 698 792 c 0,55,56
 698 626 698 626 596 626 c 0,57,58
 556 626 556 626 520 653 c 128,-1,59
 484 680 484 680 476 680 c 2,60,-1
 458 680 l 1,8,-1
EndSplineSet
EndChar

StartChar: s
Encoding: 115 115 87
Width: 814
Flags: W
LayerCount: 2
Fore
SplineSet
480 90 m 1,0,1
 488 90 488 90 496.5 92 c 128,-1,2
 505 94 505 94 525.5 112.5 c 128,-1,3
 546 131 546 131 569 192 c 128,-1,4
 592 253 592 253 592 286.5 c 128,-1,5
 592 320 592 320 583 335.5 c 128,-1,6
 574 351 574 351 547 379 c 2,7,-1
 503 424 l 2,8,9
 499 424 499 424 496 424 c 1,10,11
 582 344 582 344 582 264 c 0,12,13
 582 177 582 177 480 90 c 1,0,1
266 649 m 1,14,15
 244 619 244 619 244 600.5 c 128,-1,16
 244 582 244 582 274 575 c 1,17,18
 266 609 266 609 266 638 c 0,19,20
 266 643 266 643 266 649 c 1,14,15
104 608 m 1,21,-1
 114 683 l 2,22,23
 120 705 120 705 154.5 759.5 c 128,-1,24
 189 814 189 814 240 846.5 c 128,-1,25
 291 879 291 879 310 883.5 c 128,-1,26
 329 888 329 888 354 888 c 128,-1,27
 379 888 379 888 425.5 885 c 128,-1,28
 472 882 472 882 525.5 869 c 128,-1,29
 579 856 579 856 587 856 c 128,-1,30
 595 856 595 856 602.5 857 c 128,-1,31
 610 858 610 858 637 876 c 128,-1,32
 664 894 664 894 693.5 894 c 128,-1,33
 723 894 723 894 735.5 883 c 128,-1,34
 748 872 748 872 748 846.5 c 128,-1,35
 748 821 748 821 707.5 749.5 c 128,-1,36
 667 678 667 678 635 660 c 128,-1,37
 603 642 603 642 592 642 c 2,38,-1
 578 642 l 1,39,-1
 576 643 l 2,40,41
 557 649 557 649 552 680 c 128,-1,42
 547 711 547 711 539 717 c 128,-1,43
 531 723 531 723 476 733 c 128,-1,44
 421 743 421 743 400 744 c 1,45,46
 295 716 295 716 295 614 c 0,47,48
 295 594 295 594 299 572 c 1,49,50
 305 572 305 572 310.5 572 c 128,-1,51
 316 572 316 572 322 572 c 0,52,53
 332 573 332 573 390 573 c 128,-1,54
 448 573 448 573 548 531 c 128,-1,55
 648 489 648 489 680 434.5 c 128,-1,56
 712 380 712 380 712 252 c 128,-1,57
 712 124 712 124 684 86 c 1,58,59
 615 -34 615 -34 521 -38 c 1,60,-1
 404 -16 l 1,61,-1
 225 30 l 1,62,-1
 150 -60 l 2,63,64
 137 -72 137 -72 123 -72 c 128,-1,65
 109 -72 109 -72 86.5 -60.5 c 128,-1,66
 64 -49 64 -49 64 -15.5 c 128,-1,67
 64 18 64 18 69 106 c 128,-1,68
 74 194 74 194 84 227 c 128,-1,69
 94 260 94 260 112 272 c 128,-1,70
 130 284 130 284 146 284 c 128,-1,71
 162 284 162 284 186 267.5 c 128,-1,72
 210 251 210 251 260 191 c 128,-1,73
 310 131 310 131 330.5 121 c 128,-1,74
 351 111 351 111 396 103 c 128,-1,75
 441 95 441 95 458 93 c 1,76,77
 549 177 549 177 549 261 c 0,78,79
 549 343 549 343 463 426 c 1,80,-1
 239 437 l 1,81,-1
 238 437 l 1,82,83
 207 441 207 441 155.5 479 c 128,-1,84
 104 517 104 517 104 608 c 1,21,-1
EndSplineSet
EndChar

StartChar: t
Encoding: 116 116 88
Width: 662
Flags: W
LayerCount: 2
Fore
SplineSet
600 614 m 1,0,-1
 602 609 l 1,1,-1
 602 607 l 2,2,3
 602 569 602 569 574 552 c 128,-1,4
 546 535 546 535 457 531 c 2,5,-1
 424 529 l 1,6,7
 416 332 416 332 406 136 c 1,8,9
 430 110 430 110 479.5 104.5 c 128,-1,10
 529 99 529 99 562.5 87 c 128,-1,11
 596 75 596 75 596 55.5 c 128,-1,12
 596 36 596 36 573.5 12 c 128,-1,13
 551 -12 551 -12 530.5 -20 c 128,-1,14
 510 -28 510 -28 454 -28 c 128,-1,15
 398 -28 398 -28 347.5 6 c 128,-1,16
 297 40 297 40 274 71 c 128,-1,17
 251 102 251 102 229.5 166.5 c 128,-1,18
 208 231 208 231 203 272 c 128,-1,19
 198 313 198 313 198 344 c 128,-1,20
 198 375 198 375 207 421 c 1,21,-1
 216 509 l 2,22,23
 214 522 214 522 164 528 c 128,-1,24
 114 534 114 534 66 558 c 2,25,-1
 60 561 l 1,26,-1
 60 635 l 1,27,-1
 107 664 l 1,28,-1
 231 688 l 1,29,30
 232 693 232 693 232 706 c 2,31,-1
 220 776 l 1,32,33
 198 777 198 777 188 798.5 c 128,-1,34
 178 820 178 820 174 859 c 1,35,-1
 174 886 l 2,36,37
 174 916 174 916 187 957.5 c 128,-1,38
 200 999 200 999 222.5 1152.5 c 128,-1,39
 245 1306 245 1306 262 1333 c 1,40,-1
 263 1334 l 2,41,42
 284 1358 284 1358 321 1360 c 2,43,-1
 322 1360 l 2,44,45
 348 1360 348 1360 363 1343 c 128,-1,46
 378 1326 378 1326 380 1297 c 2,47,-1
 380 1296 l 1,48,-1
 374 1120 l 2,49,50
 374 1060 374 1060 377 975 c 128,-1,51
 380 890 380 890 380 840 c 1,52,53
 389 1082 389 1082 402 1322 c 0,54,55
 403 1333 403 1333 424.5 1332.5 c 128,-1,56
 446 1332 446 1332 446 1321 c 0,57,58
 441 1008 441 1008 430 698 c 1,59,60
 442 697 442 697 489.5 694.5 c 128,-1,61
 537 692 537 692 566 676 c 128,-1,62
 595 660 595 660 600 615 c 1,63,-1
 600 614 l 1,0,-1
354 481 m 2,64,65
 346 447 346 447 346 403.5 c 128,-1,66
 346 360 346 360 349.5 314 c 128,-1,67
 353 268 353 268 363 227 c 1,68,69
 366 377 366 377 370 527 c 1,70,71
 368 527 368 527 365 527 c 2,72,-1
 354 481 l 2,64,65
378 770 m 2,73,-1
 373 701 l 2,74,75
 374 701 374 701 375 701 c 0,76,77
 377 736 377 736 378 770 c 2,73,-1
EndSplineSet
EndChar

StartChar: u
Encoding: 117 117 89
Width: 1042
Flags: W
LayerCount: 2
Fore
SplineSet
852 450 m 1,0,-1
 854 446 l 1,1,-1
 872 303 l 1,2,3
 885 564 885 564 906 823 c 0,4,5
 907 829 907 829 919 829 c 0,6,7
 921 829 921 829 923 829 c 0,8,9
 939 828 939 828 939 821 c 0,10,11
 927 491 927 491 901 167 c 1,12,-1
 986 70 l 1,13,-1
 947 29 l 2,14,15
 926 6 926 6 915 2 c 0,16,17
 906 1 906 1 896 1 c 0,18,19
 877 1 877 1 857 4 c 0,20,21
 823 13 823 13 799.5 30.5 c 128,-1,22
 776 48 776 48 761.5 86 c 128,-1,23
 747 124 747 124 737 126 c 0,24,25
 731 124 731 124 709 103.5 c 128,-1,26
 687 83 687 83 658 49 c 0,27,28
 583 -36 583 -36 427.5 -36 c 128,-1,29
 272 -36 272 -36 207 19 c 128,-1,30
 142 74 142 74 121 115 c 128,-1,31
 100 156 100 156 96 291 c 1,32,-1
 100 564 l 2,33,34
 98 660 98 660 80 690.5 c 128,-1,35
 62 721 62 721 62 734 c 2,36,-1
 75 781 l 1,37,38
 116 872 116 872 216 872 c 2,39,-1
 277 872 l 1,40,-1
 246 314 l 1,41,-1
 240 257 l 1,42,-1
 238 236 l 2,43,44
 240 220 240 220 242.5 209 c 128,-1,45
 245 198 245 198 253 185 c 1,46,47
 267 522 267 522 294 855 c 0,48,49
 295 861 295 861 307 861 c 0,50,51
 309 861 309 861 311 861 c 0,52,53
 326 860 326 860 326 854 c 2,54,55
 326 854 326 854 326 853 c 0,56,57
 313 496 313 496 285 147 c 1,58,59
 290 142 290 142 295 137 c 0,60,61
 343 88 343 88 416 88 c 128,-1,62
 489 88 489 88 527 120 c 128,-1,63
 565 152 565 152 597 197 c 128,-1,64
 629 242 629 242 637.5 271 c 128,-1,65
 646 300 646 300 678.5 341 c 128,-1,66
 711 382 711 382 716 404 c 128,-1,67
 721 426 721 426 724 533 c 128,-1,68
 727 640 727 640 730 652 c 128,-1,69
 733 664 733 664 734 667 c 128,-1,70
 735 670 735 670 735 671 c 0,71,72
 730 674 730 674 711 677 c 128,-1,73
 692 680 692 680 660 708 c 128,-1,74
 628 736 628 736 628 749 c 128,-1,75
 628 762 628 762 632.5 769.5 c 128,-1,76
 637 777 637 777 650 789 c 128,-1,77
 663 801 663 801 672.5 808.5 c 128,-1,78
 682 816 682 816 732 857 c 128,-1,79
 782 898 782 898 818.5 898 c 128,-1,80
 855 898 855 898 875 881 c 0,81,82
 896 864 896 864 896 832 c 2,83,-1
 896 831 l 2,84,85
 896 797 896 797 874 648 c 1,86,-1
 852 450 l 1,0,-1
EndSplineSet
EndChar

StartChar: v
Encoding: 118 118 90
Width: 1082
Flags: W
LayerCount: 2
Fore
SplineSet
287 641 m 1,0,1
 289 634 289 634 298.5 587.5 c 128,-1,2
 308 541 308 541 368 457 c 128,-1,3
 428 373 428 373 478.5 297.5 c 128,-1,4
 529 222 529 222 539.5 218.5 c 128,-1,5
 550 215 550 215 551 215 c 1,6,7
 415 427 415 427 287 641 c 1,0,1
880 844 m 0,8,9
 1018 844 1018 844 1018 751 c 0,10,11
 1018 703 1018 703 993.5 683 c 128,-1,12
 969 663 969 663 902.5 546.5 c 128,-1,13
 836 430 836 430 823.5 412 c 128,-1,14
 811 394 811 394 803 365 c 128,-1,15
 795 336 795 336 730 238 c 128,-1,16
 665 140 665 140 642.5 95 c 128,-1,17
 620 50 620 50 595.5 28 c 128,-1,18
 571 6 571 6 555.5 6 c 128,-1,19
 540 6 540 6 519 14 c 128,-1,20
 498 22 498 22 479 48 c 2,21,-1
 430 130 l 1,22,23
 384 226 384 226 276.5 375 c 128,-1,24
 169 524 169 524 148.5 579.5 c 128,-1,25
 128 635 128 635 98.5 649.5 c 128,-1,26
 69 664 69 664 62.5 677 c 128,-1,27
 56 690 56 690 56 733 c 128,-1,28
 56 776 56 776 80 809 c 128,-1,29
 104 842 104 842 150 842 c 128,-1,30
 196 842 196 842 219.5 814.5 c 128,-1,31
 243 787 243 787 332 645.5 c 128,-1,32
 421 504 421 504 575 245 c 1,33,34
 614 301 614 301 719 495 c 128,-1,35
 824 689 824 689 824 753 c 128,-1,36
 824 817 824 817 831.5 830.5 c 128,-1,37
 839 844 839 844 880 844 c 0,8,9
EndSplineSet
EndChar

StartChar: w
Encoding: 119 119 91
Width: 1414
Flags: W
LayerCount: 2
Fore
SplineSet
1113 816 m 0,0,1
 1121 868 1121 868 1238.5 868 c 128,-1,2
 1356 868 1356 868 1356 810 c 0,3,4
 1356 783 1356 783 1333.5 749 c 128,-1,5
 1311 715 1311 715 1278 623 c 128,-1,6
 1245 531 1245 531 1173 362 c 128,-1,7
 1101 193 1101 193 1081 131 c 128,-1,8
 1061 69 1061 69 1020.5 38.5 c 128,-1,9
 980 8 980 8 946.5 8 c 128,-1,10
 913 8 913 8 889 53 c 128,-1,11
 865 98 865 98 805 158.5 c 128,-1,12
 745 219 745 219 726 227 c 1,13,14
 710 213 710 213 688.5 169 c 128,-1,15
 667 125 667 125 658.5 106.5 c 128,-1,16
 650 88 650 88 645.5 79 c 128,-1,17
 641 70 641 70 635.5 60 c 128,-1,18
 630 50 630 50 625.5 45.5 c 128,-1,19
 621 41 621 41 587.5 28.5 c 128,-1,20
 554 16 554 16 523 15 c 0,21,22
 521 15 521 15 520 15 c 0,23,24
 491 14 491 14 466 32 c 0,25,26
 440 50 440 50 393.5 147 c 128,-1,27
 347 244 347 244 326 279 c 128,-1,28
 305 314 305 314 290 353 c 128,-1,29
 275 392 275 392 212.5 498.5 c 128,-1,30
 150 605 150 605 143.5 647.5 c 128,-1,31
 137 690 137 690 130.5 700 c 128,-1,32
 124 710 124 710 114.5 714.5 c 128,-1,33
 105 719 105 719 104 719 c 0,34,35
 60 741 60 741 58 771 c 128,-1,36
 56 801 56 801 56 812 c 128,-1,37
 56 823 56 823 62.5 831 c 128,-1,38
 69 839 69 839 101 846.5 c 128,-1,39
 133 854 133 854 223 854 c 128,-1,40
 313 854 313 854 328 814 c 1,41,-1
 329 812 l 1,42,-1
 319 787 l 1,43,44
 309 778 309 778 297.5 771 c 128,-1,45
 286 764 286 764 283 762 c 0,46,47
 422 479 422 479 547 195 c 1,48,49
 557 216 557 216 579.5 275.5 c 128,-1,50
 602 335 602 335 643 395.5 c 128,-1,51
 684 456 684 456 706.5 477 c 128,-1,52
 729 498 729 498 759 498 c 128,-1,53
 789 498 789 498 805 473 c 128,-1,54
 821 448 821 448 831 375.5 c 128,-1,55
 841 303 841 303 880.5 258.5 c 128,-1,56
 920 214 920 214 936 199 c 1,57,58
 1027 484 1027 484 1127 763 c 1,59,60
 1114 815 1114 815 1113 816 c 0,0,1
1143 699 m 1,61,62
 1060 442 1060 442 970 191 c 1,63,64
 972 192 972 192 984 208 c 0,65,66
 998 224 998 224 1074 438 c 0,67,68
 1144 635 1144 635 1144 690 c 0,69,70
 1144 695 1144 695 1143 699 c 1,61,62
262 727 m 1,71,72
 262 726 262 726 262 710 c 128,-1,73
 262 694 262 694 305 598.5 c 128,-1,74
 348 503 348 503 380 425 c 128,-1,75
 412 347 412 347 455 274.5 c 128,-1,76
 498 202 498 202 515 180 c 1,77,78
 383 452 383 452 262 727 c 1,71,72
EndSplineSet
EndChar

StartChar: x
Encoding: 120 120 92
Width: 918
Flags: W
LayerCount: 2
Fore
SplineSet
555 363 m 1,0,1
 578 332 578 332 617 291.5 c 128,-1,2
 656 251 656 251 690 208.5 c 128,-1,3
 724 166 724 166 771 136.5 c 128,-1,4
 818 107 818 107 835 85.5 c 128,-1,5
 852 64 852 64 852 27.5 c 128,-1,6
 852 -9 852 -9 826 -24 c 1,7,-1
 826 -25 l 1,8,-1
 805 -30 l 2,9,10
 803 -30 803 -30 800 -30 c 0,11,12
 782 -30 782 -30 756 -16 c 0,13,14
 726 0 726 0 687 6.5 c 128,-1,15
 648 13 648 13 628.5 31.5 c 128,-1,16
 609 50 609 50 603.5 94.5 c 128,-1,17
 598 139 598 139 549.5 184 c 128,-1,18
 501 229 501 229 482 245 c 1,19,20
 425 153 425 153 367 62 c 1,21,22
 396 31 396 31 396 25 c 2,23,24
 396 25 396 25 396 24 c 0,25,26
 377 -21 377 -21 337 -25 c 2,27,-1
 199 -40 l 1,28,-1
 154 -36 l 1,29,-1
 152 -35 l 1,30,31
 108 -20 108 -20 108 13 c 1,32,-1
 120 51 l 1,33,34
 133 73 133 73 154.5 85.5 c 128,-1,35
 176 98 176 98 227 167.5 c 128,-1,36
 278 237 278 237 299.5 278 c 128,-1,37
 321 319 321 319 321 331.5 c 128,-1,38
 321 344 321 344 317.5 355.5 c 128,-1,39
 314 367 314 367 272.5 407.5 c 128,-1,40
 231 448 231 448 162 554.5 c 128,-1,41
 93 661 93 661 87.5 689 c 128,-1,42
 82 717 82 717 71 746.5 c 128,-1,43
 60 776 60 776 60 798 c 0,44,45
 60 858 60 858 166 858 c 2,46,-1
 216 858 l 2,47,48
 255 858 255 858 300 847.5 c 128,-1,49
 345 837 345 837 345 810 c 128,-1,50
 345 783 345 783 305.5 749.5 c 128,-1,51
 266 716 266 716 266 687.5 c 128,-1,52
 266 659 266 659 303.5 585 c 128,-1,53
 341 511 341 511 367 487 c 0,54,55
 392 464 392 464 406 464 c 2,56,57
 406 464 406 464 407 464 c 2,58,-1
 416 466 l 1,59,60
 437 478 437 478 503 598 c 2,61,-1
 572 717 l 1,62,63
 552 768 552 768 552 803 c 128,-1,64
 552 838 552 838 570 859 c 2,65,-1
 573 863 l 1,66,-1
 659 874 l 1,67,-1
 766 865 l 1,68,69
 790 868 790 868 808 868 c 0,70,71
 852 868 852 868 852 847 c 0,72,73
 852 839 852 839 846 828 c 0,74,75
 816 775 816 775 771 750 c 0,76,77
 770 750 770 750 770 749 c 128,-1,78
 770 748 770 748 774 744 c 0,79,80
 778 741 778 741 778 738 c 0,81,82
 778 736 778 736 777 734 c 0,83,84
 667 546 667 546 555 363 c 1,0,1
344 86 m 1,85,86
 397 176 397 176 450 265 c 1,87,88
 438 259 438 259 422 238.5 c 128,-1,89
 406 218 406 218 369 158 c 0,90,91
 335 103 335 103 335 95 c 1,92,-1
 336 94 l 2,93,94
 340 91 340 91 344 86 c 1,85,86
614 534 m 1,95,96
 669 624 669 624 725 712 c 1,97,98
 673 656 673 656 614 534 c 1,95,96
EndSplineSet
EndChar

StartChar: y
Encoding: 121 121 93
Width: 948
Flags: W
LayerCount: 2
Fore
SplineSet
414 -218 m 0,0,1
 457 -218 457 -218 511 -143 c 1,2,-1
 552 -73 l 1,3,-1
 566 -30 l 1,4,-1
 557 -13 l 1,5,6
 529 -82 529 -82 502.5 -123 c 128,-1,7
 476 -164 476 -164 401 -217 c 1,8,9
 407 -218 407 -218 414 -218 c 0,0,1
653 226 m 0,10,11
 662 266 662 266 678 354 c 0,12,13
 693 435 693 435 693 466 c 0,14,15
 693 468 693 468 693 470 c 2,16,-1
 692 573 l 1,17,-1
 692 586 l 2,18,19
 690 570 690 570 671.5 440.5 c 128,-1,20
 653 311 653 311 608 144 c 1,21,22
 615 146 615 146 621 149 c 128,-1,23
 627 152 627 152 635 169 c 128,-1,24
 643 186 643 186 653 226 c 0,10,11
56 738 m 2,25,-1
 56 743 l 2,26,27
 56 775 56 775 88 810 c 128,-1,28
 120 845 120 845 188.5 856.5 c 128,-1,29
 257 868 257 868 263.5 868 c 128,-1,30
 270 868 270 868 321.5 854.5 c 128,-1,31
 373 841 373 841 373 806.5 c 128,-1,32
 373 772 373 772 343.5 751.5 c 128,-1,33
 314 731 314 731 310 698 c 128,-1,34
 306 665 306 665 306 627 c 2,35,-1
 328 313 l 1,36,37
 340 229 340 229 431 188.5 c 128,-1,38
 522 148 522 148 556 140 c 1,39,40
 595 299 595 299 625.5 455.5 c 128,-1,41
 656 612 656 612 665 672 c 1,42,-1
 635 674 l 2,43,44
 577 674 577 674 577 744 c 0,45,46
 577 767 577 767 613 797 c 128,-1,47
 649 827 649 827 713 838.5 c 128,-1,48
 777 850 777 850 806 850 c 0,49,50
 892 850 892 850 892 799 c 2,51,-1
 892 797 l 2,52,53
 892 753 892 753 873 721.5 c 128,-1,54
 854 690 854 690 854 660 c 2,55,-1
 858 562 l 2,56,57
 858 510 858 510 760 82 c 0,58,59
 716 -112 716 -112 630 -233.5 c 128,-1,60
 544 -355 544 -355 457 -367.5 c 128,-1,61
 370 -380 370 -380 354 -380 c 128,-1,62
 338 -380 338 -380 320 -379 c 128,-1,63
 302 -378 302 -378 228 -330.5 c 128,-1,64
 154 -283 154 -283 141 -267.5 c 128,-1,65
 128 -252 128 -252 128 -238 c 128,-1,66
 128 -224 128 -224 137 -202 c 128,-1,67
 146 -180 146 -180 158 -172 c 128,-1,68
 170 -164 170 -164 203 -164 c 128,-1,69
 236 -164 236 -164 260 -181 c 128,-1,70
 284 -198 284 -198 309 -198 c 128,-1,71
 334 -198 334 -198 374 -209 c 1,72,73
 429 -166 429 -166 462 -124 c 128,-1,74
 495 -82 495 -82 522 12 c 1,75,76
 495 26 495 26 417.5 52.5 c 128,-1,77
 340 79 340 79 272 142 c 128,-1,78
 204 205 204 205 187 255 c 1,79,-1
 186 255 l 1,80,81
 156 366 156 366 156 508 c 2,82,-1
 156 625 l 1,83,-1
 110 664 l 2,84,85
 58 708 58 708 56 738 c 2,25,-1
EndSplineSet
EndChar

StartChar: z
Encoding: 122 122 94
Width: 874
Flags: W
LayerCount: 2
Fore
SplineSet
538 687 m 1,0,-1
 533 694 l 1,1,2
 525 694 525 694 506 700 c 1,3,-1
 263 700 l 2,4,5
 249 697 249 697 244 678.5 c 128,-1,6
 239 660 239 660 201 619 c 128,-1,7
 163 578 163 578 140 578 c 128,-1,8
 117 578 117 578 109.5 612 c 128,-1,9
 102 646 102 646 102 683 c 128,-1,10
 102 720 102 720 102 742.5 c 128,-1,11
 102 765 102 765 102 780 c 128,-1,12
 102 795 102 795 103.5 813 c 128,-1,13
 105 831 105 831 107.5 840 c 128,-1,14
 110 849 110 849 118 857 c 1,15,-1
 163 866 l 1,16,-1
 467 832 l 2,17,18
 493 833 493 833 556.5 858.5 c 128,-1,19
 620 884 620 884 682 884 c 128,-1,20
 744 884 744 884 778.5 862 c 128,-1,21
 813 840 813 840 813 804.5 c 128,-1,22
 813 769 813 769 765 747 c 1,23,24
 677 567 677 567 587 389 c 0,25,26
 589 386 589 386 598.5 368 c 128,-1,27
 608 350 608 350 608 337 c 0,28,29
 608 302 608 302 542 290 c 0,30,31
 539 289 539 289 537 289 c 0,32,33
 399 16 399 16 256 -252 c 1,34,-1
 312 -252 l 2,35,36
 390 -252 390 -252 462 -225.5 c 128,-1,37
 534 -199 534 -199 572 -189 c 128,-1,38
 610 -179 610 -179 642 -151.5 c 128,-1,39
 674 -124 674 -124 704.5 -124 c 128,-1,40
 735 -124 735 -124 752.5 -141.5 c 128,-1,41
 770 -159 770 -159 770 -192 c 2,42,-1
 760 -278 l 1,43,44
 747 -338 747 -338 713.5 -364 c 128,-1,45
 680 -390 680 -390 650 -390 c 2,46,-1
 639 -390 l 2,47,48
 603 -388 603 -388 584.5 -363 c 128,-1,49
 566 -338 566 -338 551 -336 c 1,50,-1
 314 -379 l 1,51,52
 201 -394 201 -394 144 -394 c 128,-1,53
 87 -394 87 -394 66.5 -375.5 c 128,-1,54
 46 -357 46 -357 46 -324 c 128,-1,55
 46 -291 46 -291 68 -280 c 1,56,57
 80 -265 80 -265 93 -157.5 c 128,-1,58
 106 -50 106 -50 178.5 80 c 128,-1,59
 251 210 251 210 255 225 c 2,60,-1
 260 267 l 1,61,62
 256 291 256 291 256 301 c 0,63,64
 256 367 256 367 313.5 387.5 c 128,-1,65
 371 408 371 408 395 435.5 c 128,-1,66
 419 463 419 463 449 513 c 128,-1,67
 479 563 479 563 492 585.5 c 128,-1,68
 505 608 505 608 511.5 622 c 128,-1,69
 518 636 518 636 526 657 c 2,70,-1
 537 685 l 1,71,-1
 538 687 l 1,0,-1
265 -124 m 1,72,73
 357 62 357 62 452 247 c 1,74,75
 441 234 441 234 419 201.5 c 128,-1,76
 397 169 397 169 344 85 c 128,-1,77
 291 1 291 1 279.5 -54 c 128,-1,78
 268 -109 268 -109 265 -124 c 1,72,73
EndSplineSet
EndChar

StartChar: braceleft
Encoding: 123 123 95
Width: 668
Flags: W
LayerCount: 2
Fore
SplineSet
483 -92 m 1,0,-1
 769 -151 l 1,1,-1
 766 -163 l 2,2,3
 750 -230 750 -230 698 -230 c 2,4,-1
 475 -224 l 2,5,6
 399 -218 399 -218 377 -202 c 1,7,-1
 375 -200 l 1,8,-1
 301 -64 l 2,9,10
 286 -33 286 -33 280 187 c 0,11,12
 274 408 274 408 270 438 c 0,13,14
 268 468 268 468 252 482 c 0,15,16
 237 496 237 496 230 497 c 1,17,-1
 230 496 l 1,18,19
 224 496 224 496 213 496 c 128,-1,20
 202 496 202 496 181.5 509.5 c 128,-1,21
 161 523 161 523 142.5 550.5 c 128,-1,22
 124 578 124 578 124 597.5 c 128,-1,23
 124 617 124 617 144 641 c 2,24,-1
 298 799 l 1,25,-1
 280 1234 l 1,26,27
 280 1333 280 1333 284.5 1358.5 c 128,-1,28
 289 1384 289 1384 321.5 1440 c 128,-1,29
 354 1496 354 1496 463 1526 c 128,-1,30
 572 1556 572 1556 635.5 1556 c 128,-1,31
 699 1556 699 1556 726.5 1526.5 c 128,-1,32
 754 1497 754 1497 754 1485.5 c 128,-1,33
 754 1474 754 1474 754.5 1471 c 128,-1,34
 755 1468 755 1468 755 1465 c 128,-1,35
 755 1462 755 1462 754.5 1458 c 128,-1,36
 754 1454 754 1454 753 1451 c 128,-1,37
 752 1448 752 1448 748.5 1446 c 128,-1,38
 745 1444 745 1444 740 1444 c 0,39,40
 567 1438 567 1438 495 1393 c 1,41,42
 499 1255 499 1255 499 1117.5 c 128,-1,43
 499 980 499 980 495 844 c 0,44,45
 494 840 494 840 478 840 c 0,46,47
 476 840 476 840 476 839 c 1,48,49
 462 839 462 839 462 844 c 0,50,51
 458 982 458 982 458 1119 c 0,52,53
 458 1236 458 1236 461 1352 c 1,54,55
 424 1277 424 1277 424 1120 c 128,-1,56
 424 963 424 963 434 917 c 128,-1,57
 444 871 444 871 444 841 c 128,-1,58
 444 811 444 811 438.5 764.5 c 128,-1,59
 433 718 433 718 394 681.5 c 128,-1,60
 355 645 355 645 349 636 c 2,61,-1
 346 622 l 2,62,63
 348 616 348 616 359 606 c 0,64,65
 428 530 428 530 428 348 c 1,66,-1
 420 146 l 1,67,68
 420 31 420 31 432 -4.5 c 128,-1,69
 444 -40 444 -40 448 -49 c 1,70,71
 446 53 446 53 446 154 c 0,72,73
 446 296 446 296 450 436 c 0,74,75
 450 441 450 441 466 441 c 128,-1,76
 482 441 482 441 483 436 c 0,77,78
 487 302 487 302 487 170 c 128,-1,79
 487 38 487 38 483 -92 c 1,0,-1
EndSplineSet
EndChar

StartChar: bar
Encoding: 124 124 96
Width: 436
Flags: W
LayerCount: 2
Fore
SplineSet
280 962 m 1,0,-1
 268 732 l 1,1,-1
 292 254 l 1,2,-1
 292 208 l 1,3,-1
 288 6 l 1,4,-1
 305 -276 l 2,5,6
 305 -333 305 -333 293.5 -358 c 128,-1,7
 282 -383 282 -383 255.5 -394.5 c 128,-1,8
 229 -406 229 -406 217 -406 c 128,-1,9
 205 -406 205 -406 183 -390 c 128,-1,10
 161 -374 161 -374 148 -340 c 0,11,12
 136 -310 136 -310 136 -122 c 0,13,14
 136 -100 136 -100 136 -76 c 0,15,16
 138 154 138 154 150 232.5 c 128,-1,17
 162 311 162 311 162 406.5 c 128,-1,18
 162 502 162 502 146 785 c 128,-1,19
 130 1068 130 1068 130 1309 c 128,-1,20
 130 1550 130 1550 142 1582.5 c 128,-1,21
 154 1615 154 1615 176 1633.5 c 128,-1,22
 198 1652 198 1652 210.5 1652 c 128,-1,23
 223 1652 223 1652 249 1639.5 c 128,-1,24
 275 1627 275 1627 287.5 1598.5 c 128,-1,25
 300 1570 300 1570 300 1522 c 2,26,-1
 300 1516 l 2,27,28
 300 1463 300 1463 286 1414 c 1,29,-1
 278 1214 l 1,30,-1
 280 1012 l 1,31,-1
 280 962 l 1,0,-1
EndSplineSet
EndChar

StartChar: braceright
Encoding: 125 125 97
Width: 608
Flags: W
LayerCount: 2
Fore
SplineSet
150 431 m 0,0,1
 150 436 150 436 166 436 c 0,2,3
 167 436 167 436 168 437 c 0,4,5
 182 437 182 437 182 431 c 0,6,7
 186 290 186 290 186 151 c 0,8,9
 186 29 186 29 183 -93 c 1,10,11
 216 -17 216 -17 216 135 c 128,-1,12
 216 287 216 287 206 333 c 128,-1,13
 196 379 196 379 196 411 c 128,-1,14
 196 443 196 443 202.5 487.5 c 128,-1,15
 209 532 209 532 248 570 c 128,-1,16
 287 608 287 608 290.5 616 c 128,-1,17
 294 624 294 624 294 630 c 128,-1,18
 294 636 294 636 283 648 c 0,19,20
 216 717 216 717 214 902 c 2,21,-1
 216 1248 l 2,22,23
 216 1385 216 1385 182 1427 c 1,24,25
 186 1293 186 1293 186 1160 c 128,-1,26
 186 1027 186 1027 182 895 c 0,27,28
 182 891 182 891 165.5 891 c 128,-1,29
 149 891 149 891 149 895 c 0,30,31
 145 1034 145 1034 145 1172 c 128,-1,32
 145 1310 145 1310 149 1447 c 1,33,-1
 -119 1503 l 1,34,-1
 -116 1515 l 2,35,36
 -100 1582 -100 1582 -48 1582 c 2,37,-1
 189 1576 l 1,38,39
 254 1570 254 1570 273 1555 c 1,40,-1
 275 1554 l 1,41,-1
 349 1418 l 2,42,43
 356 1403 356 1403 359 1296.5 c 128,-1,44
 362 1190 362 1190 364 1075 c 128,-1,45
 366 960 366 960 369 874.5 c 128,-1,46
 372 789 372 789 424 730 c 128,-1,47
 476 671 476 671 476 634.5 c 128,-1,48
 476 598 476 598 474 586 c 0,49,50
 469 543 469 543 426 537 c 1,51,-1
 344 455 l 1,52,-1
 360 18 l 2,53,54
 360 -83 360 -83 357 -108.5 c 128,-1,55
 354 -134 354 -134 321 -191 c 128,-1,56
 288 -248 288 -248 176.5 -275 c 128,-1,57
 65 -302 65 -302 2 -302 c 128,-1,58
 -61 -302 -61 -302 -87.5 -274.5 c 128,-1,59
 -114 -247 -114 -247 -114 -234.5 c 128,-1,60
 -114 -222 -114 -222 -114.5 -217.5 c 128,-1,61
 -115 -213 -115 -213 -115 -209 c 128,-1,62
 -115 -205 -115 -205 -114 -200.5 c 128,-1,63
 -113 -196 -113 -196 -109.5 -193 c 128,-1,64
 -106 -190 -106 -190 -100 -190 c 0,65,66
 75 -184 75 -184 147 -140 c 0,67,68
 154 -136 154 -136 160 -129 c 1,69,70
 150 -128 150 -128 150 -125 c 0,71,72
 146 15 146 15 146 154 c 128,-1,73
 146 293 146 293 150 431 c 0,0,1
EndSplineSet
EndChar

StartChar: asciitilde
Encoding: 126 126 98
Width: 1352
Flags: W
LayerCount: 2
Fore
SplineSet
1081 767.5 m 128,-1,1
 1126 808 1126 808 1158 808 c 128,-1,2
 1190 808 1190 808 1205 790 c 128,-1,3
 1220 772 1220 772 1220 737 c 128,-1,4
 1220 702 1220 702 1208.5 689.5 c 128,-1,5
 1197 677 1197 677 1135.5 592.5 c 128,-1,6
 1074 508 1074 508 1070 487 c 0,7,8
 1052 414 1052 414 977 382 c 0,9,10
 961 375 961 375 922 375 c 0,11,12
 832 375 832 375 790 451 c 0,13,14
 769 490 769 490 699 545 c 128,-1,15
 629 600 629 600 577.5 618 c 128,-1,16
 526 636 526 636 496 636 c 128,-1,17
 466 636 466 636 422 623.5 c 128,-1,18
 378 611 378 611 322.5 559.5 c 128,-1,19
 267 508 267 508 255 497 c 128,-1,20
 243 486 243 486 226.5 472.5 c 128,-1,21
 210 459 210 459 201 454.5 c 128,-1,22
 192 450 192 450 184 450 c 0,23,24
 128 450 128 450 128 546 c 2,25,-1
 128 576 l 2,26,27
 128 613 128 613 370 815 c 0,28,29
 414 852 414 852 456 852 c 0,30,31
 478 852 478 852 500 842 c 0,32,33
 564 812 564 812 603 776.5 c 128,-1,34
 642 741 642 741 785 648 c 1,35,36
 889 572 889 572 902 571 c 2,37,38
 902 571 902 571 903 571 c 0,39,40
 916 570 916 570 934 590 c 0,41,42
 953 610 953 610 994.5 668.5 c 128,-1,0
 1036 727 1036 727 1081 767.5 c 128,-1,1
EndSplineSet
EndChar

StartChar: exclamdown
Encoding: 161 161 100
Width: 612
Flags: W
LayerCount: 2
Fore
SplineSet
140 -124 m 1,0,-1
 128 3 l 1,1,-1
 140 133 l 1,2,-1
 168 300 l 2,3,4
 188 409 188 409 213 475 c 128,-1,5
 238 541 238 541 251 564 c 128,-1,6
 264 587 264 587 272 590 c 128,-1,7
 280 593 280 593 293 598 c 0,8,9
 306 602 306 602 329 600 c 0,10,11
 394 595 394 595 408 504 c 0,12,13
 416 463 416 463 424 303 c 2,14,-1
 444 -10 l 2,15,16
 444 -46 444 -46 440 -99 c 128,-1,17
 436 -152 436 -152 403 -270 c 128,-1,18
 370 -388 370 -388 315 -404 c 1,19,-1
 292 -406 l 1,20,-1
 275 -406 l 1,21,22
 225 -401 225 -401 193 -330 c 0,23,24
 161 -260 161 -260 140 -124 c 1,0,-1
328 -32 m 1,25,-1
 332 8 l 1,26,-1
 308 280 l 1,27,28
 303 265 303 265 293 226 c 128,-1,29
 283 187 283 187 268 126 c 0,30,31
 252 65 252 65 248 41 c 1,32,-1
 252 -89 l 1,33,-1
 284 -255 l 1,34,35
 296 -241 296 -241 308 -195 c 2,36,-1
 332 -70 l 1,37,-1
 328 -32 l 1,25,-1
346 906 m 0,38,39
 388 887 388 887 388 827 c 128,-1,40
 388 767 388 767 366 735 c 128,-1,41
 344 703 344 703 316.5 690.5 c 128,-1,42
 289 678 289 678 277.5 678 c 128,-1,43
 266 678 266 678 243.5 684.5 c 128,-1,44
 221 691 221 691 190.5 718 c 128,-1,45
 160 745 160 745 160 771 c 128,-1,46
 160 797 160 797 178 836 c 128,-1,47
 196 875 196 875 216.5 888.5 c 128,-1,48
 237 902 237 902 260 905 c 128,-1,49
 283 908 283 908 297 910 c 128,-1,50
 311 912 311 912 319.5 913 c 128,-1,51
 328 914 328 914 346 906 c 0,38,39
EndSplineSet
EndChar

